<svg xmlns="http://www.w3.org/2000/svg" xmlns:xlink="http://www.w3.org/1999/xlink" contentStyleType="text/css" data-diagram-type="CLASS" height="978px" preserveAspectRatio="none" style="width:317px;height:978px;background:#FFFFFF;" version="1.1" viewBox="0 0 317 978" width="317px" zoomAndPan="magnify"><defs/><g><!--cluster jettl.lvlib--><g class="cluster" data-entity="jettl.lvlib" data-source-line="8" data-uid="ent0003" id="cluster_jettl.lvlib"><path d="M8.5,6 L80.8398,6 A3.75,3.75 0 0 1 83.3398,8.5 L90.3398,28.2969 L307.5,28.2969 A2.5,2.5 0 0 1 310,30.7969 L310,969.48 A2.5,2.5 0 0 1 307.5,971.98 L8.5,971.98 A2.5,2.5 0 0 1 6,969.48 L6,8.5 A2.5,2.5 0 0 1 8.5,6" fill="none" style="stroke:#000000;stroke-width:1.5;"/><line style="stroke:#000000;stroke-width:1.5;" x1="6" x2="90.3398" y1="28.2969" y2="28.2969"/><text fill="#000000" font-family="sans-serif" font-size="14" font-weight="bold" lengthAdjust="spacing" textLength="71.3398" x="10" y="20.9951">jettl.lvlib</text></g><!--cluster Base Queue.lvlib--><g class="cluster" data-entity="Base Queue.lvlib" data-source-line="8" data-uid="ent0004" id="cluster_Base Queue.lvlib"><path d="M32.5,114 L166.0078,114 A3.75,3.75 0 0 1 168.5078,116.5 L175.5078,136.2969 L283.5,136.2969 A2.5,2.5 0 0 1 286,138.7969 L286,945.48 A2.5,2.5 0 0 1 283.5,947.98 L32.5,947.98 A2.5,2.5 0 0 1 30,945.48 L30,116.5 A2.5,2.5 0 0 1 32.5,114" fill="none" style="stroke:#000000;stroke-width:1.5;"/><line style="stroke:#000000;stroke-width:1.5;" x1="30" x2="175.5078" y1="136.2969" y2="136.2969"/><text fill="#000000" font-family="sans-serif" font-size="14" font-weight="bold" lengthAdjust="spacing" textLength="132.5078" x="34" y="128.9951">Base Queue.lvlib</text></g><!--cluster State.lvlib--><g class="cluster" data-entity="State.lvlib" data-source-line="51" data-uid="ent0008" id="cluster_State.lvlib"><path d="M109.5,824.98 L191.7725,824.98 A3.75,3.75 0 0 1 194.2725,827.48 L201.2725,847.2769 L206.5,847.2769 A2.5,2.5 0 0 1 209,849.7769 L209,921.48 A2.5,2.5 0 0 1 206.5,923.98 L109.5,923.98 A2.5,2.5 0 0 1 107,921.48 L107,827.48 A2.5,2.5 0 0 1 109.5,824.98" fill="none" style="stroke:#000000;stroke-width:1.5;"/><line style="stroke:#000000;stroke-width:1.5;" x1="107" x2="201.2725" y1="847.2769" y2="847.2769"/><text fill="#000000" font-family="sans-serif" font-size="14" font-weight="bold" lengthAdjust="spacing" textLength="81.2725" x="111" y="839.9751">State.lvlib</text></g><!--class Queue--><g class="entity" data-entity="Queue" data-source-line="48" data-uid="ent0005" id="entity_Queue"><rect fill="#FFFFFF" height="48" rx="2.5" ry="2.5" style="stroke:#555555;stroke-width:0.5;" width="77.9922" x="119" y="41"/><rect fill="#808080" height="32" rx="2.5" ry="2.5" style="stroke:#808080;stroke-width:0.5;" width="77.9922" x="119" y="41"/><rect fill="#808080" height="2.5" style="stroke:#808080;stroke-width:0.5;" width="77.9922" x="119" y="70.5"/><rect fill="none" height="48" rx="2.5" ry="2.5" style="stroke:#555555;stroke-width:0.5;" width="77.9922" x="119" y="41"/><ellipse cx="134" cy="57" fill="#B4A7E5" rx="11" ry="11" style="stroke:#181818;stroke-width:1;"/><path d="M129.9219,52.7656 L129.9219,50.6094 L137.3125,50.6094 L137.3125,52.7656 L134.8438,52.7656 L134.8438,60.8438 L137.3125,60.8438 L137.3125,63 L129.9219,63 L129.9219,60.8438 L132.3906,60.8438 L132.3906,52.7656 L129.9219,52.7656 Z " fill="#000000"/><text fill="#000000" font-family="sans-serif" font-size="14" font-style="italic" lengthAdjust="spacing" textLength="45.9922" x="148" y="61.8467">Queue</text><line style="stroke:#555555;stroke-width:0.5;" x1="120" x2="195.9922" y1="73" y2="73"/><line style="stroke:#555555;stroke-width:0.5;" x1="120" x2="195.9922" y1="81" y2="81"/></g><!--class Base Queue--><g class="entity" data-entity="Base Queue" data-source-line="8" data-uid="ent0002" id="entity_Base Queue"><rect fill="#FFFFFF" height="650.9844" rx="2.5" ry="2.5" style="stroke:#555555;stroke-width:0.5;" width="224.0986" x="45.95" y="149"/><rect fill="#808080" height="32" rx="2.5" ry="2.5" style="stroke:#808080;stroke-width:0.5;" width="224.0986" x="45.95" y="149"/><rect fill="#808080" height="2.5" style="stroke:#808080;stroke-width:0.5;" width="224.0986" x="45.95" y="178.5"/><rect fill="none" height="650.9844" rx="2.5" ry="2.5" style="stroke:#555555;stroke-width:0.5;" width="224.0986" x="45.95" y="149"/><ellipse cx="111.4827" cy="165" fill="#ADD1B2" rx="11" ry="11" style="stroke:#181818;stroke-width:1;"/><path d="M114.4515,170.6406 Q113.8733,170.9375 113.2327,171.0781 Q112.5921,171.2344 111.889,171.2344 Q109.389,171.2344 108.0608,169.5938 Q106.7483,167.9375 106.7483,164.8125 Q106.7483,161.6875 108.0608,160.0313 Q109.389,158.375 111.889,158.375 Q112.5921,158.375 113.2327,158.5313 Q113.889,158.6875 114.4515,158.9844 L114.4515,161.7031 Q113.8265,161.125 113.2327,160.8594 Q112.639,160.5781 112.014,160.5781 Q110.6702,160.5781 109.9827,161.6563 Q109.2952,162.7188 109.2952,164.8125 Q109.2952,166.9063 109.9827,167.9844 Q110.6702,169.0469 112.014,169.0469 Q112.639,169.0469 113.2327,168.7813 Q113.8265,168.5 114.4515,167.9219 L114.4515,170.6406 Z " fill="#000000"/><text fill="#000000" font-family="sans-serif" font-size="14" lengthAdjust="spacing" textLength="84.5332" x="131.9827" y="169.8467">Base Queue</text><line style="stroke:#555555;stroke-width:0.5;" x1="46.95" x2="269.0486" y1="181" y2="181"/><rect fill="none" height="6" style="stroke:#C82930;stroke-width:1;" width="6" x="53.95" y="191.6484"/><text fill="#000000" font-family="sans-serif" font-size="14" lengthAdjust="spacing" textLength="109.334" x="65.95" y="197.9951">State : LV Class</text><rect fill="none" height="6" style="stroke:#C82930;stroke-width:1;" width="6" x="53.95" y="207.9453"/><text fill="#000000" font-family="sans-serif" font-size="14" lengthAdjust="spacing" textLength="137.1152" x="65.95" y="214.292">Error : Error Cluster</text><rect fill="none" height="6" style="stroke:#C82930;stroke-width:1;" width="6" x="53.95" y="224.2422"/><text fill="#000000" font-family="sans-serif" font-size="14" lengthAdjust="spacing" textLength="169.8389" x="65.95" y="230.5889">Self Queue Alias : String</text><rect fill="none" height="6" style="stroke:#C82930;stroke-width:1;" width="6" x="53.95" y="240.5391"/><text fill="#000000" font-family="sans-serif" font-size="14" lengthAdjust="spacing" textLength="143.7529" x="65.95" y="246.8857">Self Queue : NoType</text><rect fill="none" height="6" style="stroke:#C82930;stroke-width:1;" width="6" x="53.95" y="256.8359"/><text fill="#000000" font-family="sans-serif" font-size="14" lengthAdjust="spacing" textLength="171.6094" x="65.95" y="263.1826">Queue Mailbox : NoType</text><line style="stroke:#555555;stroke-width:0.5;" x1="46.95" x2="269.0486" y1="270.4844" y2="270.4844"/><rect fill="#F24D5C" height="6" style="stroke:#C82930;stroke-width:1;" width="6" x="53.95" y="281.1328"/><text fill="#000000" font-family="sans-serif" font-size="14" lengthAdjust="spacing" text-decoration="underline" textLength="131.8926" x="65.95" y="287.4795">Is Queue Refnum()</text><rect fill="#F24D5C" height="6" style="stroke:#C82930;stroke-width:1;" width="6" x="53.95" y="297.4297"/><text fill="#000000" font-family="sans-serif" font-size="14" lengthAdjust="spacing" text-decoration="underline" textLength="141.7432" x="65.95" y="303.7764">Start Async Queue()</text><rect fill="#F24D5C" height="6" style="stroke:#C82930;stroke-width:1;" width="6" x="53.95" y="313.7266"/><text fill="#000000" font-family="sans-serif" font-size="14" lengthAdjust="spacing" text-decoration="underline" textLength="98.4512" x="65.95" y="320.0732">Actor Queue()</text><rect fill="#F24D5C" height="6" style="stroke:#C82930;stroke-width:1;" width="6" x="53.95" y="330.0234"/><text fill="#000000" font-family="sans-serif" font-size="14" lengthAdjust="spacing" text-decoration="underline" textLength="33.3047" x="65.95" y="336.3701">Init()</text><rect fill="#F24D5C" height="6" style="stroke:#C82930;stroke-width:1;" width="6" x="53.95" y="346.3203"/><text fill="#000000" font-family="sans-serif" font-size="14" lengthAdjust="spacing" text-decoration="underline" textLength="126.0068" x="65.95" y="352.667">Is Event Refnum()</text><rect fill="#F24D5C" height="6" style="stroke:#C82930;stroke-width:1;" width="6" x="53.95" y="362.6172"/><text fill="#000000" font-family="sans-serif" font-size="14" lengthAdjust="spacing" text-decoration="underline" textLength="135.8574" x="65.95" y="368.9639">Start Async Event()</text><rect fill="#F24D5C" height="6" style="stroke:#C82930;stroke-width:1;" width="6" x="53.95" y="378.9141"/><text fill="#000000" font-family="sans-serif" font-size="14" lengthAdjust="spacing" text-decoration="underline" textLength="61.4756" x="65.95" y="385.2607">Is Error()</text><rect fill="#F24D5C" height="6" style="stroke:#C82930;stroke-width:1;" width="6" x="53.95" y="395.2109"/><text fill="#000000" font-family="sans-serif" font-size="14" lengthAdjust="spacing" textLength="51.6729" x="65.95" y="401.5576">Setup()</text><rect fill="#F24D5C" height="6" style="stroke:#C82930;stroke-width:1;" width="6" x="53.95" y="411.5078"/><text fill="#000000" font-family="sans-serif" font-size="14" lengthAdjust="spacing" textLength="80.1992" x="65.95" y="417.8545">Teardown()</text><rect fill="#F24D5C" height="6" style="stroke:#C82930;stroke-width:1;" width="6" x="53.95" y="427.8047"/><text fill="#000000" font-family="sans-serif" font-size="14" lengthAdjust="spacing" textLength="94.001" x="65.95" y="434.1514">Merge Error()</text><rect fill="#F24D5C" height="6" style="stroke:#C82930;stroke-width:1;" width="6" x="53.95" y="444.1016"/><text fill="#000000" font-family="sans-serif" font-size="14" lengthAdjust="spacing" textLength="110.8721" x="65.95" y="450.4482">Override Error()</text><rect fill="#F24D5C" height="6" style="stroke:#C82930;stroke-width:1;" width="6" x="53.95" y="460.3984"/><text fill="#000000" font-family="sans-serif" font-size="14" lengthAdjust="spacing" textLength="108.1924" x="65.95" y="466.7451">Create Queue()</text><rect fill="#F24D5C" height="6" style="stroke:#C82930;stroke-width:1;" width="6" x="53.95" y="476.6953"/><text fill="#000000" font-family="sans-serif" font-size="14" lengthAdjust="spacing" textLength="102.3066" x="65.95" y="483.042">Create Event()</text><rect fill="#F24D5C" height="6" style="stroke:#C82930;stroke-width:1;" width="6" x="53.95" y="492.9922"/><text fill="#000000" font-family="sans-serif" font-size="14" lengthAdjust="spacing" textLength="120.3604" x="65.95" y="499.3389">Last Ack Queue()</text><rect fill="#F24D5C" height="6" style="stroke:#C82930;stroke-width:1;" width="6" x="53.95" y="509.2891"/><text fill="#000000" font-family="sans-serif" font-size="14" lengthAdjust="spacing" textLength="114.4746" x="65.95" y="515.6357">Last Ack Event()</text><rect fill="#F24D5C" height="6" style="stroke:#C82930;stroke-width:1;" width="6" x="53.95" y="525.5859"/><text fill="#000000" font-family="sans-serif" font-size="14" lengthAdjust="spacing" textLength="60.293" x="65.95" y="531.9326">Handle()</text><rect fill="#F24D5C" height="6" style="stroke:#C82930;stroke-width:1;" width="6" x="53.95" y="541.8828"/><text fill="#000000" font-family="sans-serif" font-size="14" lengthAdjust="spacing" textLength="65.707" x="65.95" y="548.2295">Destroy()</text><rect fill="#F24D5C" height="6" style="stroke:#C82930;stroke-width:1;" width="6" x="53.95" y="558.1797"/><text fill="#000000" font-family="sans-serif" font-size="14" lengthAdjust="spacing" textLength="75.0039" x="65.95" y="564.5264">Get Error()</text><rect fill="#F24D5C" height="6" style="stroke:#C82930;stroke-width:1;" width="6" x="53.95" y="574.4766"/><text fill="#000000" font-family="sans-serif" font-size="14" lengthAdjust="spacing" textLength="75.0176" x="65.95" y="580.8232">Decorate()</text><rect fill="#F24D5C" height="6" style="stroke:#C82930;stroke-width:1;" width="6" x="53.95" y="590.7734"/><text fill="#000000" font-family="sans-serif" font-size="14" lengthAdjust="spacing" textLength="66.3633" x="65.95" y="597.1201">Receive()</text><rect fill="#F24D5C" height="6" style="stroke:#C82930;stroke-width:1;" width="6" x="53.95" y="607.0703"/><text fill="#000000" font-family="sans-serif" font-size="14" lengthAdjust="spacing" textLength="198.0986" x="65.95" y="613.417">Teardown Created Queues()</text><rect fill="#F24D5C" height="6" style="stroke:#C82930;stroke-width:1;" width="6" x="53.95" y="623.3672"/><text fill="#000000" font-family="sans-serif" font-size="14" lengthAdjust="spacing" textLength="192.2129" x="65.95" y="629.7139">Teardown Created Events()</text><rect fill="#F24D5C" height="6" style="stroke:#C82930;stroke-width:1;" width="6" x="53.95" y="639.6641"/><text fill="#000000" font-family="sans-serif" font-size="14" lengthAdjust="spacing" textLength="125.3643" x="65.95" y="646.0107">Self Queue Alias()</text><rect fill="#F24D5C" height="6" style="stroke:#C82930;stroke-width:1;" width="6" x="53.95" y="655.9609"/><text fill="#000000" font-family="sans-serif" font-size="14" lengthAdjust="spacing" textLength="87.6846" x="65.95" y="662.3076">Self Queue()</text><rect fill="#F24D5C" height="6" style="stroke:#C82930;stroke-width:1;" width="6" x="53.95" y="672.2578"/><text fill="#000000" font-family="sans-serif" font-size="14" lengthAdjust="spacing" textLength="151.5801" x="65.95" y="678.6045">Creator Queue Alias()</text><rect fill="#F24D5C" height="6" style="stroke:#C82930;stroke-width:1;" width="6" x="53.95" y="688.5547"/><text fill="#000000" font-family="sans-serif" font-size="14" lengthAdjust="spacing" textLength="113.9004" x="65.95" y="694.9014">Creator Queue()</text><rect fill="#F24D5C" height="6" style="stroke:#C82930;stroke-width:1;" width="6" x="53.95" y="704.8516"/><text fill="#000000" font-family="sans-serif" font-size="14" lengthAdjust="spacing" textLength="124.373" x="65.95" y="711.1982">Created Queues()</text><rect fill="#F24D5C" height="6" style="stroke:#C82930;stroke-width:1;" width="6" x="53.95" y="721.1484"/><text fill="#000000" font-family="sans-serif" font-size="14" lengthAdjust="spacing" textLength="118.4873" x="65.95" y="727.4951">Created Events()</text><rect fill="#F24D5C" height="6" style="stroke:#C82930;stroke-width:1;" width="6" x="53.95" y="737.4453"/><text fill="#000000" font-family="sans-serif" font-size="14" lengthAdjust="spacing" textLength="132.9521" x="65.95" y="743.792">Is Created Queue()</text><rect fill="#F24D5C" height="6" style="stroke:#C82930;stroke-width:1;" width="6" x="53.95" y="753.7422"/><text fill="#000000" font-family="sans-serif" font-size="14" lengthAdjust="spacing" textLength="127.0664" x="65.95" y="760.0889">Is Created Event()</text><rect fill="#F24D5C" height="6" style="stroke:#C82930;stroke-width:1;" width="6" x="53.95" y="770.0391"/><text fill="#000000" font-family="sans-serif" font-size="14" lengthAdjust="spacing" textLength="167.5488" x="65.95" y="776.3857">Status Created Events()</text><rect fill="#F24D5C" height="6" style="stroke:#C82930;stroke-width:1;" width="6" x="53.95" y="786.3359"/><text fill="#000000" font-family="sans-serif" font-size="14" lengthAdjust="spacing" textLength="173.4346" x="65.95" y="792.6826">Status Created Queues()</text></g><!--class State--><g class="entity" data-entity="State" data-source-line="51" data-uid="ent0007" id="entity_State"><rect fill="#FFFFFF" height="48" rx="2.5" ry="2.5" style="stroke:#555555;stroke-width:0.5;" width="69.0576" x="123.47" y="859.98"/><rect fill="#808080" height="32" rx="2.5" ry="2.5" style="stroke:#808080;stroke-width:0.5;" width="69.0576" x="123.47" y="859.98"/><rect fill="#808080" height="2.5" style="stroke:#808080;stroke-width:0.5;" width="69.0576" x="123.47" y="889.48"/><rect fill="none" height="48" rx="2.5" ry="2.5" style="stroke:#555555;stroke-width:0.5;" width="69.0576" x="123.47" y="859.98"/><ellipse cx="138.47" cy="875.98" fill="#ADD1B2" rx="11" ry="11" style="stroke:#181818;stroke-width:1;"/><path d="M141.4388,881.6206 Q140.8606,881.9175 140.22,882.0581 Q139.5794,882.2144 138.8763,882.2144 Q136.3763,882.2144 135.0481,880.5738 Q133.7356,878.9175 133.7356,875.7925 Q133.7356,872.6675 135.0481,871.0113 Q136.3763,869.355 138.8763,869.355 Q139.5794,869.355 140.22,869.5113 Q140.8763,869.6675 141.4388,869.9644 L141.4388,872.6831 Q140.8138,872.105 140.22,871.8394 Q139.6263,871.5581 139.0013,871.5581 Q137.6575,871.5581 136.97,872.6363 Q136.2825,873.6988 136.2825,875.7925 Q136.2825,877.8863 136.97,878.9644 Q137.6575,880.0269 139.0013,880.0269 Q139.6263,880.0269 140.22,879.7613 Q140.8138,879.48 141.4388,878.9019 L141.4388,881.6206 Z " fill="#000000"/><text fill="#000000" font-family="sans-serif" font-size="14" lengthAdjust="spacing" textLength="37.0576" x="152.47" y="880.8267">State</text><line style="stroke:#555555;stroke-width:0.5;" x1="124.47" x2="191.5276" y1="891.98" y2="891.98"/><line style="stroke:#555555;stroke-width:0.5;" x1="124.47" x2="191.5276" y1="899.98" y2="899.98"/></g><!--reverse link Queue to Base Queue--><g class="link" data-entity-1="Queue" data-entity-2="Base Queue" data-source-line="48" data-uid="lnk6" id="link_Queue_Base Queue"><path codeLine="48" d="M158,107.37 C158,122 158,124.65 158,148.86" fill="none" id="Queue-backto-Base Queue" style="stroke:#181818;stroke-width:1;stroke-dasharray:7.0,7.0;"/><polygon fill="none" points="158,89.37,152,107.37,164,107.37,158,89.37" style="stroke:#181818;stroke-width:1;"/></g><!--reverse link Base Queue to State--><g class="link" data-entity-1="Base Queue" data-entity-2="State" data-source-line="51" data-uid="lnk9" id="link_Base Queue_State"><path codeLine="51" d="M158,812.03 C158,836.36 158,845.1 158,859.76" fill="none" id="Base Queue-backto-State" style="stroke:#181818;stroke-width:1;"/><polygon fill="#181818" points="158,800.03,154,806.03,158,812.03,162,806.03,158,800.03" style="stroke:#181818;stroke-width:1;"/></g><!--SRC=[ZPHDR-8m48Rl_XKZUkbM0lLIgK9xeVHJweUsL7itpa1T73ko9xI8vR_NJjY0YQ4OeO3VPoQln_Ou9D0yHrTmWICikELaBFIPcqaT_kKmLDovAovcKsjAdGsDyi39RJLQcB4PsZLoKOrTvDPeMWFdrTW5xf7x7AqNNfw73zkYoHJ-2sD3P7B8f4L1qcWcGXReV22HwgcvakF-5NS8VqeiiJNHWILRJYIgR0NT4N52wCFZtzhBHhcnDjG5wkTGbOxGRWMYcjJvOA0aTvuSaPLwcaJwy6pU5WLkn7h-YKirDbzRklE6f5Z1CaTwDu5ySEiahpZHPNxwAmNvTLY2WLjeKTDfR232PXy07hIaFOg3cpbgEjf6HU_F5SeQr4qiKbb4Cs_8RMO-TJJvX7QAYV2NELehivGqj1XskLdshj0uROH7xlmon2mHqqZjg7kkCnNJr-Z8caKqT-UlODlaDGhZxs8S_ee2vHoJLO7QVLPxT8UPogpRgNTyWlU8xOBzFq69i4XFb3ffze17Vr2Ym7rYUo_2nIxTmVN7H6EChLZKIjPDu_U_Nk_u7iEazkrYudiif98jLumTtw_EkjqVtboriUtV7SRODm00]--></g></svg>