<svg xmlns="http://www.w3.org/2000/svg" xmlns:xlink="http://www.w3.org/1999/xlink" contentStyleType="text/css" data-diagram-type="CLASS" height="781px" preserveAspectRatio="none" style="width:319px;height:781px;background:#FFFFFF;" version="1.1" viewBox="0 0 319 781" width="319px" zoomAndPan="magnify"><defs/><g><!--cluster Hello World Event.lvlib--><g class="cluster" data-entity="Hello World Event.lvlib" data-source-line="8" data-uid="ent0003" id="cluster_Hello World Event.lvlib"><path d="M8.5,129 L190.167,129 A3.75,3.75 0 0 1 192.667,131.5 L199.667,151.2969 L299.5,151.2969 A2.5,2.5 0 0 1 302,153.7969 L302,649.22 A2.5,2.5 0 0 1 299.5,651.72 L8.5,651.72 A2.5,2.5 0 0 1 6,649.22 L6,131.5 A2.5,2.5 0 0 1 8.5,129" fill="none" style="stroke:#000000;stroke-width:1.5;"/><line style="stroke:#000000;stroke-width:1.5;" x1="6" x2="199.667" y1="151.2969" y2="151.2969"/><text fill="#000000" font-family="sans-serif" font-size="14" font-weight="bold" lengthAdjust="spacing" textLength="180.667" x="10" y="143.9951">Hello World Event.lvlib</text></g><!--cluster jettl Msg String Indicator.lvlib--><g class="cluster" data-entity="jettl Msg String Indicator.lvlib" data-source-line="37" data-uid="ent0005" id="cluster_jettl Msg String Indicator.lvlib"><path d="M61.5,6 L300.1719,6 A3.75,3.75 0 0 1 302.6719,8.5 L309.6719,28.2969 L309.5,28.2969 A2.5,2.5 0 0 1 312,30.7969 L312,102.5 A2.5,2.5 0 0 1 309.5,105 L61.5,105 A2.5,2.5 0 0 1 59,102.5 L59,8.5 A2.5,2.5 0 0 1 61.5,6" fill="none" style="stroke:#000000;stroke-width:1.5;"/><line style="stroke:#000000;stroke-width:1.5;" x1="59" x2="309.6719" y1="28.2969" y2="28.2969"/><text fill="#000000" font-family="sans-serif" font-size="14" font-weight="bold" lengthAdjust="spacing" textLength="237.6719" x="63" y="20.9951">jettl Msg String Indicator.lvlib</text></g><!--cluster jettl.lvlib--><g class="cluster" data-entity="jettl.lvlib" data-source-line="39" data-uid="ent0008" id="cluster_jettl.lvlib"><path d="M104.5,675.72 L176.8398,675.72 A3.75,3.75 0 0 1 179.3398,678.22 L186.3398,698.0169 L203.5,698.0169 A2.5,2.5 0 0 1 206,700.5169 L206,772.22 A2.5,2.5 0 0 1 203.5,774.72 L104.5,774.72 A2.5,2.5 0 0 1 102,772.22 L102,678.22 A2.5,2.5 0 0 1 104.5,675.72" fill="none" style="stroke:#000000;stroke-width:1.5;"/><line style="stroke:#000000;stroke-width:1.5;" x1="102" x2="186.3398" y1="698.0169" y2="698.0169"/><text fill="#000000" font-family="sans-serif" font-size="14" font-weight="bold" lengthAdjust="spacing" textLength="71.3398" x="106" y="690.7151">jettl.lvlib</text></g><!--class Hello World Event--><g class="entity" data-entity="Hello World Event" data-source-line="8" data-uid="ent0002" id="entity_Hello World Event"><rect fill="#FFFFFF" height="471.7188" rx="2.5" ry="2.5" style="stroke:#555555;stroke-width:0.5;" width="263.7129" x="22.14" y="164"/><rect fill="#808080" height="32" rx="2.5" ry="2.5" style="stroke:#808080;stroke-width:0.5;" width="263.7129" x="22.14" y="164"/><rect fill="#808080" height="2.5" style="stroke:#808080;stroke-width:0.5;" width="263.7129" x="22.14" y="193.5"/><rect fill="none" height="471.7188" rx="2.5" ry="2.5" style="stroke:#555555;stroke-width:0.5;" width="263.7129" x="22.14" y="164"/><ellipse cx="87.0301" cy="180" fill="#ADD1B2" rx="11" ry="11" style="stroke:#181818;stroke-width:1;"/><path d="M89.9989,185.6406 Q89.4208,185.9375 88.7801,186.0781 Q88.1395,186.2344 87.4364,186.2344 Q84.9364,186.2344 83.6083,184.5938 Q82.2958,182.9375 82.2958,179.8125 Q82.2958,176.6875 83.6083,175.0313 Q84.9364,173.375 87.4364,173.375 Q88.1395,173.375 88.7801,173.5313 Q89.4364,173.6875 89.9989,173.9844 L89.9989,176.7031 Q89.3739,176.125 88.7801,175.8594 Q88.1864,175.5781 87.5614,175.5781 Q86.2176,175.5781 85.5301,176.6563 Q84.8426,177.7188 84.8426,179.8125 Q84.8426,181.9063 85.5301,182.9844 Q86.2176,184.0469 87.5614,184.0469 Q88.1864,184.0469 88.7801,183.7813 Q89.3739,183.5 89.9989,182.9219 L89.9989,185.6406 Z " fill="#000000"/><text fill="#000000" font-family="sans-serif" font-size="14" lengthAdjust="spacing" textLength="125.4326" x="107.5301" y="184.8467">Hello World Event</text><line style="stroke:#555555;stroke-width:0.5;" x1="23.14" x2="284.8529" y1="196" y2="196"/><rect fill="none" height="6" style="stroke:#C82930;stroke-width:1;" width="6" x="30.14" y="206.6484"/><text fill="#000000" font-family="sans-serif" font-size="14" lengthAdjust="spacing" textLength="112.3828" x="42.14" y="212.9951">Event : LV Class</text><rect fill="none" height="6" style="stroke:#C82930;stroke-width:1;" width="6" x="30.14" y="222.9453"/><text fill="#000000" font-family="sans-serif" font-size="14" lengthAdjust="spacing" textLength="93.8711" x="42.14" y="229.292">Refs : Cluster</text><line style="stroke:#555555;stroke-width:0.5;" x1="23.14" x2="284.8529" y1="236.5938" y2="236.5938"/><rect fill="#F24D5C" height="6" style="stroke:#C82930;stroke-width:1;" width="6" x="30.14" y="247.2422"/><text fill="#000000" font-family="sans-serif" font-size="14" lengthAdjust="spacing" text-decoration="underline" textLength="183.7021" x="42.14" y="253.5889">Random Number Nested()</text><ellipse cx="33.14" cy="266.5391" fill="#84BE84" rx="3" ry="3" style="stroke:#038048;stroke-width:1;"/><text fill="#000000" font-family="sans-serif" font-size="14" lengthAdjust="spacing" textLength="51.6729" x="42.14" y="269.8857">Setup()</text><ellipse cx="33.14" cy="282.8359" fill="#84BE84" rx="3" ry="3" style="stroke:#038048;stroke-width:1;"/><text fill="#000000" font-family="sans-serif" font-size="14" lengthAdjust="spacing" textLength="80.1992" x="42.14" y="286.1826">Teardown()</text><ellipse cx="33.14" cy="299.1328" fill="#84BE84" rx="3" ry="3" style="stroke:#038048;stroke-width:1;"/><text fill="#000000" font-family="sans-serif" font-size="14" lengthAdjust="spacing" textLength="94.001" x="42.14" y="302.4795">Merge Error()</text><ellipse cx="33.14" cy="315.4297" fill="#84BE84" rx="3" ry="3" style="stroke:#038048;stroke-width:1;"/><text fill="#000000" font-family="sans-serif" font-size="14" lengthAdjust="spacing" textLength="110.8721" x="42.14" y="318.7764">Override Error()</text><ellipse cx="33.14" cy="331.7266" fill="#84BE84" rx="3" ry="3" style="stroke:#038048;stroke-width:1;"/><text fill="#000000" font-family="sans-serif" font-size="14" lengthAdjust="spacing" textLength="119.0205" x="42.14" y="335.0732">String Indicator()</text><ellipse cx="33.14" cy="348.0234" fill="#84BE84" rx="3" ry="3" style="stroke:#038048;stroke-width:1;"/><text fill="#000000" font-family="sans-serif" font-size="14" lengthAdjust="spacing" textLength="75.0039" x="42.14" y="351.3701">Get Error()</text><ellipse cx="33.14" cy="364.3203" fill="#84BE84" rx="3" ry="3" style="stroke:#038048;stroke-width:1;"/><text fill="#000000" font-family="sans-serif" font-size="14" lengthAdjust="spacing" textLength="119.4785" x="42.14" y="367.667">Self Event Alias()</text><ellipse cx="33.14" cy="380.6172" fill="#84BE84" rx="3" ry="3" style="stroke:#038048;stroke-width:1;"/><text fill="#000000" font-family="sans-serif" font-size="14" lengthAdjust="spacing" textLength="81.7988" x="42.14" y="383.9639">Self Event()</text><ellipse cx="33.14" cy="396.9141" fill="#84BE84" rx="3" ry="3" style="stroke:#038048;stroke-width:1;"/><text fill="#000000" font-family="sans-serif" font-size="14" lengthAdjust="spacing" textLength="189.6426" x="42.14" y="400.2607">Creators Self Queue Alias()</text><ellipse cx="33.14" cy="413.2109" fill="#84BE84" rx="3" ry="3" style="stroke:#038048;stroke-width:1;"/><text fill="#000000" font-family="sans-serif" font-size="14" lengthAdjust="spacing" textLength="151.9629" x="42.14" y="416.5576">Creators Self Queue()</text><ellipse cx="33.14" cy="429.5078" fill="#84BE84" rx="3" ry="3" style="stroke:#038048;stroke-width:1;"/><text fill="#000000" font-family="sans-serif" font-size="14" lengthAdjust="spacing" textLength="215.8584" x="42.14" y="432.8545">Creators Creator Queue Alias()</text><ellipse cx="33.14" cy="445.8047" fill="#84BE84" rx="3" ry="3" style="stroke:#038048;stroke-width:1;"/><text fill="#000000" font-family="sans-serif" font-size="14" lengthAdjust="spacing" textLength="178.1787" x="42.14" y="449.1514">Creators Creator Queue()</text><ellipse cx="33.14" cy="462.1016" fill="#84BE84" rx="3" ry="3" style="stroke:#038048;stroke-width:1;"/><text fill="#000000" font-family="sans-serif" font-size="14" lengthAdjust="spacing" textLength="188.6514" x="42.14" y="465.4482">Creators Created Queues()</text><ellipse cx="33.14" cy="478.3984" fill="#84BE84" rx="3" ry="3" style="stroke:#038048;stroke-width:1;"/><text fill="#000000" font-family="sans-serif" font-size="14" lengthAdjust="spacing" textLength="182.7656" x="42.14" y="481.7451">Creators Created Events()</text><ellipse cx="33.14" cy="494.6953" fill="#84BE84" rx="3" ry="3" style="stroke:#038048;stroke-width:1;"/><text fill="#000000" font-family="sans-serif" font-size="14" lengthAdjust="spacing" textLength="191.3447" x="42.14" y="498.042">Creators Is Created Event()</text><ellipse cx="33.14" cy="510.9922" fill="#84BE84" rx="3" ry="3" style="stroke:#038048;stroke-width:1;"/><text fill="#000000" font-family="sans-serif" font-size="14" lengthAdjust="spacing" textLength="197.2305" x="42.14" y="514.3389">Creators Is Created Queue()</text><ellipse cx="33.14" cy="527.2891" fill="#84BE84" rx="3" ry="3" style="stroke:#038048;stroke-width:1;"/><text fill="#000000" font-family="sans-serif" font-size="14" lengthAdjust="spacing" textLength="231.8271" x="42.14" y="530.6357">Creators Status Created Events()</text><ellipse cx="33.14" cy="543.5859" fill="#84BE84" rx="3" ry="3" style="stroke:#038048;stroke-width:1;"/><text fill="#000000" font-family="sans-serif" font-size="14" lengthAdjust="spacing" textLength="237.7129" x="42.14" y="546.9326">Creators Status Created Queues()</text><ellipse cx="33.14" cy="559.8828" fill="#84BE84" rx="3" ry="3" style="stroke:#038048;stroke-width:1;"/><text fill="#000000" font-family="sans-serif" font-size="14" lengthAdjust="spacing" textLength="75.0176" x="42.14" y="563.2295">Decorate()</text><ellipse cx="33.14" cy="576.1797" fill="#84BE84" rx="3" ry="3" style="stroke:#038048;stroke-width:1;"/><text fill="#000000" font-family="sans-serif" font-size="14" lengthAdjust="spacing" textLength="66.3633" x="42.14" y="579.5264">Receive()</text><ellipse cx="33.14" cy="592.4766" fill="#84BE84" rx="3" ry="3" style="stroke:#038048;stroke-width:1;"/><text fill="#000000" font-family="sans-serif" font-size="14" lengthAdjust="spacing" textLength="44.7412" x="42.14" y="595.8232">Loop()</text><ellipse cx="33.14" cy="608.7734" fill="#84BE84" rx="3" ry="3" style="stroke:#038048;stroke-width:1;"/><text fill="#000000" font-family="sans-serif" font-size="14" lengthAdjust="spacing" textLength="60.293" x="42.14" y="612.1201">Handle()</text><ellipse cx="33.14" cy="625.0703" fill="#84BE84" rx="3" ry="3" style="stroke:#038048;stroke-width:1;"/><text fill="#000000" font-family="sans-serif" font-size="14" lengthAdjust="spacing" textLength="65.707" x="42.14" y="628.417">Destroy()</text></g><!--class String Indicator--><g class="entity" data-entity="String Indicator" data-source-line="37" data-uid="ent0004" id="entity_String Indicator"><rect fill="#FFFFFF" height="48" rx="2.5" ry="2.5" style="stroke:#555555;stroke-width:0.5;" width="140.0967" x="83.95" y="41"/><rect fill="#808080" height="32" rx="2.5" ry="2.5" style="stroke:#808080;stroke-width:0.5;" width="140.0967" x="83.95" y="41"/><rect fill="#808080" height="2.5" style="stroke:#808080;stroke-width:0.5;" width="140.0967" x="83.95" y="70.5"/><rect fill="none" height="48" rx="2.5" ry="2.5" style="stroke:#555555;stroke-width:0.5;" width="140.0967" x="83.95" y="41"/><ellipse cx="98.95" cy="57" fill="#B4A7E5" rx="11" ry="11" style="stroke:#181818;stroke-width:1;"/><path d="M94.8719,52.7656 L94.8719,50.6094 L102.2625,50.6094 L102.2625,52.7656 L99.7938,52.7656 L99.7938,60.8438 L102.2625,60.8438 L102.2625,63 L94.8719,63 L94.8719,60.8438 L97.3406,60.8438 L97.3406,52.7656 L94.8719,52.7656 Z " fill="#000000"/><text fill="#000000" font-family="sans-serif" font-size="14" font-style="italic" lengthAdjust="spacing" textLength="108.0967" x="112.95" y="61.8467">String Indicator</text><line style="stroke:#555555;stroke-width:0.5;" x1="84.95" x2="223.0467" y1="73" y2="73"/><line style="stroke:#555555;stroke-width:0.5;" x1="84.95" x2="223.0467" y1="81" y2="81"/></g><!--class Event--><g class="entity" data-entity="Event" data-source-line="39" data-uid="ent0007" id="entity_Event"><rect fill="#FFFFFF" height="48" rx="2.5" ry="2.5" style="stroke:#555555;stroke-width:0.5;" width="72.1064" x="117.95" y="710.72"/><rect fill="#808080" height="32" rx="2.5" ry="2.5" style="stroke:#808080;stroke-width:0.5;" width="72.1064" x="117.95" y="710.72"/><rect fill="#808080" height="2.5" style="stroke:#808080;stroke-width:0.5;" width="72.1064" x="117.95" y="740.22"/><rect fill="none" height="48" rx="2.5" ry="2.5" style="stroke:#555555;stroke-width:0.5;" width="72.1064" x="117.95" y="710.72"/><ellipse cx="132.95" cy="726.72" fill="#B4A7E5" rx="11" ry="11" style="stroke:#181818;stroke-width:1;"/><path d="M128.8719,722.4856 L128.8719,720.3294 L136.2625,720.3294 L136.2625,722.4856 L133.7938,722.4856 L133.7938,730.5638 L136.2625,730.5638 L136.2625,732.72 L128.8719,732.72 L128.8719,730.5638 L131.3406,730.5638 L131.3406,722.4856 L128.8719,722.4856 Z " fill="#000000"/><text fill="#000000" font-family="sans-serif" font-size="14" font-style="italic" lengthAdjust="spacing" textLength="40.1064" x="146.95" y="731.5667">Event</text><line style="stroke:#555555;stroke-width:0.5;" x1="118.95" x2="189.0564" y1="742.72" y2="742.72"/><line style="stroke:#555555;stroke-width:0.5;" x1="118.95" x2="189.0564" y1="750.72" y2="750.72"/></g><!--reverse link String Indicator to Hello World Event--><g class="link" data-entity-1="String Indicator" data-entity-2="Hello World Event" data-source-line="37" data-uid="lnk6" id="link_String Indicator_Hello World Event"><path codeLine="37" d="M154,107.41 C154,125.16 154,133.6 154,163.66" fill="none" id="String Indicator-backto-Hello World Event" style="stroke:#181818;stroke-width:1;stroke-dasharray:7.0,7.0;"/><polygon fill="none" points="154,89.41,148,107.41,160,107.41,154,89.41" style="stroke:#181818;stroke-width:1;"/></g><!--reverse link Event to Hello World Event--><g class="link" data-entity-1="Event" data-entity-2="Hello World Event" data-source-line="39" data-uid="lnk9" id="link_Event_Hello World Event"><path codeLine="39" d="M144.7964,692.3829 C142.5464,674.6329 143.22,666.1 142.27,636.1" fill="none" id="Event-backto-Hello World Event" style="stroke:#181818;stroke-width:1;stroke-dasharray:7.0,7.0;"/><polygon fill="none" points="147.06,710.24,150.7488,691.6284,138.8441,693.1374,147.06,710.24" style="stroke:#181818;stroke-width:1;"/></g><!--reverse link Hello World Event to Event--><g class="link" data-entity-1="Hello World Event" data-entity-2="Event" data-source-line="42" data-uid="lnk10" id="link_Hello World Event_Event"><path codeLine="42" d="M166.0202,648.0933 C165.0202,678.0933 163.73,692.49 161.35,710.24" fill="none" id="Hello World Event-backto-Event" style="stroke:#181818;stroke-width:1;"/><polygon fill="#181818" points="166.42,636.1,162.2223,641.9634,166.0202,648.0933,170.2179,642.2299,166.42,636.1" style="stroke:#181818;stroke-width:1;"/></g><!--SRC=[fPHDRzim38Rl-XL4Tkas9CYbm13iicLjKw0VQ5EiPyLYCZMo651qYiBDVw_ik5lbkEcwoJ0Wltn4KXQfW09UvnXMEiCfhZHh8OQH2alhgwySnaw7y5rdomLJuSsON0G-7DTZ1oCso0roM8ysSanU6c1OZpOmGHrzx0JyCgmUzO8MMiKNPYH2EHZBc8abhxBA2_Gcw1p1BR4pSBH6BmEtTdOssj5xKAfoRj6P3VHh1KPmzdERpH_BDSv3D8nT4GHPbK6qs6m3POxoYsf2UnCpkIZo6J9SOEJCmKVr6_WyHIbMYNA3cWtT-qGyHruW734J9_hb6fcjwJ9DXQrVmAatDgjEC36Un4FkM89kllq1yCrP7Lun9lAOiV8UeBPV5LXWn-8EgjlUJDvsb81x43HR9Endweszmfosi3UfFJbDOuaKVnUsXNRiuWTc5Bip3NMD6TfrgfqHfKKsYNNfiEKi2DD3rDH6zUvGnC5vM42xZfgUQSiz-Feu6BodnvJriMlcyPQ1VmbNFcVP44tZ_dSMgRiOHRtdtlZKxtVvKKez0G00]--></g></svg>