<svg xmlns="http://www.w3.org/2000/svg" xmlns:xlink="http://www.w3.org/1999/xlink" contentStyleType="text/css" data-diagram-type="CLASS" height="864px" preserveAspectRatio="none" style="width:357px;height:864px;background:#FFFFFF;" version="1.1" viewBox="0 0 357 864" width="357px" zoomAndPan="magnify"><defs/><g><!--cluster jettl.lvlib--><g class="cluster" data-entity="jettl.lvlib" data-source-line="8" data-uid="ent0003" id="cluster_jettl.lvlib"><path d="M8.5,6 L80.8398,6 A3.75,3.75 0 0 1 83.3398,8.5 L90.3398,28.2969 L347.5,28.2969 A2.5,2.5 0 0 1 350,30.7969 L350,855.41 A2.5,2.5 0 0 1 347.5,857.91 L8.5,857.91 A2.5,2.5 0 0 1 6,855.41 L6,8.5 A2.5,2.5 0 0 1 8.5,6" fill="none" style="stroke:#000000;stroke-width:1.5;"/><line style="stroke:#000000;stroke-width:1.5;" x1="6" x2="90.3398" y1="28.2969" y2="28.2969"/><text fill="#000000" font-family="sans-serif" font-size="14" font-weight="bold" lengthAdjust="spacing" textLength="71.3398" x="10" y="20.9951">jettl.lvlib</text></g><!--cluster Base Event.lvlib--><g class="cluster" data-entity="Base Event.lvlib" data-source-line="8" data-uid="ent0004" id="cluster_Base Event.lvlib"><path d="M32.5,114 L160.0264,114 A3.75,3.75 0 0 1 162.5264,116.5 L169.5264,136.2969 L323.5,136.2969 A2.5,2.5 0 0 1 326,138.7969 L326,831.41 A2.5,2.5 0 0 1 323.5,833.91 L32.5,833.91 A2.5,2.5 0 0 1 30,831.41 L30,116.5 A2.5,2.5 0 0 1 32.5,114" fill="none" style="stroke:#000000;stroke-width:1.5;"/><line style="stroke:#000000;stroke-width:1.5;" x1="30" x2="169.5264" y1="136.2969" y2="136.2969"/><text fill="#000000" font-family="sans-serif" font-size="14" font-weight="bold" lengthAdjust="spacing" textLength="126.5264" x="34" y="128.9951">Base Event.lvlib</text></g><!--cluster State.lvlib--><g class="cluster" data-entity="State.lvlib" data-source-line="44" data-uid="ent0008" id="cluster_State.lvlib"><path d="M129.5,710.91 L211.7725,710.91 A3.75,3.75 0 0 1 214.2725,713.41 L221.2725,733.2069 L226.5,733.2069 A2.5,2.5 0 0 1 229,735.7069 L229,807.41 A2.5,2.5 0 0 1 226.5,809.91 L129.5,809.91 A2.5,2.5 0 0 1 127,807.41 L127,713.41 A2.5,2.5 0 0 1 129.5,710.91" fill="none" style="stroke:#000000;stroke-width:1.5;"/><line style="stroke:#000000;stroke-width:1.5;" x1="127" x2="221.2725" y1="733.2069" y2="733.2069"/><text fill="#000000" font-family="sans-serif" font-size="14" font-weight="bold" lengthAdjust="spacing" textLength="81.2725" x="131" y="725.9051">State.lvlib</text></g><!--class Event--><g class="entity" data-entity="Event" data-source-line="41" data-uid="ent0005" id="entity_Event"><rect fill="#FFFFFF" height="48" rx="2.5" ry="2.5" style="stroke:#555555;stroke-width:0.5;" width="72.1064" x="141.95" y="41"/><rect fill="#808080" height="32" rx="2.5" ry="2.5" style="stroke:#808080;stroke-width:0.5;" width="72.1064" x="141.95" y="41"/><rect fill="#808080" height="2.5" style="stroke:#808080;stroke-width:0.5;" width="72.1064" x="141.95" y="70.5"/><rect fill="none" height="48" rx="2.5" ry="2.5" style="stroke:#555555;stroke-width:0.5;" width="72.1064" x="141.95" y="41"/><ellipse cx="156.95" cy="57" fill="#B4A7E5" rx="11" ry="11" style="stroke:#181818;stroke-width:1;"/><path d="M152.8719,52.7656 L152.8719,50.6094 L160.2625,50.6094 L160.2625,52.7656 L157.7938,52.7656 L157.7938,60.8438 L160.2625,60.8438 L160.2625,63 L152.8719,63 L152.8719,60.8438 L155.3406,60.8438 L155.3406,52.7656 L152.8719,52.7656 Z " fill="#000000"/><text fill="#000000" font-family="sans-serif" font-size="14" font-style="italic" lengthAdjust="spacing" textLength="40.1064" x="170.95" y="61.8467">Event</text><line style="stroke:#555555;stroke-width:0.5;" x1="142.95" x2="213.0564" y1="73" y2="73"/><line style="stroke:#555555;stroke-width:0.5;" x1="142.95" x2="213.0564" y1="81" y2="81"/></g><!--class Base Event--><g class="entity" data-entity="Base Event" data-source-line="8" data-uid="ent0002" id="entity_Base Event"><rect fill="#FFFFFF" height="536.9063" rx="2.5" ry="2.5" style="stroke:#555555;stroke-width:0.5;" width="263.7129" x="46.14" y="149"/><rect fill="#808080" height="32" rx="2.5" ry="2.5" style="stroke:#808080;stroke-width:0.5;" width="263.7129" x="46.14" y="149"/><rect fill="#808080" height="2.5" style="stroke:#808080;stroke-width:0.5;" width="263.7129" x="46.14" y="178.5"/><rect fill="none" height="536.9063" rx="2.5" ry="2.5" style="stroke:#555555;stroke-width:0.5;" width="263.7129" x="46.14" y="149"/><ellipse cx="134.4227" cy="165" fill="#ADD1B2" rx="11" ry="11" style="stroke:#181818;stroke-width:1;"/><path d="M137.3915,170.6406 Q136.8133,170.9375 136.1727,171.0781 Q135.5321,171.2344 134.829,171.2344 Q132.329,171.2344 131.0008,169.5938 Q129.6883,167.9375 129.6883,164.8125 Q129.6883,161.6875 131.0008,160.0313 Q132.329,158.375 134.829,158.375 Q135.5321,158.375 136.1727,158.5313 Q136.829,158.6875 137.3915,158.9844 L137.3915,161.7031 Q136.7665,161.125 136.1727,160.8594 Q135.579,160.5781 134.954,160.5781 Q133.6102,160.5781 132.9227,161.6563 Q132.2352,162.7188 132.2352,164.8125 Q132.2352,166.9063 132.9227,167.9844 Q133.6102,169.0469 134.954,169.0469 Q135.579,169.0469 136.1727,168.7813 Q136.7665,168.5 137.3915,167.9219 L137.3915,170.6406 Z " fill="#000000"/><text fill="#000000" font-family="sans-serif" font-size="14" lengthAdjust="spacing" textLength="78.6475" x="154.9227" y="169.8467">Base Event</text><line style="stroke:#555555;stroke-width:0.5;" x1="47.14" x2="308.8529" y1="181" y2="181"/><rect fill="none" height="6" style="stroke:#C82930;stroke-width:1;" width="6" x="54.14" y="191.6484"/><text fill="#000000" font-family="sans-serif" font-size="14" lengthAdjust="spacing" textLength="109.334" x="66.14" y="197.9951">State : LV Class</text><rect fill="none" height="6" style="stroke:#C82930;stroke-width:1;" width="6" x="54.14" y="207.9453"/><text fill="#000000" font-family="sans-serif" font-size="14" lengthAdjust="spacing" textLength="137.1152" x="66.14" y="214.292">Error : Error Cluster</text><rect fill="none" height="6" style="stroke:#C82930;stroke-width:1;" width="6" x="54.14" y="224.2422"/><text fill="#000000" font-family="sans-serif" font-size="14" lengthAdjust="spacing" textLength="163.9531" x="66.14" y="230.5889">Self Event Alias : String</text><rect fill="none" height="6" style="stroke:#C82930;stroke-width:1;" width="6" x="54.14" y="240.5391"/><text fill="#000000" font-family="sans-serif" font-size="14" lengthAdjust="spacing" textLength="137.8672" x="66.14" y="246.8857">Self Event : NoType</text><rect fill="none" height="6" style="stroke:#C82930;stroke-width:1;" width="6" x="54.14" y="256.8359"/><text fill="#000000" font-family="sans-serif" font-size="14" lengthAdjust="spacing" textLength="171.6094" x="66.14" y="263.1826">Queue Mailbox : NoType</text><line style="stroke:#555555;stroke-width:0.5;" x1="47.14" x2="308.8529" y1="270.4844" y2="270.4844"/><rect fill="#F24D5C" height="6" style="stroke:#C82930;stroke-width:1;" width="6" x="54.14" y="281.1328"/><text fill="#000000" font-family="sans-serif" font-size="14" lengthAdjust="spacing" text-decoration="underline" textLength="92.5654" x="66.14" y="287.4795">Actor Event()</text><rect fill="#F24D5C" height="6" style="stroke:#C82930;stroke-width:1;" width="6" x="54.14" y="297.4297"/><text fill="#000000" font-family="sans-serif" font-size="14" lengthAdjust="spacing" text-decoration="underline" textLength="33.3047" x="66.14" y="303.7764">Init()</text><rect fill="#F24D5C" height="6" style="stroke:#C82930;stroke-width:1;" width="6" x="54.14" y="313.7266"/><text fill="#000000" font-family="sans-serif" font-size="14" lengthAdjust="spacing" text-decoration="underline" textLength="61.4756" x="66.14" y="320.0732">Is Error()</text><rect fill="#F24D5C" height="6" style="stroke:#C82930;stroke-width:1;" width="6" x="54.14" y="330.0234"/><text fill="#000000" font-family="sans-serif" font-size="14" lengthAdjust="spacing" textLength="51.6729" x="66.14" y="336.3701">Setup()</text><rect fill="#F24D5C" height="6" style="stroke:#C82930;stroke-width:1;" width="6" x="54.14" y="346.3203"/><text fill="#000000" font-family="sans-serif" font-size="14" lengthAdjust="spacing" textLength="80.1992" x="66.14" y="352.667">Teardown()</text><rect fill="#F24D5C" height="6" style="stroke:#C82930;stroke-width:1;" width="6" x="54.14" y="362.6172"/><text fill="#000000" font-family="sans-serif" font-size="14" lengthAdjust="spacing" textLength="94.001" x="66.14" y="368.9639">Merge Error()</text><rect fill="#F24D5C" height="6" style="stroke:#C82930;stroke-width:1;" width="6" x="54.14" y="378.9141"/><text fill="#000000" font-family="sans-serif" font-size="14" lengthAdjust="spacing" textLength="110.8721" x="66.14" y="385.2607">Override Error()</text><rect fill="#F24D5C" height="6" style="stroke:#C82930;stroke-width:1;" width="6" x="54.14" y="395.2109"/><text fill="#000000" font-family="sans-serif" font-size="14" lengthAdjust="spacing" textLength="60.293" x="66.14" y="401.5576">Handle()</text><rect fill="#F24D5C" height="6" style="stroke:#C82930;stroke-width:1;" width="6" x="54.14" y="411.5078"/><text fill="#000000" font-family="sans-serif" font-size="14" lengthAdjust="spacing" textLength="65.707" x="66.14" y="417.8545">Destroy()</text><rect fill="#F24D5C" height="6" style="stroke:#C82930;stroke-width:1;" width="6" x="54.14" y="427.8047"/><text fill="#000000" font-family="sans-serif" font-size="14" lengthAdjust="spacing" textLength="75.0039" x="66.14" y="434.1514">Get Error()</text><rect fill="#F24D5C" height="6" style="stroke:#C82930;stroke-width:1;" width="6" x="54.14" y="444.1016"/><text fill="#000000" font-family="sans-serif" font-size="14" lengthAdjust="spacing" textLength="75.0176" x="66.14" y="450.4482">Decorate()</text><rect fill="#F24D5C" height="6" style="stroke:#C82930;stroke-width:1;" width="6" x="54.14" y="460.3984"/><text fill="#000000" font-family="sans-serif" font-size="14" lengthAdjust="spacing" textLength="44.7412" x="66.14" y="466.7451">Loop()</text><rect fill="#F24D5C" height="6" style="stroke:#C82930;stroke-width:1;" width="6" x="54.14" y="476.6953"/><text fill="#000000" font-family="sans-serif" font-size="14" lengthAdjust="spacing" textLength="66.3633" x="66.14" y="483.042">Receive()</text><rect fill="#F24D5C" height="6" style="stroke:#C82930;stroke-width:1;" width="6" x="54.14" y="492.9922"/><text fill="#000000" font-family="sans-serif" font-size="14" lengthAdjust="spacing" textLength="119.4785" x="66.14" y="499.3389">Self Event Alias()</text><rect fill="#F24D5C" height="6" style="stroke:#C82930;stroke-width:1;" width="6" x="54.14" y="509.2891"/><text fill="#000000" font-family="sans-serif" font-size="14" lengthAdjust="spacing" textLength="81.7988" x="66.14" y="515.6357">Self Event()</text><rect fill="#F24D5C" height="6" style="stroke:#C82930;stroke-width:1;" width="6" x="54.14" y="525.5859"/><text fill="#000000" font-family="sans-serif" font-size="14" lengthAdjust="spacing" textLength="189.6426" x="66.14" y="531.9326">Creators Self Queue Alias()</text><rect fill="#F24D5C" height="6" style="stroke:#C82930;stroke-width:1;" width="6" x="54.14" y="541.8828"/><text fill="#000000" font-family="sans-serif" font-size="14" lengthAdjust="spacing" textLength="151.9629" x="66.14" y="548.2295">Creators Self Queue()</text><rect fill="#F24D5C" height="6" style="stroke:#C82930;stroke-width:1;" width="6" x="54.14" y="558.1797"/><text fill="#000000" font-family="sans-serif" font-size="14" lengthAdjust="spacing" textLength="215.8584" x="66.14" y="564.5264">Creators Creator Queue Alias()</text><rect fill="#F24D5C" height="6" style="stroke:#C82930;stroke-width:1;" width="6" x="54.14" y="574.4766"/><text fill="#000000" font-family="sans-serif" font-size="14" lengthAdjust="spacing" textLength="178.1787" x="66.14" y="580.8232">Creators Creator Queue()</text><rect fill="#F24D5C" height="6" style="stroke:#C82930;stroke-width:1;" width="6" x="54.14" y="590.7734"/><text fill="#000000" font-family="sans-serif" font-size="14" lengthAdjust="spacing" textLength="188.6514" x="66.14" y="597.1201">Creators Created Queues()</text><rect fill="#F24D5C" height="6" style="stroke:#C82930;stroke-width:1;" width="6" x="54.14" y="607.0703"/><text fill="#000000" font-family="sans-serif" font-size="14" lengthAdjust="spacing" textLength="182.7656" x="66.14" y="613.417">Creators Created Events()</text><rect fill="#F24D5C" height="6" style="stroke:#C82930;stroke-width:1;" width="6" x="54.14" y="623.3672"/><text fill="#000000" font-family="sans-serif" font-size="14" lengthAdjust="spacing" textLength="197.2305" x="66.14" y="629.7139">Creators Is Created Queue()</text><rect fill="#F24D5C" height="6" style="stroke:#C82930;stroke-width:1;" width="6" x="54.14" y="639.6641"/><text fill="#000000" font-family="sans-serif" font-size="14" lengthAdjust="spacing" textLength="237.7129" x="66.14" y="646.0107">Creators Status Created Queues()</text><rect fill="#F24D5C" height="6" style="stroke:#C82930;stroke-width:1;" width="6" x="54.14" y="655.9609"/><text fill="#000000" font-family="sans-serif" font-size="14" lengthAdjust="spacing" textLength="191.3447" x="66.14" y="662.3076">Creators Is Created Event()</text><rect fill="#F24D5C" height="6" style="stroke:#C82930;stroke-width:1;" width="6" x="54.14" y="672.2578"/><text fill="#000000" font-family="sans-serif" font-size="14" lengthAdjust="spacing" textLength="231.8271" x="66.14" y="678.6045">Creators Status Created Events()</text></g><!--class State--><g class="entity" data-entity="State" data-source-line="44" data-uid="ent0007" id="entity_State"><rect fill="#FFFFFF" height="48" rx="2.5" ry="2.5" style="stroke:#555555;stroke-width:0.5;" width="69.0576" x="143.47" y="745.91"/><rect fill="#808080" height="32" rx="2.5" ry="2.5" style="stroke:#808080;stroke-width:0.5;" width="69.0576" x="143.47" y="745.91"/><rect fill="#808080" height="2.5" style="stroke:#808080;stroke-width:0.5;" width="69.0576" x="143.47" y="775.41"/><rect fill="none" height="48" rx="2.5" ry="2.5" style="stroke:#555555;stroke-width:0.5;" width="69.0576" x="143.47" y="745.91"/><ellipse cx="158.47" cy="761.91" fill="#ADD1B2" rx="11" ry="11" style="stroke:#181818;stroke-width:1;"/><path d="M161.4388,767.5506 Q160.8606,767.8475 160.22,767.9881 Q159.5794,768.1444 158.8763,768.1444 Q156.3763,768.1444 155.0481,766.5038 Q153.7356,764.8475 153.7356,761.7225 Q153.7356,758.5975 155.0481,756.9413 Q156.3763,755.285 158.8763,755.285 Q159.5794,755.285 160.22,755.4413 Q160.8763,755.5975 161.4388,755.8944 L161.4388,758.6131 Q160.8138,758.035 160.22,757.7694 Q159.6263,757.4881 159.0013,757.4881 Q157.6575,757.4881 156.97,758.5663 Q156.2825,759.6288 156.2825,761.7225 Q156.2825,763.8163 156.97,764.8944 Q157.6575,765.9569 159.0013,765.9569 Q159.6263,765.9569 160.22,765.6913 Q160.8138,765.41 161.4388,764.8319 L161.4388,767.5506 Z " fill="#000000"/><text fill="#000000" font-family="sans-serif" font-size="14" lengthAdjust="spacing" textLength="37.0576" x="172.47" y="766.7567">State</text><line style="stroke:#555555;stroke-width:0.5;" x1="144.47" x2="211.5276" y1="777.91" y2="777.91"/><line style="stroke:#555555;stroke-width:0.5;" x1="144.47" x2="211.5276" y1="785.91" y2="785.91"/></g><!--reverse link Event to Base Event--><g class="link" data-entity-1="Event" data-entity-2="Base Event" data-source-line="41" data-uid="lnk6" id="link_Event_Base Event"><path codeLine="41" d="M178,107.27 C178,121.95 178,124.62 178,148.53" fill="none" id="Event-backto-Base Event" style="stroke:#181818;stroke-width:1;stroke-dasharray:7.0,7.0;"/><polygon fill="none" points="178,89.27,172,107.27,184,107.27,178,89.27" style="stroke:#181818;stroke-width:1;"/></g><!--reverse link Base Event to State--><g class="link" data-entity-1="Base Event" data-entity-2="State" data-source-line="44" data-uid="lnk9" id="link_Base Event_State"><path codeLine="44" d="M178,698.3 C178,722.17 178,730.82 178,745.51" fill="none" id="Base Event-backto-State" style="stroke:#181818;stroke-width:1;"/><polygon fill="#181818" points="178,686.3,174,692.3,178,698.3,182,692.3,178,686.3" style="stroke:#181818;stroke-width:1;"/></g><!--SRC=[ZPJVJy8m4CVV-rTSy4LD8BwO6EAB350IqIZ6zx8TM2szfRsX1ldVxJQYT1i_kYpRxlkvwtMzgqC68nVeKXdZ15Df9PE5hd0VokHV2uYqTAuduu-vfSma4MaFd0oBKSF89cWto6KngiYG36-0Ys9KWJkKFaPjmgkB_19RD5FgRvWICoqWKHPZLcH4d4U1rZiowuvUQZNjzgH362pHSCtGWfLOpHJgP0tj2Kj6wCBzQvdBlpAmDlylK3uZdJb6k-M8UbR6WnkjfFFaXAqoyqQa2m_qyftYl_YKOOOmbafFwMjBTpuX5QzXjK1-evoyYVCDAkASdZK18wDsAQvCFrV_Z1FaB0qiBoXjGfycC8xHph71_N69rggaIRgJ9j4OcFhesD9tOBlr9LXtxcDClXP3ztkYCDLdZ54jiRAWS2jsY84vifZNlOD2BpUZxjn0DUkRbyE10d0FWac9kFrCiR0TpAWIQiVAVD5anqqwginxLC2_3CLQ11swwSNhdqxd-DOLolWkdFcZ2vg2hTP277yCdBVR1sOkJeVjzvOGuXS0]--></g></svg>