<svg xmlns="http://www.w3.org/2000/svg" xmlns:xlink="http://www.w3.org/1999/xlink" contentStyleType="text/css" data-diagram-type="CLASS" height="267px" preserveAspectRatio="none" style="width:243px;height:267px;background:#FFFFFF;" version="1.1" viewBox="0 0 243 267" width="243px" zoomAndPan="magnify"><defs/><g><!--cluster jettl Msg Teardown.lvlib--><g class="cluster" data-entity="jettl Msg Teardown.lvlib" data-source-line="8" data-uid="ent0003" id="cluster_jettl Msg Teardown.lvlib"><path d="M8.5,129 L200.8105,129 A3.75,3.75 0 0 1 203.3105,131.5 L210.3105,151.2969 L233.5,151.2969 A2.5,2.5 0 0 1 236,153.7969 L236,258.09 A2.5,2.5 0 0 1 233.5,260.59 L8.5,260.59 A2.5,2.5 0 0 1 6,258.09 L6,131.5 A2.5,2.5 0 0 1 8.5,129" fill="none" style="stroke:#000000;stroke-width:1.5;"/><line style="stroke:#000000;stroke-width:1.5;" x1="6" x2="210.3105" y1="151.2969" y2="151.2969"/><text fill="#000000" font-family="sans-serif" font-size="14" font-weight="bold" lengthAdjust="spacing" textLength="191.3105" x="10" y="143.9951">jettl Msg Teardown.lvlib</text></g><!--cluster jettl.lvlib--><g class="cluster" data-entity="jettl.lvlib" data-source-line="13" data-uid="ent0005" id="cluster_jettl.lvlib"><path d="M45.5,6 L117.8398,6 A3.75,3.75 0 0 1 120.3398,8.5 L127.3398,28.2969 L196.5,28.2969 A2.5,2.5 0 0 1 199,30.7969 L199,102.5 A2.5,2.5 0 0 1 196.5,105 L45.5,105 A2.5,2.5 0 0 1 43,102.5 L43,8.5 A2.5,2.5 0 0 1 45.5,6" fill="none" style="stroke:#000000;stroke-width:1.5;"/><line style="stroke:#000000;stroke-width:1.5;" x1="43" x2="127.3398" y1="28.2969" y2="28.2969"/><text fill="#000000" font-family="sans-serif" font-size="14" font-weight="bold" lengthAdjust="spacing" textLength="71.3398" x="47" y="20.9951">jettl.lvlib</text></g><!--class Teardown Msg Strategy--><g class="entity" data-entity="Teardown Msg Strategy" data-source-line="8" data-uid="ent0002" id="entity_Teardown Msg Strategy"><rect fill="#FFFFFF" height="80.5938" rx="2.5" ry="2.5" style="stroke:#555555;stroke-width:0.5;" width="198.4209" x="21.79" y="164"/><rect fill="#808080" height="32" rx="2.5" ry="2.5" style="stroke:#808080;stroke-width:0.5;" width="198.4209" x="21.79" y="164"/><rect fill="#808080" height="2.5" style="stroke:#808080;stroke-width:0.5;" width="198.4209" x="21.79" y="193.5"/><rect fill="none" height="80.5938" rx="2.5" ry="2.5" style="stroke:#555555;stroke-width:0.5;" width="198.4209" x="21.79" y="164"/><ellipse cx="36.79" cy="180" fill="#ADD1B2" rx="11" ry="11" style="stroke:#181818;stroke-width:1;"/><path d="M39.7588,185.6406 Q39.1806,185.9375 38.54,186.0781 Q37.8994,186.2344 37.1963,186.2344 Q34.6963,186.2344 33.3681,184.5937 Q32.0556,182.9375 32.0556,179.8125 Q32.0556,176.6875 33.3681,175.0312 Q34.6963,173.375 37.1963,173.375 Q37.8994,173.375 38.54,173.5312 Q39.1963,173.6875 39.7588,173.9844 L39.7588,176.7031 Q39.1338,176.125 38.54,175.8594 Q37.9463,175.5781 37.3213,175.5781 Q35.9775,175.5781 35.29,176.6562 Q34.6025,177.7187 34.6025,179.8125 Q34.6025,181.9062 35.29,182.9844 Q35.9775,184.0469 37.3213,184.0469 Q37.9463,184.0469 38.54,183.7812 Q39.1338,183.5 39.7588,182.9219 L39.7588,185.6406 Z " fill="#000000"/><text fill="#000000" font-family="sans-serif" font-size="14" lengthAdjust="spacing" textLength="166.4209" x="50.79" y="184.8467">Teardown Msg Strategy</text><line style="stroke:#555555;stroke-width:0.5;" x1="22.79" x2="219.2109" y1="196" y2="196"/><line style="stroke:#555555;stroke-width:0.5;" x1="22.79" x2="219.2109" y1="204" y2="204"/><rect fill="#F24D5C" height="6" style="stroke:#C82930;stroke-width:1;" width="6" x="29.79" y="214.6484"/><text fill="#000000" font-family="sans-serif" font-size="14" lengthAdjust="spacing" text-decoration="underline" textLength="33.3047" x="41.79" y="220.9951">Init()</text><rect fill="#F24D5C" height="6" style="stroke:#C82930;stroke-width:1;" width="6" x="29.79" y="230.9453"/><text fill="#000000" font-family="sans-serif" font-size="14" lengthAdjust="spacing" textLength="39.1836" x="41.79" y="237.292">Msg()</text></g><!--class Msg Strategy--><g class="entity" data-entity="Msg Strategy" data-source-line="13" data-uid="ent0004" id="entity_Msg Strategy"><rect fill="#FFFFFF" height="48" rx="2.5" ry="2.5" style="stroke:#555555;stroke-width:0.5;" width="124.6953" x="58.65" y="41"/><rect fill="#808080" height="32" rx="2.5" ry="2.5" style="stroke:#808080;stroke-width:0.5;" width="124.6953" x="58.65" y="41"/><rect fill="#808080" height="2.5" style="stroke:#808080;stroke-width:0.5;" width="124.6953" x="58.65" y="70.5"/><rect fill="none" height="48" rx="2.5" ry="2.5" style="stroke:#555555;stroke-width:0.5;" width="124.6953" x="58.65" y="41"/><ellipse cx="73.65" cy="57" fill="#B4A7E5" rx="11" ry="11" style="stroke:#181818;stroke-width:1;"/><path d="M69.5719,52.7656 L69.5719,50.6094 L76.9625,50.6094 L76.9625,52.7656 L74.4938,52.7656 L74.4938,60.8437 L76.9625,60.8437 L76.9625,63 L69.5719,63 L69.5719,60.8437 L72.0406,60.8437 L72.0406,52.7656 L69.5719,52.7656 Z " fill="#000000"/><text fill="#000000" font-family="sans-serif" font-size="14" font-style="italic" lengthAdjust="spacing" textLength="92.6953" x="87.65" y="61.8467">Msg Strategy</text><line style="stroke:#555555;stroke-width:0.5;" x1="59.65" x2="182.3453" y1="73" y2="73"/><line style="stroke:#555555;stroke-width:0.5;" x1="59.65" x2="182.3453" y1="81" y2="81"/></g><!--reverse link Msg Strategy to Teardown Msg Strategy--><g class="link" data-entity-1="Msg Strategy" data-entity-2="Teardown Msg Strategy" data-source-line="13" data-uid="lnk6" id="link_Msg Strategy_Teardown Msg Strategy"><path codeLine="13" d="M121,107.29 C121,127.64 121,139.61 121,163.72" fill="none" id="Msg Strategy-backto-Teardown Msg Strategy" style="stroke:#181818;stroke-width:1;stroke-dasharray:7.0,7.0;"/><polygon fill="none" points="121,89.29,115,107.29,127,107.29,121,89.29" style="stroke:#181818;stroke-width:1;"/></g><!--SRC=[bP71QW8n48RlynI3Njf35o-2I4yAqXuysHSOa-cQciqioMYHTT-zsNMbhKAXVyXXac- -8IInOg2AKqs6DrnJ99M8SqXx5xggmgMdb1PazcMKGx1ByHaOh_hSOH8jnm6Pzhb5LX9q02PzRe4Nfkou6pYRT0j-q2frthWLLQdGkiX6dGGmdGL77wpgSPrAV6EALZv3uO_URUVNih_RQ7unbwSHDj0a9NMcnQPYtObjyUarE7ruXE-3t9DhQE7Y7vI_JS_delZtV711ERxdRy0_r4qBELy0]--></g></svg>