<svg xmlns="http://www.w3.org/2000/svg" xmlns:xlink="http://www.w3.org/1999/xlink" contentStyleType="text/css" data-diagram-type="CLASS" height="283px" preserveAspectRatio="none" style="width:275px;height:283px;background:#FFFFFF;" version="1.1" viewBox="0 0 275 283" width="275px" zoomAndPan="magnify"><defs/><g><!--cluster jettl Msg Override Error.lvlib--><g class="cluster" data-entity="jettl Msg Override Error.lvlib" data-source-line="8" data-uid="ent0003" id="cluster_jettl Msg Override Error.lvlib"><path d="M8.5,129 L236.2891,129 A3.75,3.75 0 0 1 238.7891,131.5 L245.7891,151.2969 L265.5,151.2969 A2.5,2.5 0 0 1 268,153.7969 L268,274.39 A2.5,2.5 0 0 1 265.5,276.89 L8.5,276.89 A2.5,2.5 0 0 1 6,274.39 L6,131.5 A2.5,2.5 0 0 1 8.5,129" fill="none" style="stroke:#000000;stroke-width:1.5;"/><line style="stroke:#000000;stroke-width:1.5;" x1="6" x2="245.7891" y1="151.2969" y2="151.2969"/><text fill="#000000" font-family="sans-serif" font-size="14" font-weight="bold" lengthAdjust="spacing" textLength="226.7891" x="10" y="143.9951">jettl Msg Override Error.lvlib</text></g><!--cluster jettl.lvlib--><g class="cluster" data-entity="jettl.lvlib" data-source-line="14" data-uid="ent0005" id="cluster_jettl.lvlib"><path d="M61.5,6 L133.8398,6 A3.75,3.75 0 0 1 136.3398,8.5 L143.3398,28.2969 L212.5,28.2969 A2.5,2.5 0 0 1 215,30.7969 L215,102.5 A2.5,2.5 0 0 1 212.5,105 L61.5,105 A2.5,2.5 0 0 1 59,102.5 L59,8.5 A2.5,2.5 0 0 1 61.5,6" fill="none" style="stroke:#000000;stroke-width:1.5;"/><line style="stroke:#000000;stroke-width:1.5;" x1="59" x2="143.3398" y1="28.2969" y2="28.2969"/><text fill="#000000" font-family="sans-serif" font-size="14" font-weight="bold" lengthAdjust="spacing" textLength="71.3398" x="63" y="20.9951">jettl.lvlib</text></g><!--class Override Error Msg Strategy--><g class="entity" data-entity="Override Error Msg Strategy" data-source-line="8" data-uid="ent0002" id="entity_Override Error Msg Strategy"><rect fill="#FFFFFF" height="96.8906" rx="2.5" ry="2.5" style="stroke:#555555;stroke-width:0.5;" width="229.0938" x="22.45" y="164"/><rect fill="#808080" height="32" rx="2.5" ry="2.5" style="stroke:#808080;stroke-width:0.5;" width="229.0938" x="22.45" y="164"/><rect fill="#808080" height="2.5" style="stroke:#808080;stroke-width:0.5;" width="229.0938" x="22.45" y="193.5"/><rect fill="none" height="96.8906" rx="2.5" ry="2.5" style="stroke:#555555;stroke-width:0.5;" width="229.0938" x="22.45" y="164"/><ellipse cx="37.45" cy="180" fill="#ADD1B2" rx="11" ry="11" style="stroke:#181818;stroke-width:1;"/><path d="M40.4188,185.6406 Q39.8406,185.9375 39.2,186.0781 Q38.5594,186.2344 37.8563,186.2344 Q35.3563,186.2344 34.0281,184.5938 Q32.7156,182.9375 32.7156,179.8125 Q32.7156,176.6875 34.0281,175.0313 Q35.3563,173.375 37.8563,173.375 Q38.5594,173.375 39.2,173.5313 Q39.8563,173.6875 40.4188,173.9844 L40.4188,176.7031 Q39.7938,176.125 39.2,175.8594 Q38.6063,175.5781 37.9813,175.5781 Q36.6375,175.5781 35.95,176.6563 Q35.2625,177.7188 35.2625,179.8125 Q35.2625,181.9063 35.95,182.9844 Q36.6375,184.0469 37.9813,184.0469 Q38.6063,184.0469 39.2,183.7813 Q39.7938,183.5 40.4188,182.9219 L40.4188,185.6406 Z " fill="#000000"/><text fill="#000000" font-family="sans-serif" font-size="14" lengthAdjust="spacing" textLength="197.0938" x="51.45" y="184.8467">Override Error Msg Strategy</text><line style="stroke:#555555;stroke-width:0.5;" x1="23.45" x2="250.5438" y1="196" y2="196"/><rect fill="none" height="6" style="stroke:#C82930;stroke-width:1;" width="6" x="30.45" y="206.6484"/><text fill="#000000" font-family="sans-serif" font-size="14" lengthAdjust="spacing" textLength="137.1152" x="42.45" y="212.9951">Error : Error Cluster</text><line style="stroke:#555555;stroke-width:0.5;" x1="23.45" x2="250.5438" y1="220.2969" y2="220.2969"/><rect fill="#F24D5C" height="6" style="stroke:#C82930;stroke-width:1;" width="6" x="30.45" y="230.9453"/><text fill="#000000" font-family="sans-serif" font-size="14" lengthAdjust="spacing" text-decoration="underline" textLength="33.3047" x="42.45" y="237.292">Init()</text><rect fill="#F24D5C" height="6" style="stroke:#C82930;stroke-width:1;" width="6" x="30.45" y="247.2422"/><text fill="#000000" font-family="sans-serif" font-size="14" lengthAdjust="spacing" textLength="39.1836" x="42.45" y="253.5889">Msg()</text></g><!--class Msg Strategy--><g class="entity" data-entity="Msg Strategy" data-source-line="14" data-uid="ent0004" id="entity_Msg Strategy"><rect fill="#FFFFFF" height="48" rx="2.5" ry="2.5" style="stroke:#555555;stroke-width:0.5;" width="124.6953" x="74.65" y="41"/><rect fill="#808080" height="32" rx="2.5" ry="2.5" style="stroke:#808080;stroke-width:0.5;" width="124.6953" x="74.65" y="41"/><rect fill="#808080" height="2.5" style="stroke:#808080;stroke-width:0.5;" width="124.6953" x="74.65" y="70.5"/><rect fill="none" height="48" rx="2.5" ry="2.5" style="stroke:#555555;stroke-width:0.5;" width="124.6953" x="74.65" y="41"/><ellipse cx="89.65" cy="57" fill="#B4A7E5" rx="11" ry="11" style="stroke:#181818;stroke-width:1;"/><path d="M85.5719,52.7656 L85.5719,50.6094 L92.9625,50.6094 L92.9625,52.7656 L90.4938,52.7656 L90.4938,60.8438 L92.9625,60.8438 L92.9625,63 L85.5719,63 L85.5719,60.8438 L88.0406,60.8438 L88.0406,52.7656 L85.5719,52.7656 Z " fill="#000000"/><text fill="#000000" font-family="sans-serif" font-size="14" font-style="italic" lengthAdjust="spacing" textLength="92.6953" x="103.65" y="61.8467">Msg Strategy</text><line style="stroke:#555555;stroke-width:0.5;" x1="75.65" x2="198.3453" y1="73" y2="73"/><line style="stroke:#555555;stroke-width:0.5;" x1="75.65" x2="198.3453" y1="81" y2="81"/></g><!--reverse link Msg Strategy to Override Error Msg Strategy--><g class="link" data-entity-1="Msg Strategy" data-entity-2="Override Error Msg Strategy" data-source-line="14" data-uid="lnk6" id="link_Msg Strategy_Override Error Msg Strategy"><path codeLine="14" d="M137,107.37 C137,127.36 137,138.78 137,163.73" fill="none" id="Msg Strategy-backto-Override Error Msg Strategy" style="stroke:#181818;stroke-width:1;stroke-dasharray:7.0,7.0;"/><polygon fill="none" points="137,89.37,131,107.37,143,107.37,137,89.37" style="stroke:#181818;stroke-width:1;"/></g><!--SRC=[fP71JiCm38RlVWfhNE10jGiIgZXHCS41STWJP8bNmjAuShn9AFJTIRjAi4tYmX_bOEVJ_zjA8iLeEagziRIcteXH5gmXxNmSgmwRO59wD7RN2k-ZQpWKu6erwG9ZSIGpSZVf75bnr1bOJZe7diaKZul0- -Luu1Ujt9UB6rRb3fqNikevWXrTSF51gW5VKujl1nBnZl19XAKAX-0tzMbpujPQjgVsSu4PyjPJS0FU7f_h6Ml2FYa9vAH6lHqmTwJlF88lqUlr3VmqYcMfOO3ZA7FkQT33LrNzQrJmiSopBR-7VyJa0Og-0G00]--></g></svg>