<svg xmlns="http://www.w3.org/2000/svg" xmlns:xlink="http://www.w3.org/1999/xlink" contentStyleType="text/css" data-diagram-type="CLASS" height="300px" preserveAspectRatio="none" style="width:295px;height:300px;background:#FFFFFF;" version="1.1" viewBox="0 0 295 300" width="295px" zoomAndPan="magnify"><defs/><g><!--cluster jettl Msg Create Queue.lvlib--><g class="cluster" data-entity="jettl Msg Create Queue.lvlib" data-source-line="8" data-uid="ent0003" id="cluster_jettl Msg Create Queue.lvlib"><path d="M8.5,6 L230.8818,6 A3.75,3.75 0 0 1 233.3818,8.5 L240.3818,28.2969 L261.5,28.2969 A2.5,2.5 0 0 1 264,30.7969 L264,167.69 A2.5,2.5 0 0 1 261.5,170.19 L8.5,170.19 A2.5,2.5 0 0 1 6,167.69 L6,8.5 A2.5,2.5 0 0 1 8.5,6" fill="none" style="stroke:#000000;stroke-width:1.5;"/><line style="stroke:#000000;stroke-width:1.5;" x1="6" x2="240.3818" y1="28.2969" y2="28.2969"/><text fill="#000000" font-family="sans-serif" font-size="14" font-weight="bold" lengthAdjust="spacing" textLength="221.3818" x="10" y="20.9951">jettl Msg Create Queue.lvlib</text></g><!--cluster jettl.lvlib--><g class="cluster" data-entity="jettl.lvlib" data-source-line="15" data-uid="ent0005" id="cluster_jettl.lvlib"><path d="M21.5,194.19 L93.8398,194.19 A3.75,3.75 0 0 1 96.3398,196.69 L103.3398,216.4869 L285.5,216.4869 A2.5,2.5 0 0 1 288,218.9869 L288,290.69 A2.5,2.5 0 0 1 285.5,293.19 L21.5,293.19 A2.5,2.5 0 0 1 19,290.69 L19,196.69 A2.5,2.5 0 0 1 21.5,194.19" fill="none" style="stroke:#000000;stroke-width:1.5;"/><line style="stroke:#000000;stroke-width:1.5;" x1="19" x2="103.3398" y1="216.4869" y2="216.4869"/><text fill="#000000" font-family="sans-serif" font-size="14" font-weight="bold" lengthAdjust="spacing" textLength="71.3398" x="23" y="209.1851">jettl.lvlib</text></g><!--class Create Queue Msg Strategy--><g class="entity" data-entity="Create Queue Msg Strategy" data-source-line="8" data-uid="ent0002" id="entity_Create Queue Msg Strategy"><rect fill="#FFFFFF" height="113.1875" rx="2.5" ry="2.5" style="stroke:#555555;stroke-width:0.5;" width="226.4141" x="21.79" y="41"/><rect fill="#808080" height="32" rx="2.5" ry="2.5" style="stroke:#808080;stroke-width:0.5;" width="226.4141" x="21.79" y="41"/><rect fill="#808080" height="2.5" style="stroke:#808080;stroke-width:0.5;" width="226.4141" x="21.79" y="70.5"/><rect fill="none" height="113.1875" rx="2.5" ry="2.5" style="stroke:#555555;stroke-width:0.5;" width="226.4141" x="21.79" y="41"/><ellipse cx="36.79" cy="57" fill="#ADD1B2" rx="11" ry="11" style="stroke:#181818;stroke-width:1;"/><path d="M39.7588,62.6406 Q39.1806,62.9375 38.54,63.0781 Q37.8994,63.2344 37.1963,63.2344 Q34.6963,63.2344 33.3681,61.5938 Q32.0556,59.9375 32.0556,56.8125 Q32.0556,53.6875 33.3681,52.0313 Q34.6963,50.375 37.1963,50.375 Q37.8994,50.375 38.54,50.5313 Q39.1963,50.6875 39.7588,50.9844 L39.7588,53.7031 Q39.1338,53.125 38.54,52.8594 Q37.9463,52.5781 37.3213,52.5781 Q35.9775,52.5781 35.29,53.6563 Q34.6025,54.7188 34.6025,56.8125 Q34.6025,58.9063 35.29,59.9844 Q35.9775,61.0469 37.3213,61.0469 Q37.9463,61.0469 38.54,60.7813 Q39.1338,60.5 39.7588,59.9219 L39.7588,62.6406 Z " fill="#000000"/><text fill="#000000" font-family="sans-serif" font-size="14" lengthAdjust="spacing" textLength="194.4141" x="50.79" y="61.8467">Create Queue Msg Strategy</text><line style="stroke:#555555;stroke-width:0.5;" x1="22.79" x2="247.2041" y1="73" y2="73"/><rect fill="none" height="6" style="stroke:#C82930;stroke-width:1;" width="6" x="29.79" y="83.6484"/><text fill="#000000" font-family="sans-serif" font-size="14" lengthAdjust="spacing" textLength="169.8389" x="41.79" y="89.9951">Self Queue Alias : String</text><rect fill="none" height="6" style="stroke:#C82930;stroke-width:1;" width="6" x="29.79" y="99.9453"/><text fill="#000000" font-family="sans-serif" font-size="14" lengthAdjust="spacing" textLength="118.2686" x="41.79" y="106.292">Queue : LV Class</text><line style="stroke:#555555;stroke-width:0.5;" x1="22.79" x2="247.2041" y1="113.5938" y2="113.5938"/><rect fill="#F24D5C" height="6" style="stroke:#C82930;stroke-width:1;" width="6" x="29.79" y="124.2422"/><text fill="#000000" font-family="sans-serif" font-size="14" lengthAdjust="spacing" text-decoration="underline" textLength="33.3047" x="41.79" y="130.5889">Init()</text><rect fill="#F24D5C" height="6" style="stroke:#C82930;stroke-width:1;" width="6" x="29.79" y="140.5391"/><text fill="#000000" font-family="sans-serif" font-size="14" lengthAdjust="spacing" textLength="39.1836" x="41.79" y="146.8857">Msg()</text></g><!--class Msg Strategy--><g class="entity" data-entity="Msg Strategy" data-source-line="15" data-uid="ent0004" id="entity_Msg Strategy"><rect fill="#FFFFFF" height="48" rx="2.5" ry="2.5" style="stroke:#555555;stroke-width:0.5;" width="124.6953" x="147.65" y="229.19"/><rect fill="#808080" height="32" rx="2.5" ry="2.5" style="stroke:#808080;stroke-width:0.5;" width="124.6953" x="147.65" y="229.19"/><rect fill="#808080" height="2.5" style="stroke:#808080;stroke-width:0.5;" width="124.6953" x="147.65" y="258.69"/><rect fill="none" height="48" rx="2.5" ry="2.5" style="stroke:#555555;stroke-width:0.5;" width="124.6953" x="147.65" y="229.19"/><ellipse cx="162.65" cy="245.19" fill="#B4A7E5" rx="11" ry="11" style="stroke:#181818;stroke-width:1;"/><path d="M158.5719,240.9556 L158.5719,238.7994 L165.9625,238.7994 L165.9625,240.9556 L163.4938,240.9556 L163.4938,249.0338 L165.9625,249.0338 L165.9625,251.19 L158.5719,251.19 L158.5719,249.0338 L161.0406,249.0338 L161.0406,240.9556 L158.5719,240.9556 Z " fill="#000000"/><text fill="#000000" font-family="sans-serif" font-size="14" font-style="italic" lengthAdjust="spacing" textLength="92.6953" x="176.65" y="250.0367">Msg Strategy</text><line style="stroke:#555555;stroke-width:0.5;" x1="148.65" x2="271.3453" y1="261.19" y2="261.19"/><line style="stroke:#555555;stroke-width:0.5;" x1="148.65" x2="271.3453" y1="269.19" y2="269.19"/></g><!--class Queue--><g class="entity" data-entity="Queue" data-source-line="18" data-uid="ent0007" id="entity_Queue"><rect fill="#FFFFFF" height="48" rx="2.5" ry="2.5" style="stroke:#555555;stroke-width:0.5;" width="77.9922" x="35" y="229.19"/><rect fill="#808080" height="32" rx="2.5" ry="2.5" style="stroke:#808080;stroke-width:0.5;" width="77.9922" x="35" y="229.19"/><rect fill="#808080" height="2.5" style="stroke:#808080;stroke-width:0.5;" width="77.9922" x="35" y="258.69"/><rect fill="none" height="48" rx="2.5" ry="2.5" style="stroke:#555555;stroke-width:0.5;" width="77.9922" x="35" y="229.19"/><ellipse cx="50" cy="245.19" fill="#ADD1B2" rx="11" ry="11" style="stroke:#181818;stroke-width:1;"/><path d="M52.9688,250.8306 Q52.3906,251.1275 51.75,251.2681 Q51.1094,251.4244 50.4063,251.4244 Q47.9063,251.4244 46.5781,249.7838 Q45.2656,248.1275 45.2656,245.0025 Q45.2656,241.8775 46.5781,240.2213 Q47.9063,238.565 50.4063,238.565 Q51.1094,238.565 51.75,238.7213 Q52.4063,238.8775 52.9688,239.1744 L52.9688,241.8931 Q52.3438,241.315 51.75,241.0494 Q51.1563,240.7681 50.5313,240.7681 Q49.1875,240.7681 48.5,241.8463 Q47.8125,242.9088 47.8125,245.0025 Q47.8125,247.0963 48.5,248.1744 Q49.1875,249.2369 50.5313,249.2369 Q51.1563,249.2369 51.75,248.9713 Q52.3438,248.69 52.9688,248.1119 L52.9688,250.8306 Z " fill="#000000"/><text fill="#000000" font-family="sans-serif" font-size="14" lengthAdjust="spacing" textLength="45.9922" x="64" y="250.0367">Queue</text><line style="stroke:#555555;stroke-width:0.5;" x1="36" x2="111.9922" y1="261.19" y2="261.19"/><line style="stroke:#555555;stroke-width:0.5;" x1="36" x2="111.9922" y1="269.19" y2="269.19"/></g><!--reverse link Msg Strategy to Create Queue Msg Strategy--><g class="link" data-entity-1="Msg Strategy" data-entity-2="Create Queue Msg Strategy" data-source-line="15" data-uid="lnk6" id="link_Msg Strategy_Create Queue Msg Strategy"><path codeLine="15" d="M190.795,212.8687 C181.165,193.1687 174.85,180.21 162.29,154.48" fill="none" id="Msg Strategy-backto-Create Queue Msg Strategy" style="stroke:#181818;stroke-width:1;stroke-dasharray:7.0,7.0;"/><polygon fill="none" points="198.7,229.04,196.1854,210.2337,185.4045,215.5037,198.7,229.04" style="stroke:#181818;stroke-width:1;"/></g><!--reverse link Create Queue Msg Strategy to Queue--><g class="link" data-entity-1="Create Queue Msg Strategy" data-entity-2="Queue" data-source-line="18" data-uid="lnk8" id="link_Create Queue Msg Strategy_Queue"><path codeLine="18" d="M108.3802,165.6324 C98.1602,191.3624 91.02,209.34 83.19,229.04" fill="none" id="Create Queue Msg Strategy-backto-Queue" style="stroke:#181818;stroke-width:1;"/><polygon fill="#181818" points="112.81,154.48,106.8776,158.5796,108.3802,165.6324,114.3126,161.5328,112.81,154.48" style="stroke:#181818;stroke-width:1;"/></g><!--SRC=[dP5DIyGm48Rlyok6xaM5bhq8KhneON513rBmdcsdDMwQb6GgIEn_DsaB-mKUTeOSPlBmpZk98qOjEdAzgAYaNbZ1nc8ERYzrh3eib73kMLJxrff1ruLH0LXjfhZ0ZAt9BiZz5EV8ncXUWFKKvy0BYQ1nCV1X7HEEQ3PzEBWppAR3MbggM1eDLLJ1v8kO5Rwv5WjBWWdV1neeKzzAxlBZriIK73QdzYT13xwHfEeHqv9Kip1FIWg7UUIaRW_8V9lZwyVi7hnZmR8QqNV4doOoMotvvXOEZJ0mr332R7BnT6hZyJVBhbu2f6QoJVXJ_6U47m6kVgQxD3tLdg040Fu0]--></g></svg>