<svg xmlns="http://www.w3.org/2000/svg" xmlns:xlink="http://www.w3.org/1999/xlink" contentStyleType="text/css" data-diagram-type="CLASS" height="464px" preserveAspectRatio="none" style="width:1005px;height:464px;background:#FFFFFF;" version="1.1" viewBox="0 0 1005 464" width="1005px" zoomAndPan="magnify"><defs/><g><!--cluster jettl.lvlib--><g class="cluster" data-entity="jettl.lvlib" data-source-line="8" data-uid="ent0003" id="cluster_jettl.lvlib"><path d="M8.5,6 L80.8398,6 A3.75,3.75 0 0 1 83.3398,8.5 L90.3398,28.2969 L299.5,28.2969 A2.5,2.5 0 0 1 302,30.7969 L302,454.95 A2.5,2.5 0 0 1 299.5,457.45 L8.5,457.45 A2.5,2.5 0 0 1 6,454.95 L6,8.5 A2.5,2.5 0 0 1 8.5,6" fill="none" style="stroke:#000000;stroke-width:1.5;"/><line style="stroke:#000000;stroke-width:1.5;" x1="6" x2="90.3398" y1="28.2969" y2="28.2969"/><text fill="#000000" font-family="sans-serif" font-size="14" font-weight="bold" lengthAdjust="spacing" textLength="71.3398" x="10" y="20.9951">jettl.lvlib</text></g><!--cluster jettl Msg Override Error.lvlib--><g class="cluster" data-entity="jettl Msg Override Error.lvlib" data-source-line="26" data-uid="ent0005" id="cluster_jettl Msg Override Error.lvlib"><path d="M328.5,6 L556.2891,6 A3.75,3.75 0 0 1 558.7891,8.5 L565.7891,28.2969 L565.5,28.2969 A2.5,2.5 0 0 1 568,30.7969 L568,102.5 A2.5,2.5 0 0 1 565.5,105 L328.5,105 A2.5,2.5 0 0 1 326,102.5 L326,8.5 A2.5,2.5 0 0 1 328.5,6" fill="none" style="stroke:#000000;stroke-width:1.5;"/><line style="stroke:#000000;stroke-width:1.5;" x1="326" x2="565.7891" y1="28.2969" y2="28.2969"/><text fill="#000000" font-family="sans-serif" font-size="14" font-weight="bold" lengthAdjust="spacing" textLength="226.7891" x="330" y="20.9951">jettl Msg Override Error.lvlib</text></g><!--cluster jettl Msg Setup.lvlib--><g class="cluster" data-entity="jettl Msg Setup.lvlib" data-source-line="28" data-uid="ent0008" id="cluster_jettl Msg Setup.lvlib"><path d="M594.5,6 L755.1328,6 A3.75,3.75 0 0 1 757.6328,8.5 L764.6328,28.2969 L764.5,28.2969 A2.5,2.5 0 0 1 767,30.7969 L767,102.5 A2.5,2.5 0 0 1 764.5,105 L594.5,105 A2.5,2.5 0 0 1 592,102.5 L592,8.5 A2.5,2.5 0 0 1 594.5,6" fill="none" style="stroke:#000000;stroke-width:1.5;"/><line style="stroke:#000000;stroke-width:1.5;" x1="592" x2="764.6328" y1="28.2969" y2="28.2969"/><text fill="#000000" font-family="sans-serif" font-size="14" font-weight="bold" lengthAdjust="spacing" textLength="159.6328" x="596" y="20.9951">jettl Msg Setup.lvlib</text></g><!--cluster jettl Msg Teardown.lvlib--><g class="cluster" data-entity="jettl Msg Teardown.lvlib" data-source-line="30" data-uid="ent0011" id="cluster_jettl Msg Teardown.lvlib"><path d="M793.5,6 L985.8105,6 A3.75,3.75 0 0 1 988.3105,8.5 L995.3105,28.2969 L995.5,28.2969 A2.5,2.5 0 0 1 998,30.7969 L998,102.5 A2.5,2.5 0 0 1 995.5,105 L793.5,105 A2.5,2.5 0 0 1 791,102.5 L791,8.5 A2.5,2.5 0 0 1 793.5,6" fill="none" style="stroke:#000000;stroke-width:1.5;"/><line style="stroke:#000000;stroke-width:1.5;" x1="791" x2="995.3105" y1="28.2969" y2="28.2969"/><text fill="#000000" font-family="sans-serif" font-size="14" font-weight="bold" lengthAdjust="spacing" textLength="191.3105" x="795" y="20.9951">jettl Msg Teardown.lvlib</text></g><!--class Event--><g class="entity" data-entity="Event" data-source-line="8" data-uid="ent0002" id="entity_Event"><rect fill="#FFFFFF" height="292.4531" rx="2.5" ry="2.5" style="stroke:#555555;stroke-width:0.5;" width="263.7129" x="22.14" y="149"/><rect fill="#808080" height="32" rx="2.5" ry="2.5" style="stroke:#808080;stroke-width:0.5;" width="263.7129" x="22.14" y="149"/><rect fill="#808080" height="2.5" style="stroke:#808080;stroke-width:0.5;" width="263.7129" x="22.14" y="178.5"/><rect fill="none" height="292.4531" rx="2.5" ry="2.5" style="stroke:#555555;stroke-width:0.5;" width="263.7129" x="22.14" y="149"/><ellipse cx="129.6932" cy="165" fill="#B4A7E5" rx="11" ry="11" style="stroke:#181818;stroke-width:1;"/><path d="M125.6151,160.7656 L125.6151,158.6094 L133.0057,158.6094 L133.0057,160.7656 L130.537,160.7656 L130.537,168.8438 L133.0057,168.8438 L133.0057,171 L125.6151,171 L125.6151,168.8438 L128.0838,168.8438 L128.0838,160.7656 L125.6151,160.7656 Z " fill="#000000"/><text fill="#000000" font-family="sans-serif" font-size="14" font-style="italic" lengthAdjust="spacing" textLength="40.1064" x="150.1932" y="169.8467">Event</text><line style="stroke:#555555;stroke-width:0.5;" x1="23.14" x2="284.8529" y1="181" y2="181"/><line style="stroke:#555555;stroke-width:0.5;" x1="23.14" x2="284.8529" y1="189" y2="189"/><ellipse cx="33.14" cy="202.6484" fill="#84BE84" rx="3" ry="3" style="stroke:#038048;stroke-width:1;"/><text fill="#000000" font-family="sans-serif" font-size="14" lengthAdjust="spacing" textLength="189.6426" x="42.14" y="205.9951">Creators Self Queue Alias()</text><ellipse cx="33.14" cy="218.9453" fill="#84BE84" rx="3" ry="3" style="stroke:#038048;stroke-width:1;"/><text fill="#000000" font-family="sans-serif" font-size="14" lengthAdjust="spacing" textLength="151.9629" x="42.14" y="222.292">Creators Self Queue()</text><ellipse cx="33.14" cy="235.2422" fill="#84BE84" rx="3" ry="3" style="stroke:#038048;stroke-width:1;"/><text fill="#000000" font-family="sans-serif" font-size="14" lengthAdjust="spacing" textLength="215.8584" x="42.14" y="238.5889">Creators Creator Queue Alias()</text><ellipse cx="33.14" cy="251.5391" fill="#84BE84" rx="3" ry="3" style="stroke:#038048;stroke-width:1;"/><text fill="#000000" font-family="sans-serif" font-size="14" lengthAdjust="spacing" textLength="178.1787" x="42.14" y="254.8857">Creators Creator Queue()</text><ellipse cx="33.14" cy="267.8359" fill="#84BE84" rx="3" ry="3" style="stroke:#038048;stroke-width:1;"/><text fill="#000000" font-family="sans-serif" font-size="14" lengthAdjust="spacing" textLength="188.6514" x="42.14" y="271.1826">Creators Created Queues()</text><ellipse cx="33.14" cy="284.1328" fill="#84BE84" rx="3" ry="3" style="stroke:#038048;stroke-width:1;"/><text fill="#000000" font-family="sans-serif" font-size="14" lengthAdjust="spacing" textLength="237.7129" x="42.14" y="287.4795">Creators Status Created Queues()</text><ellipse cx="33.14" cy="300.4297" fill="#84BE84" rx="3" ry="3" style="stroke:#038048;stroke-width:1;"/><text fill="#000000" font-family="sans-serif" font-size="14" lengthAdjust="spacing" textLength="197.2305" x="42.14" y="303.7764">Creators Is Created Queue()</text><ellipse cx="33.14" cy="316.7266" fill="#84BE84" rx="3" ry="3" style="stroke:#038048;stroke-width:1;"/><text fill="#000000" font-family="sans-serif" font-size="14" lengthAdjust="spacing" textLength="182.7656" x="42.14" y="320.0732">Creators Created Events()</text><ellipse cx="33.14" cy="333.0234" fill="#84BE84" rx="3" ry="3" style="stroke:#038048;stroke-width:1;"/><text fill="#000000" font-family="sans-serif" font-size="14" lengthAdjust="spacing" textLength="231.8271" x="42.14" y="336.3701">Creators Status Created Events()</text><ellipse cx="33.14" cy="349.3203" fill="#84BE84" rx="3" ry="3" style="stroke:#038048;stroke-width:1;"/><text fill="#000000" font-family="sans-serif" font-size="14" lengthAdjust="spacing" textLength="191.3447" x="42.14" y="352.667">Creators Is Created Event()</text><ellipse cx="33.14" cy="365.6172" fill="#84BE84" rx="3" ry="3" style="stroke:#038048;stroke-width:1;"/><text fill="#000000" font-family="sans-serif" font-size="14" lengthAdjust="spacing" textLength="75.0176" x="42.14" y="368.9639">Decorate()</text><ellipse cx="33.14" cy="381.9141" fill="#84BE84" rx="3" ry="3" style="stroke:#038048;stroke-width:1;"/><text fill="#000000" font-family="sans-serif" font-size="14" lengthAdjust="spacing" textLength="44.7412" x="42.14" y="385.2607">Loop()</text><ellipse cx="33.14" cy="398.2109" fill="#84BE84" rx="3" ry="3" style="stroke:#038048;stroke-width:1;"/><text fill="#000000" font-family="sans-serif" font-size="14" lengthAdjust="spacing" textLength="66.3633" x="42.14" y="401.5576">Receive()</text><ellipse cx="33.14" cy="414.5078" fill="#84BE84" rx="3" ry="3" style="stroke:#038048;stroke-width:1;"/><text fill="#000000" font-family="sans-serif" font-size="14" lengthAdjust="spacing" textLength="119.4785" x="42.14" y="417.8545">Self Event Alias()</text><ellipse cx="33.14" cy="430.8047" fill="#84BE84" rx="3" ry="3" style="stroke:#038048;stroke-width:1;"/><text fill="#000000" font-family="sans-serif" font-size="14" lengthAdjust="spacing" textLength="81.7988" x="42.14" y="434.1514">Self Event()</text></g><!--class jettl--><g class="entity" data-entity="jettl" data-source-line="32" data-uid="ent0013" id="entity_jettl"><rect fill="#FFFFFF" height="48" rx="2.5" ry="2.5" style="stroke:#555555;stroke-width:0.5;" width="59.3711" x="124.31" y="41"/><rect fill="#808080" height="32" rx="2.5" ry="2.5" style="stroke:#808080;stroke-width:0.5;" width="59.3711" x="124.31" y="41"/><rect fill="#808080" height="2.5" style="stroke:#808080;stroke-width:0.5;" width="59.3711" x="124.31" y="70.5"/><rect fill="none" height="48" rx="2.5" ry="2.5" style="stroke:#555555;stroke-width:0.5;" width="59.3711" x="124.31" y="41"/><ellipse cx="139.31" cy="57" fill="#B4A7E5" rx="11" ry="11" style="stroke:#181818;stroke-width:1;"/><path d="M135.2319,52.7656 L135.2319,50.6094 L142.6225,50.6094 L142.6225,52.7656 L140.1538,52.7656 L140.1538,60.8438 L142.6225,60.8438 L142.6225,63 L135.2319,63 L135.2319,60.8438 L137.7006,60.8438 L137.7006,52.7656 L135.2319,52.7656 Z " fill="#000000"/><text fill="#000000" font-family="sans-serif" font-size="14" font-style="italic" lengthAdjust="spacing" textLength="27.3711" x="153.31" y="61.8467">jettl</text><line style="stroke:#555555;stroke-width:0.5;" x1="125.31" x2="182.6811" y1="73" y2="73"/><line style="stroke:#555555;stroke-width:0.5;" x1="125.31" x2="182.6811" y1="81" y2="81"/></g><!--class Override Error--><g class="entity" data-entity="Override Error" data-source-line="26" data-uid="ent0004" id="entity_Override Error"><rect fill="#FFFFFF" height="48" rx="2.5" ry="2.5" style="stroke:#555555;stroke-width:0.5;" width="131.9482" x="342.03" y="41"/><rect fill="#808080" height="32" rx="2.5" ry="2.5" style="stroke:#808080;stroke-width:0.5;" width="131.9482" x="342.03" y="41"/><rect fill="#808080" height="2.5" style="stroke:#808080;stroke-width:0.5;" width="131.9482" x="342.03" y="70.5"/><rect fill="none" height="48" rx="2.5" ry="2.5" style="stroke:#555555;stroke-width:0.5;" width="131.9482" x="342.03" y="41"/><ellipse cx="357.03" cy="57" fill="#B4A7E5" rx="11" ry="11" style="stroke:#181818;stroke-width:1;"/><path d="M352.9519,52.7656 L352.9519,50.6094 L360.3425,50.6094 L360.3425,52.7656 L357.8738,52.7656 L357.8738,60.8438 L360.3425,60.8438 L360.3425,63 L352.9519,63 L352.9519,60.8438 L355.4206,60.8438 L355.4206,52.7656 L352.9519,52.7656 Z " fill="#000000"/><text fill="#000000" font-family="sans-serif" font-size="14" font-style="italic" lengthAdjust="spacing" textLength="99.9482" x="371.03" y="61.8467">Override Error</text><line style="stroke:#555555;stroke-width:0.5;" x1="343.03" x2="472.9782" y1="73" y2="73"/><line style="stroke:#555555;stroke-width:0.5;" x1="343.03" x2="472.9782" y1="81" y2="81"/></g><!--class Setup--><g class="entity" data-entity="Setup" data-source-line="28" data-uid="ent0007" id="entity_Setup"><rect fill="#FFFFFF" height="48" rx="2.5" ry="2.5" style="stroke:#555555;stroke-width:0.5;" width="72.749" x="607.63" y="41"/><rect fill="#808080" height="32" rx="2.5" ry="2.5" style="stroke:#808080;stroke-width:0.5;" width="72.749" x="607.63" y="41"/><rect fill="#808080" height="2.5" style="stroke:#808080;stroke-width:0.5;" width="72.749" x="607.63" y="70.5"/><rect fill="none" height="48" rx="2.5" ry="2.5" style="stroke:#555555;stroke-width:0.5;" width="72.749" x="607.63" y="41"/><ellipse cx="622.63" cy="57" fill="#B4A7E5" rx="11" ry="11" style="stroke:#181818;stroke-width:1;"/><path d="M618.5519,52.7656 L618.5519,50.6094 L625.9425,50.6094 L625.9425,52.7656 L623.4738,52.7656 L623.4738,60.8438 L625.9425,60.8438 L625.9425,63 L618.5519,63 L618.5519,60.8438 L621.0206,60.8438 L621.0206,52.7656 L618.5519,52.7656 Z " fill="#000000"/><text fill="#000000" font-family="sans-serif" font-size="14" font-style="italic" lengthAdjust="spacing" textLength="40.749" x="636.63" y="61.8467">Setup</text><line style="stroke:#555555;stroke-width:0.5;" x1="608.63" x2="679.379" y1="73" y2="73"/><line style="stroke:#555555;stroke-width:0.5;" x1="608.63" x2="679.379" y1="81" y2="81"/></g><!--class Teardown--><g class="entity" data-entity="Teardown" data-source-line="30" data-uid="ent0010" id="entity_Teardown"><rect fill="#FFFFFF" height="48" rx="2.5" ry="2.5" style="stroke:#555555;stroke-width:0.5;" width="101.2754" x="807.36" y="41"/><rect fill="#808080" height="32" rx="2.5" ry="2.5" style="stroke:#808080;stroke-width:0.5;" width="101.2754" x="807.36" y="41"/><rect fill="#808080" height="2.5" style="stroke:#808080;stroke-width:0.5;" width="101.2754" x="807.36" y="70.5"/><rect fill="none" height="48" rx="2.5" ry="2.5" style="stroke:#555555;stroke-width:0.5;" width="101.2754" x="807.36" y="41"/><ellipse cx="822.36" cy="57" fill="#B4A7E5" rx="11" ry="11" style="stroke:#181818;stroke-width:1;"/><path d="M818.2819,52.7656 L818.2819,50.6094 L825.6725,50.6094 L825.6725,52.7656 L823.2038,52.7656 L823.2038,60.8438 L825.6725,60.8438 L825.6725,63 L818.2819,63 L818.2819,60.8438 L820.7506,60.8438 L820.7506,52.7656 L818.2819,52.7656 Z " fill="#000000"/><text fill="#000000" font-family="sans-serif" font-size="14" font-style="italic" lengthAdjust="spacing" textLength="69.2754" x="836.36" y="61.8467">Teardown</text><line style="stroke:#555555;stroke-width:0.5;" x1="808.36" x2="907.6354" y1="73" y2="73"/><line style="stroke:#555555;stroke-width:0.5;" x1="808.36" x2="907.6354" y1="81" y2="81"/></g><!--reverse link Override Error to Event--><g class="link" data-entity-1="Override Error" data-entity-2="Event" data-source-line="26" data-uid="lnk6" id="link_Override Error_Event"><path codeLine="26" d="M368.8584,101.1677 C345.5884,122.0677 322.84,142.52 286.13,175.5" fill="none" id="Override Error-backto-Event" style="stroke:#181818;stroke-width:1;stroke-dasharray:7.0,7.0;"/><polygon fill="none" points="382.25,89.14,364.8492,96.7038,372.8676,105.6316,382.25,89.14" style="stroke:#181818;stroke-width:1;"/></g><!--reverse link Setup to Event--><g class="link" data-entity-1="Setup" data-entity-2="Event" data-source-line="28" data-uid="lnk9" id="link_Setup_Event"><path codeLine="28" d="M590.8532,90.7501 C523.6332,122.0601 394.37,182.27 286.25,232.63" fill="none" id="Setup-backto-Event" style="stroke:#181818;stroke-width:1;stroke-dasharray:7.0,7.0;"/><polygon fill="none" points="607.17,83.15,588.3198,85.3112,593.3866,96.189,607.17,83.15" style="stroke:#181818;stroke-width:1;"/></g><!--reverse link Teardown to Event--><g class="link" data-entity-1="Teardown" data-entity-2="Event" data-source-line="30" data-uid="lnk12" id="link_Teardown_Event"><path codeLine="30" d="M789.9675,88.0517 C681.8675,123.1017 443.59,200.34 286.12,251.39" fill="none" id="Teardown-backto-Event" style="stroke:#181818;stroke-width:1;stroke-dasharray:7.0,7.0;"/><polygon fill="none" points="807.09,82.5,788.117,82.3442,791.8181,93.7592,807.09,82.5" style="stroke:#181818;stroke-width:1;"/></g><!--reverse link jettl to Event--><g class="link" data-entity-1="jettl" data-entity-2="Event" data-source-line="32" data-uid="lnk14" id="link_jettl_Event"><path codeLine="32" d="M154,107.14 C154,122.27 154,125.45 154,148.5" fill="none" id="jettl-backto-Event" style="stroke:#181818;stroke-width:1;stroke-dasharray:7.0,7.0;"/><polygon fill="none" points="154,89.14,148,107.14,160,107.14,154,89.14" style="stroke:#181818;stroke-width:1;"/></g><!--SRC=[bPBFJiCm3CRlVGfhN418qov8QE82OnEJG0Z62uJ66s5fN2LkEOozEraM_gJhokQgacF_-dr9QeSCHXJeIf7Z34jX1PE5OUQMocnM1OoqSEv6vCk5fSh84MaFd4n2x61a9Tg8N8He8XCo7851Y2PmXy9hx1XU3ZPFzeTcAlqBhyHC1KXbCMT59bE6qSxzUQ3tZiowhskjNeVZ6WttO9Mj2kGtaciu7rdS7DV13FKSdYgi4Awr4kxqh9jgxyVaVw44x41GRf5z-s71rM7ej85rcuQhEioq2vqsi8IwnPpyiAKxkISgay8pvgZg50g_8GYstF5lqvUpTROT0NXm2tYiqLeb4SRMaerJaHPxSFNPxxVDpSvK7IwvIdOnGwxAI8RyMCyMWTJX1OMLz64YyxqyrcUlp8zRx8Jy2FNqCw_cumi0]--></g></svg>