<svg xmlns="http://www.w3.org/2000/svg" xmlns:xlink="http://www.w3.org/1999/xlink" contentStyleType="text/css" data-diagram-type="CLASS" height="195px" preserveAspectRatio="none" style="width:312px;height:195px;background:#FFFFFF;" version="1.1" viewBox="0 0 312 195" width="312px" zoomAndPan="magnify"><defs/><g><!--cluster jettl.lvlib--><g class="cluster" data-entity="jettl.lvlib" data-source-line="8" data-uid="ent0003" id="cluster_jettl.lvlib"><path d="M8.5,6 L80.8398,6 A3.75,3.75 0 0 1 83.3398,8.5 L90.3398,28.2969 L302.5,28.2969 A2.5,2.5 0 0 1 305,30.7969 L305,185.8 A2.5,2.5 0 0 1 302.5,188.3 L8.5,188.3 A2.5,2.5 0 0 1 6,185.8 L6,8.5 A2.5,2.5 0 0 1 8.5,6" fill="none" style="stroke:#000000;stroke-width:1.5;"/><line style="stroke:#000000;stroke-width:1.5;" x1="6" x2="90.3398" y1="28.2969" y2="28.2969"/><text fill="#000000" font-family="sans-serif" font-size="14" font-weight="bold" lengthAdjust="spacing" textLength="71.3398" x="10" y="20.9951">jettl.lvlib</text></g><!--cluster jettl Msg Last Ack Queue.lvlib--><g class="cluster" data-entity="jettl Msg Last Ack Queue.lvlib" data-source-line="8" data-uid="ent0004" id="cluster_jettl Msg Last Ack Queue.lvlib"><path d="M32.5,49 L269.2852,49 A3.75,3.75 0 0 1 271.7852,51.5 L278.7852,71.2969 L278.5,71.2969 A2.5,2.5 0 0 1 281,73.7969 L281,161.8 A2.5,2.5 0 0 1 278.5,164.3 L32.5,164.3 A2.5,2.5 0 0 1 30,161.8 L30,51.5 A2.5,2.5 0 0 1 32.5,49" fill="none" style="stroke:#000000;stroke-width:1.5;"/><line style="stroke:#000000;stroke-width:1.5;" x1="30" x2="278.7852" y1="71.2969" y2="71.2969"/><text fill="#000000" font-family="sans-serif" font-size="14" font-weight="bold" lengthAdjust="spacing" textLength="235.7852" x="34" y="63.9951">jettl Msg Last Ack Queue.lvlib</text></g><!--class Last Ack Queue--><g class="entity" data-entity="Last Ack Queue" data-source-line="8" data-uid="ent0002" id="entity_Last Ack Queue"><rect fill="#FFFFFF" height="64.2969" rx="2.5" ry="2.5" style="stroke:#555555;stroke-width:0.5;" width="146.3604" x="81.82" y="84"/><rect fill="#808080" height="32" rx="2.5" ry="2.5" style="stroke:#808080;stroke-width:0.5;" width="146.3604" x="81.82" y="84"/><rect fill="#808080" height="2.5" style="stroke:#808080;stroke-width:0.5;" width="146.3604" x="81.82" y="113.5"/><rect fill="none" height="64.2969" rx="2.5" ry="2.5" style="stroke:#555555;stroke-width:0.5;" width="146.3604" x="81.82" y="84"/><ellipse cx="99.0357" cy="100" fill="#B4A7E5" rx="11" ry="11" style="stroke:#181818;stroke-width:1;"/><path d="M94.9576,95.7656 L94.9576,93.6094 L102.3482,93.6094 L102.3482,95.7656 L99.8795,95.7656 L99.8795,103.8438 L102.3482,103.8438 L102.3482,106 L94.9576,106 L94.9576,103.8438 L97.4263,103.8438 L97.4263,95.7656 L94.9576,95.7656 Z " fill="#000000"/><text fill="#000000" font-family="sans-serif" font-size="14" font-style="italic" lengthAdjust="spacing" textLength="109.4365" x="113.5281" y="104.8467">Last Ack Queue</text><line style="stroke:#555555;stroke-width:0.5;" x1="82.82" x2="227.1804" y1="116" y2="116"/><line style="stroke:#555555;stroke-width:0.5;" x1="82.82" x2="227.1804" y1="124" y2="124"/><rect fill="#F24D5C" height="6" style="stroke:#C82930;stroke-width:1;" width="6" x="89.82" y="134.6484"/><text fill="#000000" font-family="sans-serif" font-size="14" lengthAdjust="spacing" textLength="120.3604" x="101.82" y="140.9951">Last Ack Queue()</text></g><!--SRC=[PO-n3e9038RtFaM3YmuQ5XF3fYJ4GGVZ4nnGyUIuahlYGdXtWJ08_4sJjl-NDlKaQ5L5lbOPFQbMJWaxZC2NsWvTXR5HtbzKLXQE6vl7R7fWaunQOUnoSXDo7BL44hOo0U6e9N0brUzO7Jo5Gy0VBLptYIcBS8MvTfI9PWlQ2hbN_my67n8n1_CrEet66k- -m9loWkUin4T33KtsV1XW2sr5ykQym_tSs-u0EW3u0G00]--></g></svg>