<svg xmlns="http://www.w3.org/2000/svg" xmlns:xlink="http://www.w3.org/1999/xlink" contentStyleType="text/css" data-diagram-type="CLASS" height="300px" preserveAspectRatio="none" style="width:289px;height:300px;background:#FFFFFF;" version="1.1" viewBox="0 0 289 300" width="289px" zoomAndPan="magnify"><defs/><g><!--cluster jettl Msg Create Event.lvlib--><g class="cluster" data-entity="jettl Msg Create Event.lvlib" data-source-line="8" data-uid="ent0003" id="cluster_jettl Msg Create Event.lvlib"><path d="M8.5,6 L224.9004,6 A3.75,3.75 0 0 1 227.4004,8.5 L234.4004,28.2969 L255.5,28.2969 A2.5,2.5 0 0 1 258,30.7969 L258,167.69 A2.5,2.5 0 0 1 255.5,170.19 L8.5,170.19 A2.5,2.5 0 0 1 6,167.69 L6,8.5 A2.5,2.5 0 0 1 8.5,6" fill="none" style="stroke:#000000;stroke-width:1.5;"/><line style="stroke:#000000;stroke-width:1.5;" x1="6" x2="234.4004" y1="28.2969" y2="28.2969"/><text fill="#000000" font-family="sans-serif" font-size="14" font-weight="bold" lengthAdjust="spacing" textLength="215.4004" x="10" y="20.9951">jettl Msg Create Event.lvlib</text></g><!--cluster jettl.lvlib--><g class="cluster" data-entity="jettl.lvlib" data-source-line="15" data-uid="ent0005" id="cluster_jettl.lvlib"><path d="M21.5,194.19 L93.8398,194.19 A3.75,3.75 0 0 1 96.3398,196.69 L103.3398,216.4869 L279.5,216.4869 A2.5,2.5 0 0 1 282,218.9869 L282,290.69 A2.5,2.5 0 0 1 279.5,293.19 L21.5,293.19 A2.5,2.5 0 0 1 19,290.69 L19,196.69 A2.5,2.5 0 0 1 21.5,194.19" fill="none" style="stroke:#000000;stroke-width:1.5;"/><line style="stroke:#000000;stroke-width:1.5;" x1="19" x2="103.3398" y1="216.4869" y2="216.4869"/><text fill="#000000" font-family="sans-serif" font-size="14" font-weight="bold" lengthAdjust="spacing" textLength="71.3398" x="23" y="209.1851">jettl.lvlib</text></g><!--class Create Event Msg Strategy--><g class="entity" data-entity="Create Event Msg Strategy" data-source-line="8" data-uid="ent0002" id="entity_Create Event Msg Strategy"><rect fill="#FFFFFF" height="113.1875" rx="2.5" ry="2.5" style="stroke:#555555;stroke-width:0.5;" width="220.5283" x="21.74" y="41"/><rect fill="#808080" height="32" rx="2.5" ry="2.5" style="stroke:#808080;stroke-width:0.5;" width="220.5283" x="21.74" y="41"/><rect fill="#808080" height="2.5" style="stroke:#808080;stroke-width:0.5;" width="220.5283" x="21.74" y="70.5"/><rect fill="none" height="113.1875" rx="2.5" ry="2.5" style="stroke:#555555;stroke-width:0.5;" width="220.5283" x="21.74" y="41"/><ellipse cx="36.74" cy="57" fill="#ADD1B2" rx="11" ry="11" style="stroke:#181818;stroke-width:1;"/><path d="M39.7087,62.6406 Q39.1306,62.9375 38.49,63.0781 Q37.8494,63.2344 37.1462,63.2344 Q34.6462,63.2344 33.3181,61.5938 Q32.0056,59.9375 32.0056,56.8125 Q32.0056,53.6875 33.3181,52.0313 Q34.6462,50.375 37.1462,50.375 Q37.8494,50.375 38.49,50.5313 Q39.1462,50.6875 39.7087,50.9844 L39.7087,53.7031 Q39.0837,53.125 38.49,52.8594 Q37.8962,52.5781 37.2712,52.5781 Q35.9275,52.5781 35.24,53.6563 Q34.5525,54.7188 34.5525,56.8125 Q34.5525,58.9063 35.24,59.9844 Q35.9275,61.0469 37.2712,61.0469 Q37.8962,61.0469 38.49,60.7813 Q39.0837,60.5 39.7087,59.9219 L39.7087,62.6406 Z " fill="#000000"/><text fill="#000000" font-family="sans-serif" font-size="14" lengthAdjust="spacing" textLength="188.5283" x="50.74" y="61.8467">Create Event Msg Strategy</text><line style="stroke:#555555;stroke-width:0.5;" x1="22.74" x2="241.2683" y1="73" y2="73"/><rect fill="none" height="6" style="stroke:#C82930;stroke-width:1;" width="6" x="29.74" y="83.6484"/><text fill="#000000" font-family="sans-serif" font-size="14" lengthAdjust="spacing" textLength="163.9531" x="41.74" y="89.9951">Self Event Alias : String</text><rect fill="none" height="6" style="stroke:#C82930;stroke-width:1;" width="6" x="29.74" y="99.9453"/><text fill="#000000" font-family="sans-serif" font-size="14" lengthAdjust="spacing" textLength="112.3828" x="41.74" y="106.292">Event : LV Class</text><line style="stroke:#555555;stroke-width:0.5;" x1="22.74" x2="241.2683" y1="113.5938" y2="113.5938"/><rect fill="#F24D5C" height="6" style="stroke:#C82930;stroke-width:1;" width="6" x="29.74" y="124.2422"/><text fill="#000000" font-family="sans-serif" font-size="14" lengthAdjust="spacing" text-decoration="underline" textLength="33.3047" x="41.74" y="130.5889">Init()</text><rect fill="#F24D5C" height="6" style="stroke:#C82930;stroke-width:1;" width="6" x="29.74" y="140.5391"/><text fill="#000000" font-family="sans-serif" font-size="14" lengthAdjust="spacing" textLength="39.1836" x="41.74" y="146.8857">Msg()</text></g><!--class Msg Strategy--><g class="entity" data-entity="Msg Strategy" data-source-line="15" data-uid="ent0004" id="entity_Msg Strategy"><rect fill="#FFFFFF" height="48" rx="2.5" ry="2.5" style="stroke:#555555;stroke-width:0.5;" width="124.6953" x="141.65" y="229.19"/><rect fill="#808080" height="32" rx="2.5" ry="2.5" style="stroke:#808080;stroke-width:0.5;" width="124.6953" x="141.65" y="229.19"/><rect fill="#808080" height="2.5" style="stroke:#808080;stroke-width:0.5;" width="124.6953" x="141.65" y="258.69"/><rect fill="none" height="48" rx="2.5" ry="2.5" style="stroke:#555555;stroke-width:0.5;" width="124.6953" x="141.65" y="229.19"/><ellipse cx="156.65" cy="245.19" fill="#B4A7E5" rx="11" ry="11" style="stroke:#181818;stroke-width:1;"/><path d="M152.5719,240.9556 L152.5719,238.7994 L159.9625,238.7994 L159.9625,240.9556 L157.4938,240.9556 L157.4938,249.0338 L159.9625,249.0338 L159.9625,251.19 L152.5719,251.19 L152.5719,249.0338 L155.0406,249.0338 L155.0406,240.9556 L152.5719,240.9556 Z " fill="#000000"/><text fill="#000000" font-family="sans-serif" font-size="14" font-style="italic" lengthAdjust="spacing" textLength="92.6953" x="170.65" y="250.0367">Msg Strategy</text><line style="stroke:#555555;stroke-width:0.5;" x1="142.65" x2="265.3453" y1="261.19" y2="261.19"/><line style="stroke:#555555;stroke-width:0.5;" x1="142.65" x2="265.3453" y1="269.19" y2="269.19"/></g><!--class Event--><g class="entity" data-entity="Event" data-source-line="18" data-uid="ent0007" id="entity_Event"><rect fill="#FFFFFF" height="48" rx="2.5" ry="2.5" style="stroke:#555555;stroke-width:0.5;" width="72.1064" x="34.95" y="229.19"/><rect fill="#808080" height="32" rx="2.5" ry="2.5" style="stroke:#808080;stroke-width:0.5;" width="72.1064" x="34.95" y="229.19"/><rect fill="#808080" height="2.5" style="stroke:#808080;stroke-width:0.5;" width="72.1064" x="34.95" y="258.69"/><rect fill="none" height="48" rx="2.5" ry="2.5" style="stroke:#555555;stroke-width:0.5;" width="72.1064" x="34.95" y="229.19"/><ellipse cx="49.95" cy="245.19" fill="#ADD1B2" rx="11" ry="11" style="stroke:#181818;stroke-width:1;"/><path d="M52.9188,250.8306 Q52.3406,251.1275 51.7,251.2681 Q51.0594,251.4244 50.3563,251.4244 Q47.8563,251.4244 46.5281,249.7838 Q45.2156,248.1275 45.2156,245.0025 Q45.2156,241.8775 46.5281,240.2213 Q47.8563,238.565 50.3563,238.565 Q51.0594,238.565 51.7,238.7213 Q52.3563,238.8775 52.9188,239.1744 L52.9188,241.8931 Q52.2938,241.315 51.7,241.0494 Q51.1063,240.7681 50.4813,240.7681 Q49.1375,240.7681 48.45,241.8463 Q47.7625,242.9088 47.7625,245.0025 Q47.7625,247.0963 48.45,248.1744 Q49.1375,249.2369 50.4813,249.2369 Q51.1063,249.2369 51.7,248.9713 Q52.2938,248.69 52.9188,248.1119 L52.9188,250.8306 Z " fill="#000000"/><text fill="#000000" font-family="sans-serif" font-size="14" lengthAdjust="spacing" textLength="40.1064" x="63.95" y="250.0367">Event</text><line style="stroke:#555555;stroke-width:0.5;" x1="35.95" x2="106.0564" y1="261.19" y2="261.19"/><line style="stroke:#555555;stroke-width:0.5;" x1="35.95" x2="106.0564" y1="269.19" y2="269.19"/></g><!--reverse link Msg Strategy to Create Event Msg Strategy--><g class="link" data-entity-1="Msg Strategy" data-entity-2="Create Event Msg Strategy" data-source-line="15" data-uid="lnk6" id="link_Msg Strategy_Create Event Msg Strategy"><path codeLine="15" d="M185.5064,212.7435 C176.2664,193.0435 170.26,180.21 158.2,154.48" fill="none" id="Msg Strategy-backto-Create Event Msg Strategy" style="stroke:#181818;stroke-width:1;stroke-dasharray:7.0,7.0;"/><polygon fill="none" points="193.15,229.04,190.9385,210.1957,180.0742,215.2914,193.15,229.04" style="stroke:#181818;stroke-width:1;"/></g><!--reverse link Create Event Msg Strategy to Event--><g class="link" data-entity-1="Create Event Msg Strategy" data-entity-2="Event" data-source-line="18" data-uid="lnk8" id="link_Create Event Msg Strategy_Event"><path codeLine="18" d="M105.3802,165.6324 C95.1602,191.3624 88.02,209.34 80.19,229.04" fill="none" id="Create Event Msg Strategy-backto-Event" style="stroke:#181818;stroke-width:1;"/><polygon fill="#181818" points="109.81,154.48,103.8776,158.5796,105.3802,165.6324,111.3126,161.5328,109.81,154.48" style="stroke:#181818;stroke-width:1;"/></g><!--SRC=[dP5DIyGm48Rlyok6Ub6XPI-252zQN1JqLF2UJQSrRfgKP5oGsFzkcXRs2ppi33dCvE6TTn9FZ4Rqv0SXgQP1EC7MOGb-gynKzLXfuVsJaDlEsM_JL5P7u6gTuWophY6t87SfJf6rDRm0gnIdm0k9g74sy7ur9HpGR8TuS6EPRO-DSYHPMGDoKi7iYvWrlliEAqU22PztPBZGEwqsvM4hCJN7pQdxoJ10Q1NfPiIy9jqkpADMmcCvSSfqUsI-BV7jOtOFmRDW9KSCFV6ddPXNe_Zw1lQDE33MCC9iSl5qREFXjoWkNWAKON9j_5FyPqGO0Iv-fjiyFzPEK0O0Vm00]--></g></svg>