<svg xmlns="http://www.w3.org/2000/svg" xmlns:xlink="http://www.w3.org/1999/xlink" contentStyleType="text/css" data-diagram-type="CLASS" height="370px" preserveAspectRatio="none" style="width:249px;height:370px;background:#FFFFFF;" version="1.1" viewBox="0 0 249 370" width="249px" zoomAndPan="magnify"><defs/><g><!--cluster jettl.lvlib--><g class="cluster" data-entity="jettl.lvlib" data-source-line="8" data-uid="ent0003" id="cluster_jettl.lvlib"><path d="M8.5,6 L80.8398,6 A3.75,3.75 0 0 1 83.3398,8.5 L90.3398,28.2969 L239.5,28.2969 A2.5,2.5 0 0 1 242,30.7969 L242,360.8 A2.5,2.5 0 0 1 239.5,363.3 L8.5,363.3 A2.5,2.5 0 0 1 6,360.8 L6,8.5 A2.5,2.5 0 0 1 8.5,6" fill="none" style="stroke:#000000;stroke-width:1.5;"/><line style="stroke:#000000;stroke-width:1.5;" x1="6" x2="90.3398" y1="28.2969" y2="28.2969"/><text fill="#000000" font-family="sans-serif" font-size="14" font-weight="bold" lengthAdjust="spacing" textLength="71.3398" x="10" y="20.9951">jettl.lvlib</text></g><!--cluster Base Event.lvlib--><g class="cluster" data-entity="Base Event.lvlib" data-source-line="8" data-uid="ent0004" id="cluster_Base Event.lvlib"><path d="M32.5,49 L160.0264,49 A3.75,3.75 0 0 1 162.5264,51.5 L169.5264,71.2969 L215.5,71.2969 A2.5,2.5 0 0 1 218,73.7969 L218,336.8 A2.5,2.5 0 0 1 215.5,339.3 L32.5,339.3 A2.5,2.5 0 0 1 30,336.8 L30,51.5 A2.5,2.5 0 0 1 32.5,49" fill="none" style="stroke:#000000;stroke-width:1.5;"/><line style="stroke:#000000;stroke-width:1.5;" x1="30" x2="169.5264" y1="71.2969" y2="71.2969"/><text fill="#000000" font-family="sans-serif" font-size="14" font-weight="bold" lengthAdjust="spacing" textLength="126.5264" x="34" y="63.9951">Base Event.lvlib</text></g><!--cluster State.lvlib--><g class="cluster" data-entity="State.lvlib" data-source-line="8" data-uid="ent0005" id="cluster_State.lvlib"><path d="M56.5,92 L138.7725,92 A3.75,3.75 0 0 1 141.2725,94.5 L148.2725,114.2969 L191.5,114.2969 A2.5,2.5 0 0 1 194,116.7969 L194,312.8 A2.5,2.5 0 0 1 191.5,315.3 L56.5,315.3 A2.5,2.5 0 0 1 54,312.8 L54,94.5 A2.5,2.5 0 0 1 56.5,92" fill="none" style="stroke:#000000;stroke-width:1.5;"/><line style="stroke:#000000;stroke-width:1.5;" x1="54" x2="148.2725" y1="114.2969" y2="114.2969"/><text fill="#000000" font-family="sans-serif" font-size="14" font-weight="bold" lengthAdjust="spacing" textLength="81.2725" x="58" y="106.9951">State.lvlib</text></g><!--class Error State--><g class="entity" data-entity="Error State" data-source-line="8" data-uid="ent0002" id="entity_Error State"><rect fill="#FFFFFF" height="64.2969" rx="2.5" ry="2.5" style="stroke:#555555;stroke-width:0.5;" width="108.1865" x="69.91" y="235"/><rect fill="#808080" height="32" rx="2.5" ry="2.5" style="stroke:#808080;stroke-width:0.5;" width="108.1865" x="69.91" y="235"/><rect fill="#808080" height="2.5" style="stroke:#808080;stroke-width:0.5;" width="108.1865" x="69.91" y="264.5"/><rect fill="none" height="64.2969" rx="2.5" ry="2.5" style="stroke:#555555;stroke-width:0.5;" width="108.1865" x="69.91" y="235"/><ellipse cx="84.91" cy="251" fill="#ADD1B2" rx="11" ry="11" style="stroke:#181818;stroke-width:1;"/><path d="M87.8788,256.6406 Q87.3006,256.9375 86.66,257.0781 Q86.0194,257.2344 85.3163,257.2344 Q82.8163,257.2344 81.4881,255.5938 Q80.1756,253.9375 80.1756,250.8125 Q80.1756,247.6875 81.4881,246.0313 Q82.8163,244.375 85.3163,244.375 Q86.0194,244.375 86.66,244.5313 Q87.3163,244.6875 87.8788,244.9844 L87.8788,247.7031 Q87.2538,247.125 86.66,246.8594 Q86.0663,246.5781 85.4413,246.5781 Q84.0975,246.5781 83.41,247.6563 Q82.7225,248.7188 82.7225,250.8125 Q82.7225,252.9063 83.41,253.9844 Q84.0975,255.0469 85.4413,255.0469 Q86.0663,255.0469 86.66,254.7813 Q87.2538,254.5 87.8788,253.9219 L87.8788,256.6406 Z " fill="#000000"/><text fill="#000000" font-family="sans-serif" font-size="14" lengthAdjust="spacing" textLength="76.1865" x="98.91" y="255.8467">Error State</text><line style="stroke:#555555;stroke-width:0.5;" x1="70.91" x2="177.0965" y1="267" y2="267"/><line style="stroke:#555555;stroke-width:0.5;" x1="70.91" x2="177.0965" y1="275" y2="275"/><rect fill="#F24D5C" height="6" style="stroke:#C82930;stroke-width:1;" width="6" x="77.91" y="285.6484"/><text fill="#000000" font-family="sans-serif" font-size="14" lengthAdjust="spacing" textLength="60.293" x="89.91" y="291.9951">Handle()</text></g><!--class State--><g class="entity" data-entity="State" data-source-line="12" data-uid="ent0006" id="entity_State"><rect fill="#FFFFFF" height="48" rx="2.5" ry="2.5" style="stroke:#555555;stroke-width:0.5;" width="69.0576" x="89.47" y="127"/><rect fill="#808080" height="32" rx="2.5" ry="2.5" style="stroke:#808080;stroke-width:0.5;" width="69.0576" x="89.47" y="127"/><rect fill="#808080" height="2.5" style="stroke:#808080;stroke-width:0.5;" width="69.0576" x="89.47" y="156.5"/><rect fill="none" height="48" rx="2.5" ry="2.5" style="stroke:#555555;stroke-width:0.5;" width="69.0576" x="89.47" y="127"/><ellipse cx="104.47" cy="143" fill="#B4A7E5" rx="11" ry="11" style="stroke:#181818;stroke-width:1;"/><path d="M100.3919,138.7656 L100.3919,136.6094 L107.7825,136.6094 L107.7825,138.7656 L105.3138,138.7656 L105.3138,146.8438 L107.7825,146.8438 L107.7825,149 L100.3919,149 L100.3919,146.8438 L102.8606,146.8438 L102.8606,138.7656 L100.3919,138.7656 Z " fill="#000000"/><text fill="#000000" font-family="sans-serif" font-size="14" font-style="italic" lengthAdjust="spacing" textLength="37.0576" x="118.47" y="147.8467">State</text><line style="stroke:#555555;stroke-width:0.5;" x1="90.47" x2="157.5276" y1="159" y2="159"/><line style="stroke:#555555;stroke-width:0.5;" x1="90.47" x2="157.5276" y1="167" y2="167"/></g><!--reverse link State to Error State--><g class="link" data-entity-1="State" data-entity-2="Error State" data-source-line="12" data-uid="lnk7" id="link_State_Error State"><path codeLine="12" d="M124,193.38 C124,210.47 124,215.84 124,234.58" fill="none" id="State-backto-Error State" style="stroke:#181818;stroke-width:1;stroke-dasharray:7.0,7.0;"/><polygon fill="none" points="124,175.38,118,193.38,130,193.38,124,175.38" style="stroke:#181818;stroke-width:1;"/></g><!--SRC=[dP4nYm8n48Nx-HM3DcVXOYCSOgKezlw2SJFUvSncbibei-v_l-oIuj36yuN0vF7nta0I6qPgEBLKyv5RKZ9HN46w-3Yy6jm6Icb3zULBvHhTLa86fljHJvYeOot8SjGZifTe1LYCUWGEJ3dZgV1pCHpuGvkq-U99pAH1vvLhynAX7b9myiDceGgtu4-h3IN6tOsZ5UDeP5pcdMek69q9Tj0rRD_YUfmVABh07pE07bwFAq7hUrMzkGJuQApd_2FuxzgkXwnV]--></g></svg>