<svg xmlns="http://www.w3.org/2000/svg" xmlns:xlink="http://www.w3.org/1999/xlink" contentStyleType="text/css" data-diagram-type="CLASS" height="798px" preserveAspectRatio="none" style="width:269px;height:798px;background:#FFFFFF;" version="1.1" viewBox="0 0 269 798" width="269px" zoomAndPan="magnify"><defs/><g><!--cluster Hello World Queue.lvlib--><g class="cluster" data-entity="Hello World Queue.lvlib" data-source-line="8" data-uid="ent0003" id="cluster_Hello World Queue.lvlib"><path d="M8.5,129 L196.1484,129 A3.75,3.75 0 0 1 198.6484,131.5 L205.6484,151.2969 L259.5,151.2969 A2.5,2.5 0 0 1 262,153.7969 L262,665.52 A2.5,2.5 0 0 1 259.5,668.02 L8.5,668.02 A2.5,2.5 0 0 1 6,665.52 L6,131.5 A2.5,2.5 0 0 1 8.5,129" fill="none" style="stroke:#000000;stroke-width:1.5;"/><line style="stroke:#000000;stroke-width:1.5;" x1="6" x2="205.6484" y1="151.2969" y2="151.2969"/><text fill="#000000" font-family="sans-serif" font-size="14" font-weight="bold" lengthAdjust="spacing" textLength="186.6484" x="10" y="143.9951">Hello World Queue.lvlib</text></g><!--cluster jettl Msg Pop Up.lvlib--><g class="cluster" data-entity="jettl Msg Pop Up.lvlib" data-source-line="38" data-uid="ent0005" id="cluster_jettl Msg Pop Up.lvlib"><path d="M79.5,6 L250.0381,6 A3.75,3.75 0 0 1 252.5381,8.5 L259.5381,28.2969 L259.5,28.2969 A2.5,2.5 0 0 1 262,30.7969 L262,102.5 A2.5,2.5 0 0 1 259.5,105 L79.5,105 A2.5,2.5 0 0 1 77,102.5 L77,8.5 A2.5,2.5 0 0 1 79.5,6" fill="none" style="stroke:#000000;stroke-width:1.5;"/><line style="stroke:#000000;stroke-width:1.5;" x1="77" x2="259.5381" y1="28.2969" y2="28.2969"/><text fill="#000000" font-family="sans-serif" font-size="14" font-weight="bold" lengthAdjust="spacing" textLength="169.5381" x="81" y="20.9951">jettl Msg Pop Up.lvlib</text></g><!--cluster jettl.lvlib--><g class="cluster" data-entity="jettl.lvlib" data-source-line="40" data-uid="ent0008" id="cluster_jettl.lvlib"><path d="M81.5,692.02 L153.8398,692.02 A3.75,3.75 0 0 1 156.3398,694.52 L163.3398,714.3169 L186.5,714.3169 A2.5,2.5 0 0 1 189,716.8169 L189,788.52 A2.5,2.5 0 0 1 186.5,791.02 L81.5,791.02 A2.5,2.5 0 0 1 79,788.52 L79,694.52 A2.5,2.5 0 0 1 81.5,692.02" fill="none" style="stroke:#000000;stroke-width:1.5;"/><line style="stroke:#000000;stroke-width:1.5;" x1="79" x2="163.3398" y1="714.3169" y2="714.3169"/><text fill="#000000" font-family="sans-serif" font-size="14" font-weight="bold" lengthAdjust="spacing" textLength="71.3398" x="83" y="707.0151">jettl.lvlib</text></g><!--class Hello World Queue--><g class="entity" data-entity="Hello World Queue" data-source-line="8" data-uid="ent0002" id="entity_Hello World Queue"><rect fill="#FFFFFF" height="488.0156" rx="2.5" ry="2.5" style="stroke:#555555;stroke-width:0.5;" width="224.0986" x="21.95" y="164"/><rect fill="#808080" height="32" rx="2.5" ry="2.5" style="stroke:#808080;stroke-width:0.5;" width="224.0986" x="21.95" y="164"/><rect fill="#808080" height="2.5" style="stroke:#808080;stroke-width:0.5;" width="224.0986" x="21.95" y="193.5"/><rect fill="none" height="488.0156" rx="2.5" ry="2.5" style="stroke:#555555;stroke-width:0.5;" width="224.0986" x="21.95" y="164"/><ellipse cx="64.3011" cy="180" fill="#ADD1B2" rx="11" ry="11" style="stroke:#181818;stroke-width:1;"/><path d="M67.2699,185.6406 Q66.6917,185.9375 66.0511,186.0781 Q65.4105,186.2344 64.7074,186.2344 Q62.2074,186.2344 60.8792,184.5938 Q59.5667,182.9375 59.5667,179.8125 Q59.5667,176.6875 60.8792,175.0313 Q62.2074,173.375 64.7074,173.375 Q65.4105,173.375 66.0511,173.5313 Q66.7074,173.6875 67.2699,173.9844 L67.2699,176.7031 Q66.6449,176.125 66.0511,175.8594 Q65.4574,175.5781 64.8324,175.5781 Q63.4886,175.5781 62.8011,176.6563 Q62.1136,177.7188 62.1136,179.8125 Q62.1136,181.9063 62.8011,182.9844 Q63.4886,184.0469 64.8324,184.0469 Q65.4574,184.0469 66.0511,183.7813 Q66.6449,183.5 67.2699,182.9219 L67.2699,185.6406 Z " fill="#000000"/><text fill="#000000" font-family="sans-serif" font-size="14" lengthAdjust="spacing" textLength="131.3184" x="84.3792" y="184.8467">Hello World Queue</text><line style="stroke:#555555;stroke-width:0.5;" x1="22.95" x2="245.0486" y1="196" y2="196"/><rect fill="none" height="6" style="stroke:#C82930;stroke-width:1;" width="6" x="29.95" y="206.6484"/><text fill="#000000" font-family="sans-serif" font-size="14" lengthAdjust="spacing" textLength="118.2686" x="41.95" y="212.9951">Queue : LV Class</text><line style="stroke:#555555;stroke-width:0.5;" x1="22.95" x2="245.0486" y1="220.2969" y2="220.2969"/><ellipse cx="32.95" cy="233.9453" fill="#84BE84" rx="3" ry="3" style="stroke:#038048;stroke-width:1;"/><text fill="#000000" font-family="sans-serif" font-size="14" lengthAdjust="spacing" textLength="51.6729" x="41.95" y="237.292">Setup()</text><ellipse cx="32.95" cy="250.2422" fill="#84BE84" rx="3" ry="3" style="stroke:#038048;stroke-width:1;"/><text fill="#000000" font-family="sans-serif" font-size="14" lengthAdjust="spacing" textLength="80.1992" x="41.95" y="253.5889">Teardown()</text><ellipse cx="32.95" cy="266.5391" fill="#84BE84" rx="3" ry="3" style="stroke:#038048;stroke-width:1;"/><text fill="#000000" font-family="sans-serif" font-size="14" lengthAdjust="spacing" textLength="94.001" x="41.95" y="269.8857">Merge Error()</text><ellipse cx="32.95" cy="282.8359" fill="#84BE84" rx="3" ry="3" style="stroke:#038048;stroke-width:1;"/><text fill="#000000" font-family="sans-serif" font-size="14" lengthAdjust="spacing" textLength="110.8721" x="41.95" y="286.1826">Override Error()</text><ellipse cx="32.95" cy="299.1328" fill="#84BE84" rx="3" ry="3" style="stroke:#038048;stroke-width:1;"/><text fill="#000000" font-family="sans-serif" font-size="14" lengthAdjust="spacing" textLength="108.1924" x="41.95" y="302.4795">Create Queue()</text><ellipse cx="32.95" cy="315.4297" fill="#84BE84" rx="3" ry="3" style="stroke:#038048;stroke-width:1;"/><text fill="#000000" font-family="sans-serif" font-size="14" lengthAdjust="spacing" textLength="102.3066" x="41.95" y="318.7764">Create Event()</text><ellipse cx="32.95" cy="331.7266" fill="#84BE84" rx="3" ry="3" style="stroke:#038048;stroke-width:1;"/><text fill="#000000" font-family="sans-serif" font-size="14" lengthAdjust="spacing" textLength="120.3604" x="41.95" y="335.0732">Last Ack Queue()</text><ellipse cx="32.95" cy="348.0234" fill="#84BE84" rx="3" ry="3" style="stroke:#038048;stroke-width:1;"/><text fill="#000000" font-family="sans-serif" font-size="14" lengthAdjust="spacing" textLength="114.4746" x="41.95" y="351.3701">Last Ack Event()</text><ellipse cx="32.95" cy="364.3203" fill="#84BE84" rx="3" ry="3" style="stroke:#038048;stroke-width:1;"/><text fill="#000000" font-family="sans-serif" font-size="14" lengthAdjust="spacing" textLength="60.4023" x="41.95" y="367.667">Pop Up()</text><ellipse cx="32.95" cy="380.6172" fill="#84BE84" rx="3" ry="3" style="stroke:#038048;stroke-width:1;"/><text fill="#000000" font-family="sans-serif" font-size="14" lengthAdjust="spacing" textLength="75.0039" x="41.95" y="383.9639">Get Error()</text><ellipse cx="32.95" cy="396.9141" fill="#84BE84" rx="3" ry="3" style="stroke:#038048;stroke-width:1;"/><text fill="#000000" font-family="sans-serif" font-size="14" lengthAdjust="spacing" textLength="125.3643" x="41.95" y="400.2607">Self Queue Alias()</text><ellipse cx="32.95" cy="413.2109" fill="#84BE84" rx="3" ry="3" style="stroke:#038048;stroke-width:1;"/><text fill="#000000" font-family="sans-serif" font-size="14" lengthAdjust="spacing" textLength="87.6846" x="41.95" y="416.5576">Self Queue()</text><ellipse cx="32.95" cy="429.5078" fill="#84BE84" rx="3" ry="3" style="stroke:#038048;stroke-width:1;"/><text fill="#000000" font-family="sans-serif" font-size="14" lengthAdjust="spacing" textLength="151.5801" x="41.95" y="432.8545">Creator Queue Alias()</text><ellipse cx="32.95" cy="445.8047" fill="#84BE84" rx="3" ry="3" style="stroke:#038048;stroke-width:1;"/><text fill="#000000" font-family="sans-serif" font-size="14" lengthAdjust="spacing" textLength="113.9004" x="41.95" y="449.1514">Creator Queue()</text><ellipse cx="32.95" cy="462.1016" fill="#84BE84" rx="3" ry="3" style="stroke:#038048;stroke-width:1;"/><text fill="#000000" font-family="sans-serif" font-size="14" lengthAdjust="spacing" textLength="124.373" x="41.95" y="465.4482">Created Queues()</text><ellipse cx="32.95" cy="478.3984" fill="#84BE84" rx="3" ry="3" style="stroke:#038048;stroke-width:1;"/><text fill="#000000" font-family="sans-serif" font-size="14" lengthAdjust="spacing" textLength="167.5488" x="41.95" y="481.7451">Status Created Events()</text><ellipse cx="32.95" cy="494.6953" fill="#84BE84" rx="3" ry="3" style="stroke:#038048;stroke-width:1;"/><text fill="#000000" font-family="sans-serif" font-size="14" lengthAdjust="spacing" textLength="132.9521" x="41.95" y="498.042">Is Created Queue()</text><ellipse cx="32.95" cy="510.9922" fill="#84BE84" rx="3" ry="3" style="stroke:#038048;stroke-width:1;"/><text fill="#000000" font-family="sans-serif" font-size="14" lengthAdjust="spacing" textLength="118.4873" x="41.95" y="514.3389">Created Events()</text><ellipse cx="32.95" cy="527.2891" fill="#84BE84" rx="3" ry="3" style="stroke:#038048;stroke-width:1;"/><text fill="#000000" font-family="sans-serif" font-size="14" lengthAdjust="spacing" textLength="173.4346" x="41.95" y="530.6357">Status Created Queues()</text><ellipse cx="32.95" cy="543.5859" fill="#84BE84" rx="3" ry="3" style="stroke:#038048;stroke-width:1;"/><text fill="#000000" font-family="sans-serif" font-size="14" lengthAdjust="spacing" textLength="127.0664" x="41.95" y="546.9326">Is Created Event()</text><ellipse cx="32.95" cy="559.8828" fill="#84BE84" rx="3" ry="3" style="stroke:#038048;stroke-width:1;"/><text fill="#000000" font-family="sans-serif" font-size="14" lengthAdjust="spacing" textLength="192.2129" x="41.95" y="563.2295">Teardown Created Events()</text><ellipse cx="32.95" cy="576.1797" fill="#84BE84" rx="3" ry="3" style="stroke:#038048;stroke-width:1;"/><text fill="#000000" font-family="sans-serif" font-size="14" lengthAdjust="spacing" textLength="198.0986" x="41.95" y="579.5264">Teardown Created Queues()</text><ellipse cx="32.95" cy="592.4766" fill="#84BE84" rx="3" ry="3" style="stroke:#038048;stroke-width:1;"/><text fill="#000000" font-family="sans-serif" font-size="14" lengthAdjust="spacing" textLength="75.0176" x="41.95" y="595.8232">Decorate()</text><ellipse cx="32.95" cy="608.7734" fill="#84BE84" rx="3" ry="3" style="stroke:#038048;stroke-width:1;"/><text fill="#000000" font-family="sans-serif" font-size="14" lengthAdjust="spacing" textLength="66.3633" x="41.95" y="612.1201">Receive()</text><ellipse cx="32.95" cy="625.0703" fill="#84BE84" rx="3" ry="3" style="stroke:#038048;stroke-width:1;"/><text fill="#000000" font-family="sans-serif" font-size="14" lengthAdjust="spacing" textLength="60.293" x="41.95" y="628.417">Handle()</text><ellipse cx="32.95" cy="641.3672" fill="#84BE84" rx="3" ry="3" style="stroke:#038048;stroke-width:1;"/><text fill="#000000" font-family="sans-serif" font-size="14" lengthAdjust="spacing" textLength="65.707" x="41.95" y="644.7139">Destroy()</text></g><!--class Pop Up--><g class="entity" data-entity="Pop Up" data-source-line="38" data-uid="ent0004" id="entity_Pop Up"><rect fill="#FFFFFF" height="48" rx="2.5" ry="2.5" style="stroke:#555555;stroke-width:0.5;" width="81.4785" x="93.26" y="41"/><rect fill="#808080" height="32" rx="2.5" ry="2.5" style="stroke:#808080;stroke-width:0.5;" width="81.4785" x="93.26" y="41"/><rect fill="#808080" height="2.5" style="stroke:#808080;stroke-width:0.5;" width="81.4785" x="93.26" y="70.5"/><rect fill="none" height="48" rx="2.5" ry="2.5" style="stroke:#555555;stroke-width:0.5;" width="81.4785" x="93.26" y="41"/><ellipse cx="108.26" cy="57" fill="#B4A7E5" rx="11" ry="11" style="stroke:#181818;stroke-width:1;"/><path d="M104.1819,52.7656 L104.1819,50.6094 L111.5725,50.6094 L111.5725,52.7656 L109.1038,52.7656 L109.1038,60.8438 L111.5725,60.8438 L111.5725,63 L104.1819,63 L104.1819,60.8438 L106.6506,60.8438 L106.6506,52.7656 L104.1819,52.7656 Z " fill="#000000"/><text fill="#000000" font-family="sans-serif" font-size="14" font-style="italic" lengthAdjust="spacing" textLength="49.4785" x="122.26" y="61.8467">Pop Up</text><line style="stroke:#555555;stroke-width:0.5;" x1="94.26" x2="173.7385" y1="73" y2="73"/><line style="stroke:#555555;stroke-width:0.5;" x1="94.26" x2="173.7385" y1="81" y2="81"/></g><!--class Queue--><g class="entity" data-entity="Queue" data-source-line="40" data-uid="ent0007" id="entity_Queue"><rect fill="#FFFFFF" height="48" rx="2.5" ry="2.5" style="stroke:#555555;stroke-width:0.5;" width="77.9922" x="95" y="727.02"/><rect fill="#808080" height="32" rx="2.5" ry="2.5" style="stroke:#808080;stroke-width:0.5;" width="77.9922" x="95" y="727.02"/><rect fill="#808080" height="2.5" style="stroke:#808080;stroke-width:0.5;" width="77.9922" x="95" y="756.52"/><rect fill="none" height="48" rx="2.5" ry="2.5" style="stroke:#555555;stroke-width:0.5;" width="77.9922" x="95" y="727.02"/><ellipse cx="110" cy="743.02" fill="#B4A7E5" rx="11" ry="11" style="stroke:#181818;stroke-width:1;"/><path d="M105.9219,738.7856 L105.9219,736.6294 L113.3125,736.6294 L113.3125,738.7856 L110.8438,738.7856 L110.8438,746.8638 L113.3125,746.8638 L113.3125,749.02 L105.9219,749.02 L105.9219,746.8638 L108.3906,746.8638 L108.3906,738.7856 L105.9219,738.7856 Z " fill="#000000"/><text fill="#000000" font-family="sans-serif" font-size="14" font-style="italic" lengthAdjust="spacing" textLength="45.9922" x="124" y="747.8667">Queue</text><line style="stroke:#555555;stroke-width:0.5;" x1="96" x2="171.9922" y1="759.02" y2="759.02"/><line style="stroke:#555555;stroke-width:0.5;" x1="96" x2="171.9922" y1="767.02" y2="767.02"/></g><!--reverse link Pop Up to Hello World Queue--><g class="link" data-entity-1="Pop Up" data-entity-2="Hello World Queue" data-source-line="38" data-uid="lnk6" id="link_Pop Up_Hello World Queue"><path codeLine="38" d="M134,107.44 C134,125.2 134,133.64 134,163.82" fill="none" id="Pop Up-backto-Hello World Queue" style="stroke:#181818;stroke-width:1;stroke-dasharray:7.0,7.0;"/><polygon fill="none" points="134,89.44,128,107.44,140,107.44,134,89.44" style="stroke:#181818;stroke-width:1;"/></g><!--reverse link Queue to Hello World Queue--><g class="link" data-entity-1="Queue" data-entity-2="Hello World Queue" data-source-line="40" data-uid="lnk9" id="link_Queue_Hello World Queue"><path codeLine="40" d="M124.895,708.7106 C122.665,690.9706 123.31,682.43 122.34,652.3" fill="none" id="Queue-backto-Hello World Queue" style="stroke:#181818;stroke-width:1;stroke-dasharray:7.0,7.0;"/><polygon fill="none" points="127.14,726.57,130.8481,707.9622,118.9418,709.4589,127.14,726.57" style="stroke:#181818;stroke-width:1;"/></g><!--reverse link Hello World Queue to Queue--><g class="link" data-entity-1="Hello World Queue" data-entity-2="Queue" data-source-line="43" data-uid="lnk10" id="link_Hello World Queue_Queue"><path codeLine="43" d="M145.934,664.2931 C144.914,694.4231 143.63,708.83 141.26,726.57" fill="none" id="Hello World Queue-backto-Queue" style="stroke:#181818;stroke-width:1;"/><polygon fill="#181818" points="146.34,652.3,142.1393,658.1612,145.934,664.2931,150.1347,658.4319,146.34,652.3" style="stroke:#181818;stroke-width:1;"/></g><!--SRC=[fLHDJm8n4BttLqpmuaSWNamCyOA8GeBn0p_ETNV0Icd9T1PZqFzksLsKxXQDiPizTDwRzwOxdNN8OEGCtLmcECAv9CcMe2tSL9dLRWPTBPqxbSbqGZOpQTTgJzWvprUDPYb5AYb7-QfIpgtXad2OhogXZz9hr0oF3rUFs62pdViNdYopdK6g21DMreXafGADFcfjuT6IJk4cmmnRUg7LKxiMRy1IBCSATVe1pJm2RHW-5DM8vGpvsNheO8ISpNVtDY9tA2crhoO8NY9D47f4beBurGA9L1g3keIIiQWc1lGMQ3W0Xj8nT99f9ESBgcTT-ozs7nxXmb-0Ua4ZrED26ZfQIRS5hDVgExKjBS0ZfooxKV5YoPc3DIC_KiWOVAFRbIDv5UM8zw3Y6stzJwNLE16JCqoidxcmx5jCK2t2M5-QL6Cbrp7PDnyJ7wBnWimQBjq4YZQNrxtODE3alTNwor08PHXfx7yBy9lqSkrUnikf-hTZAETTn5-6Uh_PZEa88Ju1]--></g></svg>