<svg xmlns="http://www.w3.org/2000/svg" xmlns:xlink="http://www.w3.org/1999/xlink" contentStyleType="text/css" data-diagram-type="CLASS" height="267px" preserveAspectRatio="none" style="width:223px;height:267px;background:#FFFFFF;" version="1.1" viewBox="0 0 223 267" width="223px" zoomAndPan="magnify"><defs/><g><!--cluster jettl Msg Pop Up.lvlib--><g class="cluster" data-entity="jettl Msg Pop Up.lvlib" data-source-line="8" data-uid="ent0003" id="cluster_jettl Msg Pop Up.lvlib"><path d="M8.5,129 L179.0381,129 A3.75,3.75 0 0 1 181.5381,131.5 L188.5381,151.2969 L213.5,151.2969 A2.5,2.5 0 0 1 216,153.7969 L216,258.09 A2.5,2.5 0 0 1 213.5,260.59 L8.5,260.59 A2.5,2.5 0 0 1 6,258.09 L6,131.5 A2.5,2.5 0 0 1 8.5,129" fill="none" style="stroke:#000000;stroke-width:1.5;"/><line style="stroke:#000000;stroke-width:1.5;" x1="6" x2="188.5381" y1="151.2969" y2="151.2969"/><text fill="#000000" font-family="sans-serif" font-size="14" font-weight="bold" lengthAdjust="spacing" textLength="169.5381" x="10" y="143.9951">jettl Msg Pop Up.lvlib</text></g><!--cluster jettl.lvlib--><g class="cluster" data-entity="jettl.lvlib" data-source-line="13" data-uid="ent0005" id="cluster_jettl.lvlib"><path d="M35.5,6 L107.8398,6 A3.75,3.75 0 0 1 110.3398,8.5 L117.3398,28.2969 L186.5,28.2969 A2.5,2.5 0 0 1 189,30.7969 L189,102.5 A2.5,2.5 0 0 1 186.5,105 L35.5,105 A2.5,2.5 0 0 1 33,102.5 L33,8.5 A2.5,2.5 0 0 1 35.5,6" fill="none" style="stroke:#000000;stroke-width:1.5;"/><line style="stroke:#000000;stroke-width:1.5;" x1="33" x2="117.3398" y1="28.2969" y2="28.2969"/><text fill="#000000" font-family="sans-serif" font-size="14" font-weight="bold" lengthAdjust="spacing" textLength="71.3398" x="37" y="20.9951">jettl.lvlib</text></g><!--class Pop Up Msg Strategy--><g class="entity" data-entity="Pop Up Msg Strategy" data-source-line="8" data-uid="ent0002" id="entity_Pop Up Msg Strategy"><rect fill="#FFFFFF" height="80.5938" rx="2.5" ry="2.5" style="stroke:#555555;stroke-width:0.5;" width="178.624" x="21.69" y="164"/><rect fill="#808080" height="32" rx="2.5" ry="2.5" style="stroke:#808080;stroke-width:0.5;" width="178.624" x="21.69" y="164"/><rect fill="#808080" height="2.5" style="stroke:#808080;stroke-width:0.5;" width="178.624" x="21.69" y="193.5"/><rect fill="none" height="80.5938" rx="2.5" ry="2.5" style="stroke:#555555;stroke-width:0.5;" width="178.624" x="21.69" y="164"/><ellipse cx="36.69" cy="180" fill="#ADD1B2" rx="11" ry="11" style="stroke:#181818;stroke-width:1;"/><path d="M39.6588,185.6406 Q39.0806,185.9375 38.44,186.0781 Q37.7994,186.2344 37.0963,186.2344 Q34.5963,186.2344 33.2681,184.5937 Q31.9556,182.9375 31.9556,179.8125 Q31.9556,176.6875 33.2681,175.0312 Q34.5963,173.375 37.0963,173.375 Q37.7994,173.375 38.44,173.5312 Q39.0963,173.6875 39.6588,173.9844 L39.6588,176.7031 Q39.0338,176.125 38.44,175.8594 Q37.8463,175.5781 37.2213,175.5781 Q35.8775,175.5781 35.19,176.6562 Q34.5025,177.7187 34.5025,179.8125 Q34.5025,181.9062 35.19,182.9844 Q35.8775,184.0469 37.2213,184.0469 Q37.8463,184.0469 38.44,183.7812 Q39.0338,183.5 39.6588,182.9219 L39.6588,185.6406 Z " fill="#000000"/><text fill="#000000" font-family="sans-serif" font-size="14" lengthAdjust="spacing" textLength="146.624" x="50.69" y="184.8467">Pop Up Msg Strategy</text><line style="stroke:#555555;stroke-width:0.5;" x1="22.69" x2="199.314" y1="196" y2="196"/><line style="stroke:#555555;stroke-width:0.5;" x1="22.69" x2="199.314" y1="204" y2="204"/><rect fill="#F24D5C" height="6" style="stroke:#C82930;stroke-width:1;" width="6" x="29.69" y="214.6484"/><text fill="#000000" font-family="sans-serif" font-size="14" lengthAdjust="spacing" text-decoration="underline" textLength="33.3047" x="41.69" y="220.9951">Init()</text><rect fill="#F24D5C" height="6" style="stroke:#C82930;stroke-width:1;" width="6" x="29.69" y="230.9453"/><text fill="#000000" font-family="sans-serif" font-size="14" lengthAdjust="spacing" textLength="39.1836" x="41.69" y="237.292">Msg()</text></g><!--class Msg Strategy--><g class="entity" data-entity="Msg Strategy" data-source-line="13" data-uid="ent0004" id="entity_Msg Strategy"><rect fill="#FFFFFF" height="48" rx="2.5" ry="2.5" style="stroke:#555555;stroke-width:0.5;" width="124.6953" x="48.65" y="41"/><rect fill="#808080" height="32" rx="2.5" ry="2.5" style="stroke:#808080;stroke-width:0.5;" width="124.6953" x="48.65" y="41"/><rect fill="#808080" height="2.5" style="stroke:#808080;stroke-width:0.5;" width="124.6953" x="48.65" y="70.5"/><rect fill="none" height="48" rx="2.5" ry="2.5" style="stroke:#555555;stroke-width:0.5;" width="124.6953" x="48.65" y="41"/><ellipse cx="63.65" cy="57" fill="#B4A7E5" rx="11" ry="11" style="stroke:#181818;stroke-width:1;"/><path d="M59.5719,52.7656 L59.5719,50.6094 L66.9625,50.6094 L66.9625,52.7656 L64.4938,52.7656 L64.4938,60.8437 L66.9625,60.8437 L66.9625,63 L59.5719,63 L59.5719,60.8437 L62.0406,60.8437 L62.0406,52.7656 L59.5719,52.7656 Z " fill="#000000"/><text fill="#000000" font-family="sans-serif" font-size="14" font-style="italic" lengthAdjust="spacing" textLength="92.6953" x="77.65" y="61.8467">Msg Strategy</text><line style="stroke:#555555;stroke-width:0.5;" x1="49.65" x2="172.3453" y1="73" y2="73"/><line style="stroke:#555555;stroke-width:0.5;" x1="49.65" x2="172.3453" y1="81" y2="81"/></g><!--reverse link Msg Strategy to Pop Up Msg Strategy--><g class="link" data-entity-1="Msg Strategy" data-entity-2="Pop Up Msg Strategy" data-source-line="13" data-uid="lnk6" id="link_Msg Strategy_Pop Up Msg Strategy"><path codeLine="13" d="M111,107.29 C111,127.64 111,139.61 111,163.72" fill="none" id="Msg Strategy-backto-Pop Up Msg Strategy" style="stroke:#181818;stroke-width:1;stroke-dasharray:7.0,7.0;"/><polygon fill="none" points="111,89.29,105,107.29,117,107.29,111,89.29" style="stroke:#181818;stroke-width:1;"/></g><!--SRC=[bP31QiCm38RlUWhHNhR3GY-3KNfg8NI7GI7i0Hn7ozmwLh3LmiZoxbFImBeM1lsD3nAVFo4d4WoceTGQImMr9XhXY4j81nU6gi6DDocjZJtKaO-Xsh1NO9wFkS4uLXGdv7dCDP9pa0bOZBa6jcJKSJFmPJ4SkA25MxrOiWWtMBb8LXm7i8C5PtiIyVYMQjmf-Dvc_kHTkJmNOxyGtPRghnbsq2KnucoFNKFooLMFJw_1oSCZ_3RqZTRGmzaz2V-QLjzPTjTiS44eVkZtup_QhWVD3m00]--></g></svg>