<svg xmlns="http://www.w3.org/2000/svg" xmlns:xlink="http://www.w3.org/1999/xlink" contentStyleType="text/css" data-diagram-type="CLASS" height="491px" preserveAspectRatio="none" style="width:1861px;height:491px;background:#FFFFFF;" version="1.1" viewBox="0 0 1861 491" width="1861px" zoomAndPan="magnify"><defs/><g><!--cluster jettl.lvlib--><g class="cluster" data-entity="jettl.lvlib" data-source-line="8" data-uid="ent0003" id="cluster_jettl.lvlib"><path d="M8.5,6 L80.8398,6 A3.75,3.75 0 0 1 83.3398,8.5 L90.3398,28.2969 L639.5,28.2969 A2.5,2.5 0 0 1 642,30.7969 L642,481.66 A2.5,2.5 0 0 1 639.5,484.16 L8.5,484.16 A2.5,2.5 0 0 1 6,481.66 L6,8.5 A2.5,2.5 0 0 1 8.5,6" fill="none" style="stroke:#000000;stroke-width:1.5;"/><line style="stroke:#000000;stroke-width:1.5;" x1="6" x2="90.3398" y1="28.2969" y2="28.2969"/><text fill="#000000" font-family="sans-serif" font-size="14" font-weight="bold" lengthAdjust="spacing" textLength="71.3398" x="10" y="20.9951">jettl.lvlib</text></g><!--cluster jettl Msg Last Ack Event.lvlib--><g class="cluster" data-entity="jettl Msg Last Ack Event.lvlib" data-source-line="35" data-uid="ent0020" id="cluster_jettl Msg Last Ack Event.lvlib"><path d="M375.5,49 L606.3037,49 A3.75,3.75 0 0 1 608.8037,51.5 L615.8037,71.2969 L615.5,71.2969 A2.5,2.5 0 0 1 618,73.7969 L618,145.5 A2.5,2.5 0 0 1 615.5,148 L375.5,148 A2.5,2.5 0 0 1 373,145.5 L373,51.5 A2.5,2.5 0 0 1 375.5,49" fill="none" style="stroke:#000000;stroke-width:1.5;"/><line style="stroke:#000000;stroke-width:1.5;" x1="373" x2="615.8037" y1="71.2969" y2="71.2969"/><text fill="#000000" font-family="sans-serif" font-size="14" font-weight="bold" lengthAdjust="spacing" textLength="229.8037" x="377" y="63.9951">jettl Msg Last Ack Event.lvlib</text></g><!--cluster jettl Msg Last Ack Queue.lvlib--><g class="cluster" data-entity="jettl Msg Last Ack Queue.lvlib" data-source-line="37" data-uid="ent0023" id="cluster_jettl Msg Last Ack Queue.lvlib"><path d="M100.5,49 L337.2852,49 A3.75,3.75 0 0 1 339.7852,51.5 L346.7852,71.2969 L346.5,71.2969 A2.5,2.5 0 0 1 349,73.7969 L349,145.5 A2.5,2.5 0 0 1 346.5,148 L100.5,148 A2.5,2.5 0 0 1 98,145.5 L98,51.5 A2.5,2.5 0 0 1 100.5,49" fill="none" style="stroke:#000000;stroke-width:1.5;"/><line style="stroke:#000000;stroke-width:1.5;" x1="98" x2="346.7852" y1="71.2969" y2="71.2969"/><text fill="#000000" font-family="sans-serif" font-size="14" font-weight="bold" lengthAdjust="spacing" textLength="235.7852" x="102" y="63.9951">jettl Msg Last Ack Queue.lvlib</text></g><!--cluster jettl Msg Create Event.lvlib--><g class="cluster" data-entity="jettl Msg Create Event.lvlib" data-source-line="25" data-uid="ent0005" id="cluster_jettl Msg Create Event.lvlib"><path d="M668.5,49 L884.9004,49 A3.75,3.75 0 0 1 887.4004,51.5 L894.4004,71.2969 L894.5,71.2969 A2.5,2.5 0 0 1 897,73.7969 L897,145.5 A2.5,2.5 0 0 1 894.5,148 L668.5,148 A2.5,2.5 0 0 1 666,145.5 L666,51.5 A2.5,2.5 0 0 1 668.5,49" fill="none" style="stroke:#000000;stroke-width:1.5;"/><line style="stroke:#000000;stroke-width:1.5;" x1="666" x2="894.4004" y1="71.2969" y2="71.2969"/><text fill="#000000" font-family="sans-serif" font-size="14" font-weight="bold" lengthAdjust="spacing" textLength="215.4004" x="670" y="63.9951">jettl Msg Create Event.lvlib</text></g><!--cluster jettl Msg Create Queue.lvlib--><g class="cluster" data-entity="jettl Msg Create Queue.lvlib" data-source-line="27" data-uid="ent0008" id="cluster_jettl Msg Create Queue.lvlib"><path d="M923.5,49 L1145.8818,49 A3.75,3.75 0 0 1 1148.3818,51.5 L1155.3818,71.2969 L1155.5,71.2969 A2.5,2.5 0 0 1 1158,73.7969 L1158,145.5 A2.5,2.5 0 0 1 1155.5,148 L923.5,148 A2.5,2.5 0 0 1 921,145.5 L921,51.5 A2.5,2.5 0 0 1 923.5,49" fill="none" style="stroke:#000000;stroke-width:1.5;"/><line style="stroke:#000000;stroke-width:1.5;" x1="921" x2="1155.3818" y1="71.2969" y2="71.2969"/><text fill="#000000" font-family="sans-serif" font-size="14" font-weight="bold" lengthAdjust="spacing" textLength="221.3818" x="925" y="63.9951">jettl Msg Create Queue.lvlib</text></g><!--cluster jettl Msg Override Error.lvlib--><g class="cluster" data-entity="jettl Msg Override Error.lvlib" data-source-line="29" data-uid="ent0011" id="cluster_jettl Msg Override Error.lvlib"><path d="M1184.5,49 L1412.2891,49 A3.75,3.75 0 0 1 1414.7891,51.5 L1421.7891,71.2969 L1421.5,71.2969 A2.5,2.5 0 0 1 1424,73.7969 L1424,145.5 A2.5,2.5 0 0 1 1421.5,148 L1184.5,148 A2.5,2.5 0 0 1 1182,145.5 L1182,51.5 A2.5,2.5 0 0 1 1184.5,49" fill="none" style="stroke:#000000;stroke-width:1.5;"/><line style="stroke:#000000;stroke-width:1.5;" x1="1182" x2="1421.7891" y1="71.2969" y2="71.2969"/><text fill="#000000" font-family="sans-serif" font-size="14" font-weight="bold" lengthAdjust="spacing" textLength="226.7891" x="1186" y="63.9951">jettl Msg Override Error.lvlib</text></g><!--cluster jettl Msg Setup.lvlib--><g class="cluster" data-entity="jettl Msg Setup.lvlib" data-source-line="31" data-uid="ent0014" id="cluster_jettl Msg Setup.lvlib"><path d="M1450.5,49 L1611.1328,49 A3.75,3.75 0 0 1 1613.6328,51.5 L1620.6328,71.2969 L1620.5,71.2969 A2.5,2.5 0 0 1 1623,73.7969 L1623,145.5 A2.5,2.5 0 0 1 1620.5,148 L1450.5,148 A2.5,2.5 0 0 1 1448,145.5 L1448,51.5 A2.5,2.5 0 0 1 1450.5,49" fill="none" style="stroke:#000000;stroke-width:1.5;"/><line style="stroke:#000000;stroke-width:1.5;" x1="1448" x2="1620.6328" y1="71.2969" y2="71.2969"/><text fill="#000000" font-family="sans-serif" font-size="14" font-weight="bold" lengthAdjust="spacing" textLength="159.6328" x="1452" y="63.9951">jettl Msg Setup.lvlib</text></g><!--cluster jettl Msg Teardown.lvlib--><g class="cluster" data-entity="jettl Msg Teardown.lvlib" data-source-line="33" data-uid="ent0017" id="cluster_jettl Msg Teardown.lvlib"><path d="M1649.5,49 L1841.8105,49 A3.75,3.75 0 0 1 1844.3105,51.5 L1851.3105,71.2969 L1851.5,71.2969 A2.5,2.5 0 0 1 1854,73.7969 L1854,145.5 A2.5,2.5 0 0 1 1851.5,148 L1649.5,148 A2.5,2.5 0 0 1 1647,145.5 L1647,51.5 A2.5,2.5 0 0 1 1649.5,49" fill="none" style="stroke:#000000;stroke-width:1.5;"/><line style="stroke:#000000;stroke-width:1.5;" x1="1647" x2="1851.3105" y1="71.2969" y2="71.2969"/><text fill="#000000" font-family="sans-serif" font-size="14" font-weight="bold" lengthAdjust="spacing" textLength="191.3105" x="1651" y="63.9951">jettl Msg Teardown.lvlib</text></g><!--class Queue--><g class="entity" data-entity="Queue" data-source-line="8" data-uid="ent0002" id="entity_Queue"><rect fill="#FFFFFF" height="276.1563" rx="2.5" ry="2.5" style="stroke:#555555;stroke-width:0.5;" width="224.0986" x="401.95" y="192"/><rect fill="#808080" height="32" rx="2.5" ry="2.5" style="stroke:#808080;stroke-width:0.5;" width="224.0986" x="401.95" y="192"/><rect fill="#808080" height="2.5" style="stroke:#808080;stroke-width:0.5;" width="224.0986" x="401.95" y="221.5"/><rect fill="none" height="276.1563" rx="2.5" ry="2.5" style="stroke:#555555;stroke-width:0.5;" width="224.0986" x="401.95" y="192"/><ellipse cx="486.7532" cy="208" fill="#B4A7E5" rx="11" ry="11" style="stroke:#181818;stroke-width:1;"/><path d="M482.6751,203.7656 L482.6751,201.6094 L490.0657,201.6094 L490.0657,203.7656 L487.597,203.7656 L487.597,211.8438 L490.0657,211.8438 L490.0657,214 L482.6751,214 L482.6751,211.8438 L485.1438,211.8438 L485.1438,203.7656 L482.6751,203.7656 Z " fill="#000000"/><text fill="#000000" font-family="sans-serif" font-size="14" font-style="italic" lengthAdjust="spacing" textLength="45.9922" x="507.2532" y="212.8467">Queue</text><line style="stroke:#555555;stroke-width:0.5;" x1="402.95" x2="625.0486" y1="224" y2="224"/><line style="stroke:#555555;stroke-width:0.5;" x1="402.95" x2="625.0486" y1="232" y2="232"/><ellipse cx="412.95" cy="245.6484" fill="#84BE84" rx="3" ry="3" style="stroke:#038048;stroke-width:1;"/><text fill="#000000" font-family="sans-serif" font-size="14" lengthAdjust="spacing" textLength="75.0176" x="421.95" y="248.9951">Decorate()</text><ellipse cx="412.95" cy="261.9453" fill="#84BE84" rx="3" ry="3" style="stroke:#038048;stroke-width:1;"/><text fill="#000000" font-family="sans-serif" font-size="14" lengthAdjust="spacing" textLength="66.3633" x="421.95" y="265.292">Receive()</text><ellipse cx="412.95" cy="278.2422" fill="#84BE84" rx="3" ry="3" style="stroke:#038048;stroke-width:1;"/><text fill="#000000" font-family="sans-serif" font-size="14" lengthAdjust="spacing" textLength="125.3643" x="421.95" y="281.5889">Self Queue Alias()</text><ellipse cx="412.95" cy="294.5391" fill="#84BE84" rx="3" ry="3" style="stroke:#038048;stroke-width:1;"/><text fill="#000000" font-family="sans-serif" font-size="14" lengthAdjust="spacing" textLength="87.6846" x="421.95" y="297.8857">Self Queue()</text><ellipse cx="412.95" cy="310.8359" fill="#84BE84" rx="3" ry="3" style="stroke:#038048;stroke-width:1;"/><text fill="#000000" font-family="sans-serif" font-size="14" lengthAdjust="spacing" textLength="151.5801" x="421.95" y="314.1826">Creator Queue Alias()</text><ellipse cx="412.95" cy="327.1328" fill="#84BE84" rx="3" ry="3" style="stroke:#038048;stroke-width:1;"/><text fill="#000000" font-family="sans-serif" font-size="14" lengthAdjust="spacing" textLength="113.9004" x="421.95" y="330.4795">Creator Queue()</text><ellipse cx="412.95" cy="343.4297" fill="#84BE84" rx="3" ry="3" style="stroke:#038048;stroke-width:1;"/><text fill="#000000" font-family="sans-serif" font-size="14" lengthAdjust="spacing" textLength="124.373" x="421.95" y="346.7764">Created Queues()</text><ellipse cx="412.95" cy="359.7266" fill="#84BE84" rx="3" ry="3" style="stroke:#038048;stroke-width:1;"/><text fill="#000000" font-family="sans-serif" font-size="14" lengthAdjust="spacing" textLength="173.4346" x="421.95" y="363.0732">Status Created Queues()</text><ellipse cx="412.95" cy="376.0234" fill="#84BE84" rx="3" ry="3" style="stroke:#038048;stroke-width:1;"/><text fill="#000000" font-family="sans-serif" font-size="14" lengthAdjust="spacing" textLength="132.9521" x="421.95" y="379.3701">Is Created Queue()</text><ellipse cx="412.95" cy="392.3203" fill="#84BE84" rx="3" ry="3" style="stroke:#038048;stroke-width:1;"/><text fill="#000000" font-family="sans-serif" font-size="14" lengthAdjust="spacing" textLength="118.4873" x="421.95" y="395.667">Created Events()</text><ellipse cx="412.95" cy="408.6172" fill="#84BE84" rx="3" ry="3" style="stroke:#038048;stroke-width:1;"/><text fill="#000000" font-family="sans-serif" font-size="14" lengthAdjust="spacing" textLength="167.5488" x="421.95" y="411.9639">Status Created Events()</text><ellipse cx="412.95" cy="424.9141" fill="#84BE84" rx="3" ry="3" style="stroke:#038048;stroke-width:1;"/><text fill="#000000" font-family="sans-serif" font-size="14" lengthAdjust="spacing" textLength="127.0664" x="421.95" y="428.2607">Is Created Event()</text><ellipse cx="412.95" cy="441.2109" fill="#84BE84" rx="3" ry="3" style="stroke:#038048;stroke-width:1;"/><text fill="#000000" font-family="sans-serif" font-size="14" lengthAdjust="spacing" textLength="198.0986" x="421.95" y="444.5576">Teardown Created Queues()</text><ellipse cx="412.95" cy="457.5078" fill="#84BE84" rx="3" ry="3" style="stroke:#038048;stroke-width:1;"/><text fill="#000000" font-family="sans-serif" font-size="14" lengthAdjust="spacing" textLength="192.2129" x="421.95" y="460.8545">Teardown Created Events()</text></g><!--class jettl--><g class="entity" data-entity="jettl" data-source-line="39" data-uid="ent0025" id="entity_jettl"><rect fill="#FFFFFF" height="48" rx="2.5" ry="2.5" style="stroke:#555555;stroke-width:0.5;" width="59.3711" x="22.31" y="84"/><rect fill="#808080" height="32" rx="2.5" ry="2.5" style="stroke:#808080;stroke-width:0.5;" width="59.3711" x="22.31" y="84"/><rect fill="#808080" height="2.5" style="stroke:#808080;stroke-width:0.5;" width="59.3711" x="22.31" y="113.5"/><rect fill="none" height="48" rx="2.5" ry="2.5" style="stroke:#555555;stroke-width:0.5;" width="59.3711" x="22.31" y="84"/><ellipse cx="37.31" cy="100" fill="#B4A7E5" rx="11" ry="11" style="stroke:#181818;stroke-width:1;"/><path d="M33.2319,95.7656 L33.2319,93.6094 L40.6225,93.6094 L40.6225,95.7656 L38.1538,95.7656 L38.1538,103.8438 L40.6225,103.8438 L40.6225,106 L33.2319,106 L33.2319,103.8438 L35.7006,103.8438 L35.7006,95.7656 L33.2319,95.7656 Z " fill="#000000"/><text fill="#000000" font-family="sans-serif" font-size="14" font-style="italic" lengthAdjust="spacing" textLength="27.3711" x="51.31" y="104.8467">jettl</text><line style="stroke:#555555;stroke-width:0.5;" x1="23.31" x2="80.6811" y1="116" y2="116"/><line style="stroke:#555555;stroke-width:0.5;" x1="23.31" x2="80.6811" y1="124" y2="124"/></g><!--class Last Ack Event--><g class="entity" data-entity="Last Ack Event" data-source-line="35" data-uid="ent0019" id="entity_Last Ack Event"><rect fill="#FFFFFF" height="48" rx="2.5" ry="2.5" style="stroke:#555555;stroke-width:0.5;" width="135.5508" x="446.22" y="84"/><rect fill="#808080" height="32" rx="2.5" ry="2.5" style="stroke:#808080;stroke-width:0.5;" width="135.5508" x="446.22" y="84"/><rect fill="#808080" height="2.5" style="stroke:#808080;stroke-width:0.5;" width="135.5508" x="446.22" y="113.5"/><rect fill="none" height="48" rx="2.5" ry="2.5" style="stroke:#555555;stroke-width:0.5;" width="135.5508" x="446.22" y="84"/><ellipse cx="461.22" cy="100" fill="#B4A7E5" rx="11" ry="11" style="stroke:#181818;stroke-width:1;"/><path d="M457.1419,95.7656 L457.1419,93.6094 L464.5325,93.6094 L464.5325,95.7656 L462.0638,95.7656 L462.0638,103.8438 L464.5325,103.8438 L464.5325,106 L457.1419,106 L457.1419,103.8438 L459.6106,103.8438 L459.6106,95.7656 L457.1419,95.7656 Z " fill="#000000"/><text fill="#000000" font-family="sans-serif" font-size="14" font-style="italic" lengthAdjust="spacing" textLength="103.5508" x="475.22" y="104.8467">Last Ack Event</text><line style="stroke:#555555;stroke-width:0.5;" x1="447.22" x2="580.7708" y1="116" y2="116"/><line style="stroke:#555555;stroke-width:0.5;" x1="447.22" x2="580.7708" y1="124" y2="124"/></g><!--class Last Ack Queue--><g class="entity" data-entity="Last Ack Queue" data-source-line="37" data-uid="ent0022" id="entity_Last Ack Queue"><rect fill="#FFFFFF" height="48" rx="2.5" ry="2.5" style="stroke:#555555;stroke-width:0.5;" width="141.4365" x="191.28" y="84"/><rect fill="#808080" height="32" rx="2.5" ry="2.5" style="stroke:#808080;stroke-width:0.5;" width="141.4365" x="191.28" y="84"/><rect fill="#808080" height="2.5" style="stroke:#808080;stroke-width:0.5;" width="141.4365" x="191.28" y="113.5"/><rect fill="none" height="48" rx="2.5" ry="2.5" style="stroke:#555555;stroke-width:0.5;" width="141.4365" x="191.28" y="84"/><ellipse cx="206.28" cy="100" fill="#B4A7E5" rx="11" ry="11" style="stroke:#181818;stroke-width:1;"/><path d="M202.2019,95.7656 L202.2019,93.6094 L209.5925,93.6094 L209.5925,95.7656 L207.1238,95.7656 L207.1238,103.8438 L209.5925,103.8438 L209.5925,106 L202.2019,106 L202.2019,103.8438 L204.6706,103.8438 L204.6706,95.7656 L202.2019,95.7656 Z " fill="#000000"/><text fill="#000000" font-family="sans-serif" font-size="14" font-style="italic" lengthAdjust="spacing" textLength="109.4365" x="220.28" y="104.8467">Last Ack Queue</text><line style="stroke:#555555;stroke-width:0.5;" x1="192.28" x2="331.7165" y1="116" y2="116"/><line style="stroke:#555555;stroke-width:0.5;" x1="192.28" x2="331.7165" y1="124" y2="124"/></g><!--class Create Event--><g class="entity" data-entity="Create Event" data-source-line="25" data-uid="ent0004" id="entity_Create Event"><rect fill="#FFFFFF" height="48" rx="2.5" ry="2.5" style="stroke:#555555;stroke-width:0.5;" width="123.3828" x="682.31" y="84"/><rect fill="#808080" height="32" rx="2.5" ry="2.5" style="stroke:#808080;stroke-width:0.5;" width="123.3828" x="682.31" y="84"/><rect fill="#808080" height="2.5" style="stroke:#808080;stroke-width:0.5;" width="123.3828" x="682.31" y="113.5"/><rect fill="none" height="48" rx="2.5" ry="2.5" style="stroke:#555555;stroke-width:0.5;" width="123.3828" x="682.31" y="84"/><ellipse cx="697.31" cy="100" fill="#B4A7E5" rx="11" ry="11" style="stroke:#181818;stroke-width:1;"/><path d="M693.2319,95.7656 L693.2319,93.6094 L700.6225,93.6094 L700.6225,95.7656 L698.1538,95.7656 L698.1538,103.8438 L700.6225,103.8438 L700.6225,106 L693.2319,106 L693.2319,103.8438 L695.7006,103.8438 L695.7006,95.7656 L693.2319,95.7656 Z " fill="#000000"/><text fill="#000000" font-family="sans-serif" font-size="14" font-style="italic" lengthAdjust="spacing" textLength="91.3828" x="711.31" y="104.8467">Create Event</text><line style="stroke:#555555;stroke-width:0.5;" x1="683.31" x2="804.6928" y1="116" y2="116"/><line style="stroke:#555555;stroke-width:0.5;" x1="683.31" x2="804.6928" y1="124" y2="124"/></g><!--class Create Queue--><g class="entity" data-entity="Create Queue" data-source-line="27" data-uid="ent0007" id="entity_Create Queue"><rect fill="#FFFFFF" height="48" rx="2.5" ry="2.5" style="stroke:#555555;stroke-width:0.5;" width="129.2686" x="937.37" y="84"/><rect fill="#808080" height="32" rx="2.5" ry="2.5" style="stroke:#808080;stroke-width:0.5;" width="129.2686" x="937.37" y="84"/><rect fill="#808080" height="2.5" style="stroke:#808080;stroke-width:0.5;" width="129.2686" x="937.37" y="113.5"/><rect fill="none" height="48" rx="2.5" ry="2.5" style="stroke:#555555;stroke-width:0.5;" width="129.2686" x="937.37" y="84"/><ellipse cx="952.37" cy="100" fill="#B4A7E5" rx="11" ry="11" style="stroke:#181818;stroke-width:1;"/><path d="M948.2919,95.7656 L948.2919,93.6094 L955.6825,93.6094 L955.6825,95.7656 L953.2138,95.7656 L953.2138,103.8438 L955.6825,103.8438 L955.6825,106 L948.2919,106 L948.2919,103.8438 L950.7606,103.8438 L950.7606,95.7656 L948.2919,95.7656 Z " fill="#000000"/><text fill="#000000" font-family="sans-serif" font-size="14" font-style="italic" lengthAdjust="spacing" textLength="97.2686" x="966.37" y="104.8467">Create Queue</text><line style="stroke:#555555;stroke-width:0.5;" x1="938.37" x2="1065.6386" y1="116" y2="116"/><line style="stroke:#555555;stroke-width:0.5;" x1="938.37" x2="1065.6386" y1="124" y2="124"/></g><!--class Override Error--><g class="entity" data-entity="Override Error" data-source-line="29" data-uid="ent0010" id="entity_Override Error"><rect fill="#FFFFFF" height="48" rx="2.5" ry="2.5" style="stroke:#555555;stroke-width:0.5;" width="131.9482" x="1198.03" y="84"/><rect fill="#808080" height="32" rx="2.5" ry="2.5" style="stroke:#808080;stroke-width:0.5;" width="131.9482" x="1198.03" y="84"/><rect fill="#808080" height="2.5" style="stroke:#808080;stroke-width:0.5;" width="131.9482" x="1198.03" y="113.5"/><rect fill="none" height="48" rx="2.5" ry="2.5" style="stroke:#555555;stroke-width:0.5;" width="131.9482" x="1198.03" y="84"/><ellipse cx="1213.03" cy="100" fill="#B4A7E5" rx="11" ry="11" style="stroke:#181818;stroke-width:1;"/><path d="M1208.9519,95.7656 L1208.9519,93.6094 L1216.3425,93.6094 L1216.3425,95.7656 L1213.8738,95.7656 L1213.8738,103.8438 L1216.3425,103.8438 L1216.3425,106 L1208.9519,106 L1208.9519,103.8438 L1211.4206,103.8438 L1211.4206,95.7656 L1208.9519,95.7656 Z " fill="#000000"/><text fill="#000000" font-family="sans-serif" font-size="14" font-style="italic" lengthAdjust="spacing" textLength="99.9482" x="1227.03" y="104.8467">Override Error</text><line style="stroke:#555555;stroke-width:0.5;" x1="1199.03" x2="1328.9782" y1="116" y2="116"/><line style="stroke:#555555;stroke-width:0.5;" x1="1199.03" x2="1328.9782" y1="124" y2="124"/></g><!--class Setup--><g class="entity" data-entity="Setup" data-source-line="31" data-uid="ent0013" id="entity_Setup"><rect fill="#FFFFFF" height="48" rx="2.5" ry="2.5" style="stroke:#555555;stroke-width:0.5;" width="72.749" x="1463.63" y="84"/><rect fill="#808080" height="32" rx="2.5" ry="2.5" style="stroke:#808080;stroke-width:0.5;" width="72.749" x="1463.63" y="84"/><rect fill="#808080" height="2.5" style="stroke:#808080;stroke-width:0.5;" width="72.749" x="1463.63" y="113.5"/><rect fill="none" height="48" rx="2.5" ry="2.5" style="stroke:#555555;stroke-width:0.5;" width="72.749" x="1463.63" y="84"/><ellipse cx="1478.63" cy="100" fill="#B4A7E5" rx="11" ry="11" style="stroke:#181818;stroke-width:1;"/><path d="M1474.5519,95.7656 L1474.5519,93.6094 L1481.9425,93.6094 L1481.9425,95.7656 L1479.4738,95.7656 L1479.4738,103.8438 L1481.9425,103.8438 L1481.9425,106 L1474.5519,106 L1474.5519,103.8438 L1477.0206,103.8438 L1477.0206,95.7656 L1474.5519,95.7656 Z " fill="#000000"/><text fill="#000000" font-family="sans-serif" font-size="14" font-style="italic" lengthAdjust="spacing" textLength="40.749" x="1492.63" y="104.8467">Setup</text><line style="stroke:#555555;stroke-width:0.5;" x1="1464.63" x2="1535.379" y1="116" y2="116"/><line style="stroke:#555555;stroke-width:0.5;" x1="1464.63" x2="1535.379" y1="124" y2="124"/></g><!--class Teardown--><g class="entity" data-entity="Teardown" data-source-line="33" data-uid="ent0016" id="entity_Teardown"><rect fill="#FFFFFF" height="48" rx="2.5" ry="2.5" style="stroke:#555555;stroke-width:0.5;" width="101.2754" x="1663.36" y="84"/><rect fill="#808080" height="32" rx="2.5" ry="2.5" style="stroke:#808080;stroke-width:0.5;" width="101.2754" x="1663.36" y="84"/><rect fill="#808080" height="2.5" style="stroke:#808080;stroke-width:0.5;" width="101.2754" x="1663.36" y="113.5"/><rect fill="none" height="48" rx="2.5" ry="2.5" style="stroke:#555555;stroke-width:0.5;" width="101.2754" x="1663.36" y="84"/><ellipse cx="1678.36" cy="100" fill="#B4A7E5" rx="11" ry="11" style="stroke:#181818;stroke-width:1;"/><path d="M1674.2819,95.7656 L1674.2819,93.6094 L1681.6725,93.6094 L1681.6725,95.7656 L1679.2038,95.7656 L1679.2038,103.8438 L1681.6725,103.8438 L1681.6725,106 L1674.2819,106 L1674.2819,103.8438 L1676.7506,103.8438 L1676.7506,95.7656 L1674.2819,95.7656 Z " fill="#000000"/><text fill="#000000" font-family="sans-serif" font-size="14" font-style="italic" lengthAdjust="spacing" textLength="69.2754" x="1692.36" y="104.8467">Teardown</text><line style="stroke:#555555;stroke-width:0.5;" x1="1664.36" x2="1763.6354" y1="116" y2="116"/><line style="stroke:#555555;stroke-width:0.5;" x1="1664.36" x2="1763.6354" y1="124" y2="124"/></g><!--reverse link Create Event to Queue--><g class="link" data-entity-1="Create Event" data-entity-2="Queue" data-source-line="25" data-uid="lnk6" id="link_Create Event_Queue"><path codeLine="25" d="M706.8168,144.5866 C684.1568,166.2766 661.57,187.87 626.33,221.6" fill="none" id="Create Event-backto-Queue" style="stroke:#181818;stroke-width:1;stroke-dasharray:7.0,7.0;"/><polygon fill="none" points="719.82,132.14,702.668,140.2522,710.9657,148.921,719.82,132.14" style="stroke:#181818;stroke-width:1;"/></g><!--reverse link Create Queue to Queue--><g class="link" data-entity-1="Create Queue" data-entity-2="Queue" data-source-line="27" data-uid="lnk9" id="link_Create Queue_Queue"><path codeLine="27" d="M933.8313,139.7496 C857.1713,174.3196 727.99,232.58 626.17,278.5" fill="none" id="Create Queue-backto-Queue" style="stroke:#181818;stroke-width:1;stroke-dasharray:7.0,7.0;"/><polygon fill="none" points="950.24,132.35,931.3647,134.28,936.2978,145.2191,950.24,132.35" style="stroke:#181818;stroke-width:1;"/></g><!--reverse link Override Error to Queue--><g class="link" data-entity-1="Override Error" data-entity-2="Queue" data-source-line="29" data-uid="lnk12" id="link_Override Error_Queue"><path codeLine="29" d="M1180.4983,133.5082 C1051.9883,171.2182 784.79,249.62 626.26,296.14" fill="none" id="Override Error-backto-Queue" style="stroke:#181818;stroke-width:1;stroke-dasharray:7.0,7.0;"/><polygon fill="none" points="1197.77,128.44,1178.8088,127.751,1182.1877,139.2655,1197.77,128.44" style="stroke:#181818;stroke-width:1;"/></g><!--reverse link Setup to Queue--><g class="link" data-entity-1="Setup" data-entity-2="Queue" data-source-line="31" data-uid="lnk15" id="link_Setup_Queue"><path codeLine="31" d="M1446.1217,126.8245 C1415.0817,136.9145 1386.48,145.64 1346,156 C1090.88,221.33 787.03,279.7 626.44,309.06" fill="none" id="Setup-backto-Queue" style="stroke:#181818;stroke-width:1;stroke-dasharray:7.0,7.0;"/><polygon fill="none" points="1463.24,121.26,1444.2669,121.1185,1447.9766,132.5306,1463.24,121.26" style="stroke:#181818;stroke-width:1;"/></g><!--reverse link Teardown to Queue--><g class="link" data-entity-1="Teardown" data-entity-2="Queue" data-source-line="33" data-uid="lnk18" id="link_Teardown_Queue"><path codeLine="33" d="M1645.765,130.8029 C1614.075,140.6129 1589.55,147.46 1552,156 C1218.43,231.93 817.5,289.38 626.21,314.77" fill="none" id="Teardown-backto-Queue" style="stroke:#181818;stroke-width:1;stroke-dasharray:7.0,7.0;"/><polygon fill="none" points="1662.96,125.48,1643.9907,125.0712,1647.5393,136.5346,1662.96,125.48" style="stroke:#181818;stroke-width:1;"/></g><!--reverse link Last Ack Event to Queue--><g class="link" data-entity-1="Last Ack Event" data-entity-2="Queue" data-source-line="35" data-uid="lnk21" id="link_Last Ack Event_Queue"><path codeLine="35" d="M514,150.14 C514,165.37 514,168.7 514,191.73" fill="none" id="Last Ack Event-backto-Queue" style="stroke:#181818;stroke-width:1;stroke-dasharray:7.0,7.0;"/><polygon fill="none" points="514,132.14,508,150.14,520,150.14,514,132.14" style="stroke:#181818;stroke-width:1;"/></g><!--reverse link Last Ack Queue to Queue--><g class="link" data-entity-1="Last Ack Queue" data-entity-2="Queue" data-source-line="37" data-uid="lnk24" id="link_Last Ack Queue_Queue"><path codeLine="37" d="M302.0491,143.9786 C329.1591,167.6486 359.57,194.22 401.52,230.85" fill="none" id="Last Ack Queue-backto-Queue" style="stroke:#181818;stroke-width:1;stroke-dasharray:7.0,7.0;"/><polygon fill="none" points="288.49,132.14,298.1029,148.4983,305.9953,139.4589,288.49,132.14" style="stroke:#181818;stroke-width:1;"/></g><!--reverse link jettl to Queue--><g class="link" data-entity-1="jettl" data-entity-2="Queue" data-source-line="39" data-uid="lnk26" id="link_jettl_Queue"><path codeLine="39" d="M98.2094,131.0133 C161.6894,161.2633 296.33,225.39 401.81,275.64" fill="none" id="jettl-backto-Queue" style="stroke:#181818;stroke-width:1;stroke-dasharray:7.0,7.0;"/><polygon fill="none" points="81.96,123.27,95.6283,136.4297,100.7905,125.5968,81.96,123.27" style="stroke:#181818;stroke-width:1;"/></g><!--SRC=[hL9TJy8m57tVhsZmHMD2U34nn1US4aaqHl4FbFM2bQvTshlvWFntIocuxYkCs6N9Ui_fEQUxrm0IILCm6KrW3XdL59KcuyYikTpjKX8BQimzJTOhhNB9OYKiuMBgLescD0FjAJTkLIbJ9T4JHcvL2Kz0hKRDy7QqUw8I6rLcNx9GY2ebZ6j8a2iPSOcWb_O-PF05Y68e2i4NuxSSSXYGJRH90JyLsvBh1qYKlJ1SNfMAxv00ByBQ7CIIE04o4PoQ5Z0ennhSlsmx5k1r1DWUgNWXnToG3iQiWZOgFnOWiLEvWJ6he07u0LGpzIsxejKuHvDe6-rxHLxCoiDxr3UlN1gGkv_XiAcvjTQV9hTfSdUA8TrFq5dkxNAX-si1MdDciscjj3yG5licE4aoJ347p3FFTDzzFHi4GeV3B7ZEOTlNfrNcwEQHloFFr22P9EjW8C9YZnJdoP-GhZmmOV5VqdN9DwOxqzMfsVKB]--></g></svg>