<svg xmlns="http://www.w3.org/2000/svg" xmlns:xlink="http://www.w3.org/1999/xlink" contentStyleType="text/css" data-diagram-type="CLASS" height="283px" preserveAspectRatio="none" style="width:283px;height:283px;background:#FFFFFF;" version="1.1" viewBox="0 0 283 283" width="283px" zoomAndPan="magnify"><defs/><g><!--cluster jettl Msg String Indicator.lvlib--><g class="cluster" data-entity="jettl Msg String Indicator.lvlib" data-source-line="8" data-uid="ent0003" id="cluster_jettl Msg String Indicator.lvlib"><path d="M8.5,129 L247.1719,129 A3.75,3.75 0 0 1 249.6719,131.5 L256.6719,151.2969 L273.5,151.2969 A2.5,2.5 0 0 1 276,153.7969 L276,274.39 A2.5,2.5 0 0 1 273.5,276.89 L8.5,276.89 A2.5,2.5 0 0 1 6,274.39 L6,131.5 A2.5,2.5 0 0 1 8.5,129" fill="none" style="stroke:#000000;stroke-width:1.5;"/><line style="stroke:#000000;stroke-width:1.5;" x1="6" x2="256.6719" y1="151.2969" y2="151.2969"/><text fill="#000000" font-family="sans-serif" font-size="14" font-weight="bold" lengthAdjust="spacing" textLength="237.6719" x="10" y="143.9951">jettl Msg String Indicator.lvlib</text></g><!--cluster jettl.lvlib--><g class="cluster" data-entity="jettl.lvlib" data-source-line="14" data-uid="ent0005" id="cluster_jettl.lvlib"><path d="M65.5,6 L137.8398,6 A3.75,3.75 0 0 1 140.3398,8.5 L147.3398,28.2969 L216.5,28.2969 A2.5,2.5 0 0 1 219,30.7969 L219,102.5 A2.5,2.5 0 0 1 216.5,105 L65.5,105 A2.5,2.5 0 0 1 63,102.5 L63,8.5 A2.5,2.5 0 0 1 65.5,6" fill="none" style="stroke:#000000;stroke-width:1.5;"/><line style="stroke:#000000;stroke-width:1.5;" x1="63" x2="147.3398" y1="28.2969" y2="28.2969"/><text fill="#000000" font-family="sans-serif" font-size="14" font-weight="bold" lengthAdjust="spacing" textLength="71.3398" x="67" y="20.9951">jettl.lvlib</text></g><!--class String Indicator Msg Strategy--><g class="entity" data-entity="String Indicator Msg Strategy" data-source-line="8" data-uid="ent0002" id="entity_String Indicator Msg Strategy"><rect fill="#FFFFFF" height="96.8906" rx="2.5" ry="2.5" style="stroke:#555555;stroke-width:0.5;" width="237.2422" x="22.38" y="164"/><rect fill="#808080" height="32" rx="2.5" ry="2.5" style="stroke:#808080;stroke-width:0.5;" width="237.2422" x="22.38" y="164"/><rect fill="#808080" height="2.5" style="stroke:#808080;stroke-width:0.5;" width="237.2422" x="22.38" y="193.5"/><rect fill="none" height="96.8906" rx="2.5" ry="2.5" style="stroke:#555555;stroke-width:0.5;" width="237.2422" x="22.38" y="164"/><ellipse cx="37.38" cy="180" fill="#ADD1B2" rx="11" ry="11" style="stroke:#181818;stroke-width:1;"/><path d="M40.3488,185.6406 Q39.7706,185.9375 39.13,186.0781 Q38.4894,186.2344 37.7863,186.2344 Q35.2863,186.2344 33.9581,184.5938 Q32.6456,182.9375 32.6456,179.8125 Q32.6456,176.6875 33.9581,175.0313 Q35.2863,173.375 37.7863,173.375 Q38.4894,173.375 39.13,173.5313 Q39.7863,173.6875 40.3488,173.9844 L40.3488,176.7031 Q39.7238,176.125 39.13,175.8594 Q38.5363,175.5781 37.9113,175.5781 Q36.5675,175.5781 35.88,176.6563 Q35.1925,177.7188 35.1925,179.8125 Q35.1925,181.9063 35.88,182.9844 Q36.5675,184.0469 37.9113,184.0469 Q38.5363,184.0469 39.13,183.7813 Q39.7238,183.5 40.3488,182.9219 L40.3488,185.6406 Z " fill="#000000"/><text fill="#000000" font-family="sans-serif" font-size="14" lengthAdjust="spacing" textLength="205.2422" x="51.38" y="184.8467">String Indicator Msg Strategy</text><line style="stroke:#555555;stroke-width:0.5;" x1="23.38" x2="258.6222" y1="196" y2="196"/><rect fill="none" height="6" style="stroke:#C82930;stroke-width:1;" width="6" x="30.38" y="206.6484"/><text fill="#000000" font-family="sans-serif" font-size="14" lengthAdjust="spacing" textLength="163.4951" x="42.38" y="212.9951">String Indicator : String</text><line style="stroke:#555555;stroke-width:0.5;" x1="23.38" x2="258.6222" y1="220.2969" y2="220.2969"/><rect fill="#F24D5C" height="6" style="stroke:#C82930;stroke-width:1;" width="6" x="30.38" y="230.9453"/><text fill="#000000" font-family="sans-serif" font-size="14" lengthAdjust="spacing" text-decoration="underline" textLength="33.3047" x="42.38" y="237.292">Init()</text><rect fill="#F24D5C" height="6" style="stroke:#C82930;stroke-width:1;" width="6" x="30.38" y="247.2422"/><text fill="#000000" font-family="sans-serif" font-size="14" lengthAdjust="spacing" textLength="39.1836" x="42.38" y="253.5889">Msg()</text></g><!--class Msg Strategy--><g class="entity" data-entity="Msg Strategy" data-source-line="14" data-uid="ent0004" id="entity_Msg Strategy"><rect fill="#FFFFFF" height="48" rx="2.5" ry="2.5" style="stroke:#555555;stroke-width:0.5;" width="124.6953" x="78.65" y="41"/><rect fill="#808080" height="32" rx="2.5" ry="2.5" style="stroke:#808080;stroke-width:0.5;" width="124.6953" x="78.65" y="41"/><rect fill="#808080" height="2.5" style="stroke:#808080;stroke-width:0.5;" width="124.6953" x="78.65" y="70.5"/><rect fill="none" height="48" rx="2.5" ry="2.5" style="stroke:#555555;stroke-width:0.5;" width="124.6953" x="78.65" y="41"/><ellipse cx="93.65" cy="57" fill="#B4A7E5" rx="11" ry="11" style="stroke:#181818;stroke-width:1;"/><path d="M89.5719,52.7656 L89.5719,50.6094 L96.9625,50.6094 L96.9625,52.7656 L94.4938,52.7656 L94.4938,60.8438 L96.9625,60.8438 L96.9625,63 L89.5719,63 L89.5719,60.8438 L92.0406,60.8438 L92.0406,52.7656 L89.5719,52.7656 Z " fill="#000000"/><text fill="#000000" font-family="sans-serif" font-size="14" font-style="italic" lengthAdjust="spacing" textLength="92.6953" x="107.65" y="61.8467">Msg Strategy</text><line style="stroke:#555555;stroke-width:0.5;" x1="79.65" x2="202.3453" y1="73" y2="73"/><line style="stroke:#555555;stroke-width:0.5;" x1="79.65" x2="202.3453" y1="81" y2="81"/></g><!--reverse link Msg Strategy to String Indicator Msg Strategy--><g class="link" data-entity-1="Msg Strategy" data-entity-2="String Indicator Msg Strategy" data-source-line="14" data-uid="lnk6" id="link_Msg Strategy_String Indicator Msg Strategy"><path codeLine="14" d="M141,107.37 C141,127.36 141,138.78 141,163.73" fill="none" id="Msg Strategy-backto-String Indicator Msg Strategy" style="stroke:#181818;stroke-width:1;stroke-dasharray:7.0,7.0;"/><polygon fill="none" points="141,89.37,135,107.37,147,107.37,141,89.37" style="stroke:#181818;stroke-width:1;"/></g><!--SRC=[fP71JiCm38RlVWfhky21QXSaL75YqiGEdFO4MU8LipIk4Wy9bRuxIIa2MeaBVvI3hK__Ryk958DfANN6qe4w4urAn1hIcKEfMjnwazA3iUScoYMuhVWCh7UZ5fX4Ht52RaVDaPq4dO3Dg3dmI2PxB0BlDkN13rgbon-FeYejEevabIM0BIwuUY5LZq-fmOD63WtkWsDRrglyg-TZFMz_iKQfULjX3_s9oRi1RnPaFNb2dzGesm7xblHP2hmFh5VNyDt8jhc60Jv7cj9_Xzs_LzM_HmOEIl6KBub_HFK3P7q0]--></g></svg>