<svg xmlns="http://www.w3.org/2000/svg" xmlns:xlink="http://www.w3.org/1999/xlink" contentStyleType="text/css" data-diagram-type="CLASS" height="376px" preserveAspectRatio="none" style="width:331px;height:376px;background:#FFFFFF;" version="1.1" viewBox="0 0 331 376" width="331px" zoomAndPan="magnify"><defs/><g><!--cluster jettl.lvlib--><g class="cluster" data-entity="jettl.lvlib" data-source-line="8" data-uid="ent0003" id="cluster_jettl.lvlib"><path d="M8.5,6 L80.8398,6 A3.75,3.75 0 0 1 83.3398,8.5 L90.3398,28.2969 L321.5,28.2969 A2.5,2.5 0 0 1 324,30.7969 L324,367.39 A2.5,2.5 0 0 1 321.5,369.89 L8.5,369.89 A2.5,2.5 0 0 1 6,367.39 L6,8.5 A2.5,2.5 0 0 1 8.5,6" fill="none" style="stroke:#000000;stroke-width:1.5;"/><line style="stroke:#000000;stroke-width:1.5;" x1="6" x2="90.3398" y1="28.2969" y2="28.2969"/><text fill="#000000" font-family="sans-serif" font-size="14" font-weight="bold" lengthAdjust="spacing" textLength="71.3398" x="10" y="20.9951">jettl.lvlib</text></g><!--cluster jettl Msg Last Ack Queue.lvlib--><g class="cluster" data-entity="jettl Msg Last Ack Queue.lvlib" data-source-line="8" data-uid="ent0004" id="cluster_jettl Msg Last Ack Queue.lvlib"><path d="M32.5,114 L269.2852,114 A3.75,3.75 0 0 1 271.7852,116.5 L278.7852,136.2969 L297.5,136.2969 A2.5,2.5 0 0 1 300,138.7969 L300,259.39 A2.5,2.5 0 0 1 297.5,261.89 L32.5,261.89 A2.5,2.5 0 0 1 30,259.39 L30,116.5 A2.5,2.5 0 0 1 32.5,114" fill="none" style="stroke:#000000;stroke-width:1.5;"/><line style="stroke:#000000;stroke-width:1.5;" x1="30" x2="278.7852" y1="136.2969" y2="136.2969"/><text fill="#000000" font-family="sans-serif" font-size="14" font-weight="bold" lengthAdjust="spacing" textLength="235.7852" x="34" y="128.9951">jettl Msg Last Ack Queue.lvlib</text></g><!--class Msg Strategy--><g class="entity" data-entity="Msg Strategy" data-source-line="14" data-uid="ent0005" id="entity_Msg Strategy"><rect fill="#FFFFFF" height="48" rx="2.5" ry="2.5" style="stroke:#555555;stroke-width:0.5;" width="124.6953" x="102.65" y="41"/><rect fill="#808080" height="32" rx="2.5" ry="2.5" style="stroke:#808080;stroke-width:0.5;" width="124.6953" x="102.65" y="41"/><rect fill="#808080" height="2.5" style="stroke:#808080;stroke-width:0.5;" width="124.6953" x="102.65" y="70.5"/><rect fill="none" height="48" rx="2.5" ry="2.5" style="stroke:#555555;stroke-width:0.5;" width="124.6953" x="102.65" y="41"/><ellipse cx="117.65" cy="57" fill="#B4A7E5" rx="11" ry="11" style="stroke:#181818;stroke-width:1;"/><path d="M113.5719,52.7656 L113.5719,50.6094 L120.9625,50.6094 L120.9625,52.7656 L118.4938,52.7656 L118.4938,60.8438 L120.9625,60.8438 L120.9625,63 L113.5719,63 L113.5719,60.8438 L116.0406,60.8438 L116.0406,52.7656 L113.5719,52.7656 Z " fill="#000000"/><text fill="#000000" font-family="sans-serif" font-size="14" font-style="italic" lengthAdjust="spacing" textLength="92.6953" x="131.65" y="61.8467">Msg Strategy</text><line style="stroke:#555555;stroke-width:0.5;" x1="103.65" x2="226.3453" y1="73" y2="73"/><line style="stroke:#555555;stroke-width:0.5;" x1="103.65" x2="226.3453" y1="81" y2="81"/></g><!--class Queue--><g class="entity" data-entity="Queue" data-source-line="17" data-uid="ent0007" id="entity_Queue"><rect fill="#FFFFFF" height="48" rx="2.5" ry="2.5" style="stroke:#555555;stroke-width:0.5;" width="77.9922" x="126" y="305.89"/><rect fill="#808080" height="32" rx="2.5" ry="2.5" style="stroke:#808080;stroke-width:0.5;" width="77.9922" x="126" y="305.89"/><rect fill="#808080" height="2.5" style="stroke:#808080;stroke-width:0.5;" width="77.9922" x="126" y="335.39"/><rect fill="none" height="48" rx="2.5" ry="2.5" style="stroke:#555555;stroke-width:0.5;" width="77.9922" x="126" y="305.89"/><ellipse cx="141" cy="321.89" fill="#ADD1B2" rx="11" ry="11" style="stroke:#181818;stroke-width:1;"/><path d="M143.9688,327.5306 Q143.3906,327.8275 142.75,327.9681 Q142.1094,328.1244 141.4063,328.1244 Q138.9063,328.1244 137.5781,326.4838 Q136.2656,324.8275 136.2656,321.7025 Q136.2656,318.5775 137.5781,316.9213 Q138.9063,315.265 141.4063,315.265 Q142.1094,315.265 142.75,315.4213 Q143.4063,315.5775 143.9688,315.8744 L143.9688,318.5931 Q143.3438,318.015 142.75,317.7494 Q142.1563,317.4681 141.5313,317.4681 Q140.1875,317.4681 139.5,318.5463 Q138.8125,319.6088 138.8125,321.7025 Q138.8125,323.7963 139.5,324.8744 Q140.1875,325.9369 141.5313,325.9369 Q142.1563,325.9369 142.75,325.6713 Q143.3438,325.39 143.9688,324.8119 L143.9688,327.5306 Z " fill="#000000"/><text fill="#000000" font-family="sans-serif" font-size="14" lengthAdjust="spacing" textLength="45.9922" x="155" y="326.7367">Queue</text><line style="stroke:#555555;stroke-width:0.5;" x1="127" x2="202.9922" y1="337.89" y2="337.89"/><line style="stroke:#555555;stroke-width:0.5;" x1="127" x2="202.9922" y1="345.89" y2="345.89"/></g><!--class Last Ack Queue Msg Strategy--><g class="entity" data-entity="Last Ack Queue Msg Strategy" data-source-line="8" data-uid="ent0002" id="entity_Last Ack Queue Msg Strategy"><rect fill="#FFFFFF" height="96.8906" rx="2.5" ry="2.5" style="stroke:#555555;stroke-width:0.5;" width="238.582" x="45.71" y="149"/><rect fill="#808080" height="32" rx="2.5" ry="2.5" style="stroke:#808080;stroke-width:0.5;" width="238.582" x="45.71" y="149"/><rect fill="#808080" height="2.5" style="stroke:#808080;stroke-width:0.5;" width="238.582" x="45.71" y="178.5"/><rect fill="none" height="96.8906" rx="2.5" ry="2.5" style="stroke:#555555;stroke-width:0.5;" width="238.582" x="45.71" y="149"/><ellipse cx="60.71" cy="165" fill="#ADD1B2" rx="11" ry="11" style="stroke:#181818;stroke-width:1;"/><path d="M63.6788,170.6406 Q63.1006,170.9375 62.46,171.0781 Q61.8194,171.2344 61.1163,171.2344 Q58.6163,171.2344 57.2881,169.5938 Q55.9756,167.9375 55.9756,164.8125 Q55.9756,161.6875 57.2881,160.0313 Q58.6163,158.375 61.1163,158.375 Q61.8194,158.375 62.46,158.5313 Q63.1163,158.6875 63.6788,158.9844 L63.6788,161.7031 Q63.0538,161.125 62.46,160.8594 Q61.8663,160.5781 61.2413,160.5781 Q59.8975,160.5781 59.21,161.6563 Q58.5225,162.7188 58.5225,164.8125 Q58.5225,166.9063 59.21,167.9844 Q59.8975,169.0469 61.2413,169.0469 Q61.8663,169.0469 62.46,168.7813 Q63.0538,168.5 63.6788,167.9219 L63.6788,170.6406 Z " fill="#000000"/><text fill="#000000" font-family="sans-serif" font-size="14" lengthAdjust="spacing" textLength="206.582" x="74.71" y="169.8467">Last Ack Queue Msg Strategy</text><line style="stroke:#555555;stroke-width:0.5;" x1="46.71" x2="283.292" y1="181" y2="181"/><rect fill="none" height="6" style="stroke:#C82930;stroke-width:1;" width="6" x="53.71" y="191.6484"/><text fill="#000000" font-family="sans-serif" font-size="14" lengthAdjust="spacing" textLength="118.2686" x="65.71" y="197.9951">Queue : LV Class</text><line style="stroke:#555555;stroke-width:0.5;" x1="46.71" x2="283.292" y1="205.2969" y2="205.2969"/><rect fill="#F24D5C" height="6" style="stroke:#C82930;stroke-width:1;" width="6" x="53.71" y="215.9453"/><text fill="#000000" font-family="sans-serif" font-size="14" lengthAdjust="spacing" text-decoration="underline" textLength="33.3047" x="65.71" y="222.292">Init()</text><rect fill="#F24D5C" height="6" style="stroke:#C82930;stroke-width:1;" width="6" x="53.71" y="232.2422"/><text fill="#000000" font-family="sans-serif" font-size="14" lengthAdjust="spacing" textLength="39.1836" x="65.71" y="238.5889">Msg()</text></g><!--reverse link Msg Strategy to Last Ack Queue Msg Strategy--><g class="link" data-entity-1="Msg Strategy" data-entity-2="Last Ack Queue Msg Strategy" data-source-line="14" data-uid="lnk6" id="link_Msg Strategy_Last Ack Queue Msg Strategy"><path codeLine="14" d="M165,107.32 C165,123.81 165,128.49 165,148.74" fill="none" id="Msg Strategy-backto-Last Ack Queue Msg Strategy" style="stroke:#181818;stroke-width:1;stroke-dasharray:7.0,7.0;"/><polygon fill="none" points="165,89.32,159,107.32,171,107.32,165,89.32" style="stroke:#181818;stroke-width:1;"/></g><!--reverse link Last Ack Queue Msg Strategy to Queue--><g class="link" data-entity-1="Last Ack Queue Msg Strategy" data-entity-2="Queue" data-source-line="17" data-uid="lnk8" id="link_Last Ack Queue Msg Strategy_Queue"><path codeLine="17" d="M165,258.28 C165,278.49 165,289.11 165,305.56" fill="none" id="Last Ack Queue Msg Strategy-backto-Queue" style="stroke:#181818;stroke-width:1;"/><polygon fill="#181818" points="165,246.28,161,252.28,165,258.28,169,252.28,165,246.28" style="stroke:#181818;stroke-width:1;"/></g><!--SRC=[hP71QiCm38RlUWgHNRP1GY-34NRP2cM5zZ0AkxkEcdfnx60hW-7btUUuWIqjx5GPWoLz_B-GFJ4QqPBlXAGTTS89jWvBy8qoOzRYKWllNuHiQcTxKosjZi3DAiK5Pbr5Ra8UKfmZAsju0XOfpe5N4b7Zml1nCHxuGxFjuiMzPROjLigHP6KDo545imzYreN-r6fVfZTkVOqRuHcVPODlFVKqjUV5nEquReBghmm3X8CYNGsOdzebRjvFeqBmB5Z90KDBVBGZipQAR-_Wjn3LOWu3p2QQUpnz5yNL9WPbcDmXVYZ-Ona6WAljw3xFvru9oW3W1m00]--></g></svg>