<svg xmlns="http://www.w3.org/2000/svg" xmlns:xlink="http://www.w3.org/1999/xlink" contentStyleType="text/css" data-diagram-type="CLASS" height="370px" preserveAspectRatio="none" style="width:273px;height:370px;background:#FFFFFF;" version="1.1" viewBox="0 0 273 370" width="273px" zoomAndPan="magnify"><defs/><g><!--cluster jettl.lvlib--><g class="cluster" data-entity="jettl.lvlib" data-source-line="8" data-uid="ent0003" id="cluster_jettl.lvlib"><path d="M8.5,6 L80.8398,6 A3.75,3.75 0 0 1 83.3398,8.5 L90.3398,28.2969 L263.5,28.2969 A2.5,2.5 0 0 1 266,30.7969 L266,360.8 A2.5,2.5 0 0 1 263.5,363.3 L8.5,363.3 A2.5,2.5 0 0 1 6,360.8 L6,8.5 A2.5,2.5 0 0 1 8.5,6" fill="none" style="stroke:#000000;stroke-width:1.5;"/><line style="stroke:#000000;stroke-width:1.5;" x1="6" x2="90.3398" y1="28.2969" y2="28.2969"/><text fill="#000000" font-family="sans-serif" font-size="14" font-weight="bold" lengthAdjust="spacing" textLength="71.3398" x="10" y="20.9951">jettl.lvlib</text></g><!--cluster Base Queue.lvlib--><g class="cluster" data-entity="Base Queue.lvlib" data-source-line="8" data-uid="ent0004" id="cluster_Base Queue.lvlib"><path d="M32.5,49 L166.0078,49 A3.75,3.75 0 0 1 168.5078,51.5 L175.5078,71.2969 L239.5,71.2969 A2.5,2.5 0 0 1 242,73.7969 L242,336.8 A2.5,2.5 0 0 1 239.5,339.3 L32.5,339.3 A2.5,2.5 0 0 1 30,336.8 L30,51.5 A2.5,2.5 0 0 1 32.5,49" fill="none" style="stroke:#000000;stroke-width:1.5;"/><line style="stroke:#000000;stroke-width:1.5;" x1="30" x2="175.5078" y1="71.2969" y2="71.2969"/><text fill="#000000" font-family="sans-serif" font-size="14" font-weight="bold" lengthAdjust="spacing" textLength="132.5078" x="34" y="63.9951">Base Queue.lvlib</text></g><!--cluster State.lvlib--><g class="cluster" data-entity="State.lvlib" data-source-line="8" data-uid="ent0005" id="cluster_State.lvlib"><path d="M56.5,92 L138.7725,92 A3.75,3.75 0 0 1 141.2725,94.5 L148.2725,114.2969 L215.5,114.2969 A2.5,2.5 0 0 1 218,116.7969 L218,312.8 A2.5,2.5 0 0 1 215.5,315.3 L56.5,315.3 A2.5,2.5 0 0 1 54,312.8 L54,94.5 A2.5,2.5 0 0 1 56.5,92" fill="none" style="stroke:#000000;stroke-width:1.5;"/><line style="stroke:#000000;stroke-width:1.5;" x1="54" x2="148.2725" y1="114.2969" y2="114.2969"/><text fill="#000000" font-family="sans-serif" font-size="14" font-weight="bold" lengthAdjust="spacing" textLength="81.2725" x="58" y="106.9951">State.lvlib</text></g><!--class Nominal State--><g class="entity" data-entity="Nominal State" data-source-line="8" data-uid="ent0002" id="entity_Nominal State"><rect fill="#FFFFFF" height="64.2969" rx="2.5" ry="2.5" style="stroke:#555555;stroke-width:0.5;" width="131.415" x="70.29" y="235"/><rect fill="#808080" height="32" rx="2.5" ry="2.5" style="stroke:#808080;stroke-width:0.5;" width="131.415" x="70.29" y="235"/><rect fill="#808080" height="2.5" style="stroke:#808080;stroke-width:0.5;" width="131.415" x="70.29" y="264.5"/><rect fill="none" height="64.2969" rx="2.5" ry="2.5" style="stroke:#555555;stroke-width:0.5;" width="131.415" x="70.29" y="235"/><ellipse cx="85.29" cy="251" fill="#ADD1B2" rx="11" ry="11" style="stroke:#181818;stroke-width:1;"/><path d="M88.2588,256.6406 Q87.6806,256.9375 87.04,257.0781 Q86.3994,257.2344 85.6963,257.2344 Q83.1963,257.2344 81.8681,255.5938 Q80.5556,253.9375 80.5556,250.8125 Q80.5556,247.6875 81.8681,246.0313 Q83.1963,244.375 85.6963,244.375 Q86.3994,244.375 87.04,244.5313 Q87.6963,244.6875 88.2588,244.9844 L88.2588,247.7031 Q87.6338,247.125 87.04,246.8594 Q86.4463,246.5781 85.8213,246.5781 Q84.4775,246.5781 83.79,247.6563 Q83.1025,248.7188 83.1025,250.8125 Q83.1025,252.9063 83.79,253.9844 Q84.4775,255.0469 85.8213,255.0469 Q86.4463,255.0469 87.04,254.7813 Q87.6338,254.5 88.2588,253.9219 L88.2588,256.6406 Z " fill="#000000"/><text fill="#000000" font-family="sans-serif" font-size="14" lengthAdjust="spacing" textLength="99.415" x="99.29" y="255.8467">Nominal State</text><line style="stroke:#555555;stroke-width:0.5;" x1="71.29" x2="200.705" y1="267" y2="267"/><line style="stroke:#555555;stroke-width:0.5;" x1="71.29" x2="200.705" y1="275" y2="275"/><rect fill="#F24D5C" height="6" style="stroke:#C82930;stroke-width:1;" width="6" x="78.29" y="285.6484"/><text fill="#000000" font-family="sans-serif" font-size="14" lengthAdjust="spacing" textLength="60.293" x="90.29" y="291.9951">Handle()</text></g><!--class State--><g class="entity" data-entity="State" data-source-line="12" data-uid="ent0006" id="entity_State"><rect fill="#FFFFFF" height="48" rx="2.5" ry="2.5" style="stroke:#555555;stroke-width:0.5;" width="69.0576" x="101.47" y="127"/><rect fill="#808080" height="32" rx="2.5" ry="2.5" style="stroke:#808080;stroke-width:0.5;" width="69.0576" x="101.47" y="127"/><rect fill="#808080" height="2.5" style="stroke:#808080;stroke-width:0.5;" width="69.0576" x="101.47" y="156.5"/><rect fill="none" height="48" rx="2.5" ry="2.5" style="stroke:#555555;stroke-width:0.5;" width="69.0576" x="101.47" y="127"/><ellipse cx="116.47" cy="143" fill="#B4A7E5" rx="11" ry="11" style="stroke:#181818;stroke-width:1;"/><path d="M112.3919,138.7656 L112.3919,136.6094 L119.7825,136.6094 L119.7825,138.7656 L117.3138,138.7656 L117.3138,146.8438 L119.7825,146.8438 L119.7825,149 L112.3919,149 L112.3919,146.8438 L114.8606,146.8438 L114.8606,138.7656 L112.3919,138.7656 Z " fill="#000000"/><text fill="#000000" font-family="sans-serif" font-size="14" font-style="italic" lengthAdjust="spacing" textLength="37.0576" x="130.47" y="147.8467">State</text><line style="stroke:#555555;stroke-width:0.5;" x1="102.47" x2="169.5276" y1="159" y2="159"/><line style="stroke:#555555;stroke-width:0.5;" x1="102.47" x2="169.5276" y1="167" y2="167"/></g><!--reverse link State to Nominal State--><g class="link" data-entity-1="State" data-entity-2="Nominal State" data-source-line="12" data-uid="lnk7" id="link_State_Nominal State"><path codeLine="12" d="M136,193.38 C136,210.47 136,215.84 136,234.58" fill="none" id="State-backto-Nominal State" style="stroke:#181818;stroke-width:1;stroke-dasharray:7.0,7.0;"/><polygon fill="none" points="136,175.38,130,193.38,142,193.38,136,175.38" style="stroke:#181818;stroke-width:1;"/></g><!--SRC=[dP71Yi9038RlUOgW5priyIA8U58GJuBu1B6JTMUTcPIPr4ljkpij5KGlk_uXa8IFFu4aLWpaELLKyf4hYgGISGdfOaFNUTmuIcbDvUKSfGvc8ou3usslDqoYuJWWyrwlo5Q23i2irokmOyeURmiNioxWYLQfSk99LCMZiP5BjHAWx5nmzCkghd1NPq_BDIN6Gyqr3uEZaZxglNWRo64_6s43ZMVz4TFYruw2SJoP0hJmTyF1Q7KhYe_F01kKutV-2lvxSTD2rXq0]--></g></svg>