<svg xmlns="http://www.w3.org/2000/svg" xmlns:xlink="http://www.w3.org/1999/xlink" contentStyleType="text/css" data-diagram-type="CLASS" height="376px" preserveAspectRatio="none" style="width:325px;height:376px;background:#FFFFFF;" version="1.1" viewBox="0 0 325 376" width="325px" zoomAndPan="magnify"><defs/><g><!--cluster jettl.lvlib--><g class="cluster" data-entity="jettl.lvlib" data-source-line="8" data-uid="ent0003" id="cluster_jettl.lvlib"><path d="M8.5,6 L80.8398,6 A3.75,3.75 0 0 1 83.3398,8.5 L90.3398,28.2969 L315.5,28.2969 A2.5,2.5 0 0 1 318,30.7969 L318,367.39 A2.5,2.5 0 0 1 315.5,369.89 L8.5,369.89 A2.5,2.5 0 0 1 6,367.39 L6,8.5 A2.5,2.5 0 0 1 8.5,6" fill="none" style="stroke:#000000;stroke-width:1.5;"/><line style="stroke:#000000;stroke-width:1.5;" x1="6" x2="90.3398" y1="28.2969" y2="28.2969"/><text fill="#000000" font-family="sans-serif" font-size="14" font-weight="bold" lengthAdjust="spacing" textLength="71.3398" x="10" y="20.9951">jettl.lvlib</text></g><!--cluster jettl Msg Last Ack Event.lvlib--><g class="cluster" data-entity="jettl Msg Last Ack Event.lvlib" data-source-line="8" data-uid="ent0004" id="cluster_jettl Msg Last Ack Event.lvlib"><path d="M32.5,114 L263.3037,114 A3.75,3.75 0 0 1 265.8037,116.5 L272.8037,136.2969 L291.5,136.2969 A2.5,2.5 0 0 1 294,138.7969 L294,259.39 A2.5,2.5 0 0 1 291.5,261.89 L32.5,261.89 A2.5,2.5 0 0 1 30,259.39 L30,116.5 A2.5,2.5 0 0 1 32.5,114" fill="none" style="stroke:#000000;stroke-width:1.5;"/><line style="stroke:#000000;stroke-width:1.5;" x1="30" x2="272.8037" y1="136.2969" y2="136.2969"/><text fill="#000000" font-family="sans-serif" font-size="14" font-weight="bold" lengthAdjust="spacing" textLength="229.8037" x="34" y="128.9951">jettl Msg Last Ack Event.lvlib</text></g><!--class Msg Strategy--><g class="entity" data-entity="Msg Strategy" data-source-line="14" data-uid="ent0005" id="entity_Msg Strategy"><rect fill="#FFFFFF" height="48" rx="2.5" ry="2.5" style="stroke:#555555;stroke-width:0.5;" width="124.6953" x="99.65" y="41"/><rect fill="#808080" height="32" rx="2.5" ry="2.5" style="stroke:#808080;stroke-width:0.5;" width="124.6953" x="99.65" y="41"/><rect fill="#808080" height="2.5" style="stroke:#808080;stroke-width:0.5;" width="124.6953" x="99.65" y="70.5"/><rect fill="none" height="48" rx="2.5" ry="2.5" style="stroke:#555555;stroke-width:0.5;" width="124.6953" x="99.65" y="41"/><ellipse cx="114.65" cy="57" fill="#B4A7E5" rx="11" ry="11" style="stroke:#181818;stroke-width:1;"/><path d="M110.5719,52.7656 L110.5719,50.6094 L117.9625,50.6094 L117.9625,52.7656 L115.4938,52.7656 L115.4938,60.8438 L117.9625,60.8438 L117.9625,63 L110.5719,63 L110.5719,60.8438 L113.0406,60.8438 L113.0406,52.7656 L110.5719,52.7656 Z " fill="#000000"/><text fill="#000000" font-family="sans-serif" font-size="14" font-style="italic" lengthAdjust="spacing" textLength="92.6953" x="128.65" y="61.8467">Msg Strategy</text><line style="stroke:#555555;stroke-width:0.5;" x1="100.65" x2="223.3453" y1="73" y2="73"/><line style="stroke:#555555;stroke-width:0.5;" x1="100.65" x2="223.3453" y1="81" y2="81"/></g><!--class Event--><g class="entity" data-entity="Event" data-source-line="17" data-uid="ent0007" id="entity_Event"><rect fill="#FFFFFF" height="48" rx="2.5" ry="2.5" style="stroke:#555555;stroke-width:0.5;" width="72.1064" x="125.95" y="305.89"/><rect fill="#808080" height="32" rx="2.5" ry="2.5" style="stroke:#808080;stroke-width:0.5;" width="72.1064" x="125.95" y="305.89"/><rect fill="#808080" height="2.5" style="stroke:#808080;stroke-width:0.5;" width="72.1064" x="125.95" y="335.39"/><rect fill="none" height="48" rx="2.5" ry="2.5" style="stroke:#555555;stroke-width:0.5;" width="72.1064" x="125.95" y="305.89"/><ellipse cx="140.95" cy="321.89" fill="#ADD1B2" rx="11" ry="11" style="stroke:#181818;stroke-width:1;"/><path d="M143.9188,327.5306 Q143.3406,327.8275 142.7,327.9681 Q142.0594,328.1244 141.3563,328.1244 Q138.8563,328.1244 137.5281,326.4838 Q136.2156,324.8275 136.2156,321.7025 Q136.2156,318.5775 137.5281,316.9213 Q138.8563,315.265 141.3563,315.265 Q142.0594,315.265 142.7,315.4213 Q143.3563,315.5775 143.9188,315.8744 L143.9188,318.5931 Q143.2938,318.015 142.7,317.7494 Q142.1063,317.4681 141.4813,317.4681 Q140.1375,317.4681 139.45,318.5463 Q138.7625,319.6088 138.7625,321.7025 Q138.7625,323.7963 139.45,324.8744 Q140.1375,325.9369 141.4813,325.9369 Q142.1063,325.9369 142.7,325.6713 Q143.2938,325.39 143.9188,324.8119 L143.9188,327.5306 Z " fill="#000000"/><text fill="#000000" font-family="sans-serif" font-size="14" lengthAdjust="spacing" textLength="40.1064" x="154.95" y="326.7367">Event</text><line style="stroke:#555555;stroke-width:0.5;" x1="126.95" x2="197.0564" y1="337.89" y2="337.89"/><line style="stroke:#555555;stroke-width:0.5;" x1="126.95" x2="197.0564" y1="345.89" y2="345.89"/></g><!--class Last Ack Event Msg Strategy--><g class="entity" data-entity="Last Ack Event Msg Strategy" data-source-line="8" data-uid="ent0002" id="entity_Last Ack Event Msg Strategy"><rect fill="#FFFFFF" height="96.8906" rx="2.5" ry="2.5" style="stroke:#555555;stroke-width:0.5;" width="232.6963" x="45.65" y="149"/><rect fill="#808080" height="32" rx="2.5" ry="2.5" style="stroke:#808080;stroke-width:0.5;" width="232.6963" x="45.65" y="149"/><rect fill="#808080" height="2.5" style="stroke:#808080;stroke-width:0.5;" width="232.6963" x="45.65" y="178.5"/><rect fill="none" height="96.8906" rx="2.5" ry="2.5" style="stroke:#555555;stroke-width:0.5;" width="232.6963" x="45.65" y="149"/><ellipse cx="60.65" cy="165" fill="#ADD1B2" rx="11" ry="11" style="stroke:#181818;stroke-width:1;"/><path d="M63.6188,170.6406 Q63.0406,170.9375 62.4,171.0781 Q61.7594,171.2344 61.0563,171.2344 Q58.5563,171.2344 57.2281,169.5938 Q55.9156,167.9375 55.9156,164.8125 Q55.9156,161.6875 57.2281,160.0313 Q58.5563,158.375 61.0563,158.375 Q61.7594,158.375 62.4,158.5313 Q63.0563,158.6875 63.6188,158.9844 L63.6188,161.7031 Q62.9938,161.125 62.4,160.8594 Q61.8063,160.5781 61.1813,160.5781 Q59.8375,160.5781 59.15,161.6563 Q58.4625,162.7188 58.4625,164.8125 Q58.4625,166.9063 59.15,167.9844 Q59.8375,169.0469 61.1813,169.0469 Q61.8063,169.0469 62.4,168.7813 Q62.9938,168.5 63.6188,167.9219 L63.6188,170.6406 Z " fill="#000000"/><text fill="#000000" font-family="sans-serif" font-size="14" lengthAdjust="spacing" textLength="200.6963" x="74.65" y="169.8467">Last Ack Event Msg Strategy</text><line style="stroke:#555555;stroke-width:0.5;" x1="46.65" x2="277.3463" y1="181" y2="181"/><rect fill="none" height="6" style="stroke:#C82930;stroke-width:1;" width="6" x="53.65" y="191.6484"/><text fill="#000000" font-family="sans-serif" font-size="14" lengthAdjust="spacing" textLength="112.3828" x="65.65" y="197.9951">Event : LV Class</text><line style="stroke:#555555;stroke-width:0.5;" x1="46.65" x2="277.3463" y1="205.2969" y2="205.2969"/><rect fill="#F24D5C" height="6" style="stroke:#C82930;stroke-width:1;" width="6" x="53.65" y="215.9453"/><text fill="#000000" font-family="sans-serif" font-size="14" lengthAdjust="spacing" text-decoration="underline" textLength="33.3047" x="65.65" y="222.292">Init()</text><rect fill="#F24D5C" height="6" style="stroke:#C82930;stroke-width:1;" width="6" x="53.65" y="232.2422"/><text fill="#000000" font-family="sans-serif" font-size="14" lengthAdjust="spacing" textLength="39.1836" x="65.65" y="238.5889">Msg()</text></g><!--reverse link Msg Strategy to Last Ack Event Msg Strategy--><g class="link" data-entity-1="Msg Strategy" data-entity-2="Last Ack Event Msg Strategy" data-source-line="14" data-uid="lnk6" id="link_Msg Strategy_Last Ack Event Msg Strategy"><path codeLine="14" d="M162,107.32 C162,123.81 162,128.49 162,148.74" fill="none" id="Msg Strategy-backto-Last Ack Event Msg Strategy" style="stroke:#181818;stroke-width:1;stroke-dasharray:7.0,7.0;"/><polygon fill="none" points="162,89.32,156,107.32,168,107.32,162,89.32" style="stroke:#181818;stroke-width:1;"/></g><!--reverse link Last Ack Event Msg Strategy to Event--><g class="link" data-entity-1="Last Ack Event Msg Strategy" data-entity-2="Event" data-source-line="17" data-uid="lnk8" id="link_Last Ack Event Msg Strategy_Event"><path codeLine="17" d="M162,258.28 C162,278.49 162,289.11 162,305.56" fill="none" id="Last Ack Event Msg Strategy-backto-Event" style="stroke:#181818;stroke-width:1;"/><polygon fill="#181818" points="162,246.28,158,252.28,162,258.28,166,252.28,162,246.28" style="stroke:#181818;stroke-width:1;"/></g><!--SRC=[hP71QiCm38RlUWgHNRP1GY-34NRPoie6tQcmk-kegHV72hPM65dUVOuRsDB2JfKnMDB7_mivaA1JBOLEQTfGfxmIzbX2Q8mRinQNLeNmf7HJU_vqrP9j1AvMASumzXNv2RbBSOgisCa4B5AS0Y-aeiQPuVrYFF275kxYnIsBS8kLyQJ5i0Czgc3sGIAsi0ThjcLwurkeSQs2uADkyFb0JgRsl9YuZSHDKFsLOG_zpf2j1ioFxHBNxyTHeG-YnEW1-vPapoFpwenSty1l8Qh570QOJJJtUFWkYejD3CO9-LtyKFp7iXy0BhQZspoVUoKe0u0V]--></g></svg>