<svg xmlns="http://www.w3.org/2000/svg" xmlns:xlink="http://www.w3.org/1999/xlink" contentStyleType="text/css" data-diagram-type="CLASS" height="423px" preserveAspectRatio="none" style="width:557px;height:423px;background:#FFFFFF;" version="1.1" viewBox="0 0 557 423" width="557px" zoomAndPan="magnify"><defs/><g><!--cluster jettl.lvlib--><g class="cluster" data-entity="jettl.lvlib" data-source-line="8" data-uid="ent0003" id="cluster_jettl.lvlib"><path d="M8.5,6 L80.8398,6 A3.75,3.75 0 0 1 83.3398,8.5 L90.3398,28.2969 L547.5,28.2969 A2.5,2.5 0 0 1 550,30.7969 L550,413.95 A2.5,2.5 0 0 1 547.5,416.45 L8.5,416.45 A2.5,2.5 0 0 1 6,413.95 L6,8.5 A2.5,2.5 0 0 1 8.5,6" fill="none" style="stroke:#000000;stroke-width:1.5;"/><line style="stroke:#000000;stroke-width:1.5;" x1="6" x2="90.3398" y1="28.2969" y2="28.2969"/><text fill="#000000" font-family="sans-serif" font-size="14" font-weight="bold" lengthAdjust="spacing" textLength="71.3398" x="10" y="20.9951">jettl.lvlib</text></g><!--cluster Queue Mailbox.lvlib--><g class="cluster" data-entity="Queue Mailbox.lvlib" data-source-line="8" data-uid="ent0004" id="cluster_Queue Mailbox.lvlib"><path d="M32.5,49 L189.708,49 A3.75,3.75 0 0 1 192.208,51.5 L199.208,71.2969 L523.5,71.2969 A2.5,2.5 0 0 1 526,73.7969 L526,389.95 A2.5,2.5 0 0 1 523.5,392.45 L32.5,392.45 A2.5,2.5 0 0 1 30,389.95 L30,51.5 A2.5,2.5 0 0 1 32.5,49" fill="none" style="stroke:#000000;stroke-width:1.5;"/><line style="stroke:#000000;stroke-width:1.5;" x1="30" x2="199.208" y1="71.2969" y2="71.2969"/><text fill="#000000" font-family="sans-serif" font-size="14" font-weight="bold" lengthAdjust="spacing" textLength="156.208" x="34" y="63.9951">Queue Mailbox.lvlib</text></g><!--class Queue Mailbox--><g class="entity" data-entity="Queue Mailbox" data-source-line="8" data-uid="ent0002" id="entity_Queue Mailbox"><rect fill="#FFFFFF" height="292.4531" rx="2.5" ry="2.5" style="stroke:#555555;stroke-width:0.5;" width="463.6641" x="46.17" y="84"/><rect fill="#808080" height="32" rx="2.5" ry="2.5" style="stroke:#808080;stroke-width:0.5;" width="463.6641" x="46.17" y="84"/><rect fill="#808080" height="2.5" style="stroke:#808080;stroke-width:0.5;" width="463.6641" x="46.17" y="113.5"/><rect fill="none" height="292.4531" rx="2.5" ry="2.5" style="stroke:#555555;stroke-width:0.5;" width="463.6641" x="46.17" y="84"/><ellipse cx="221.4434" cy="100" fill="#ADD1B2" rx="11" ry="11" style="stroke:#181818;stroke-width:1;"/><path d="M224.4122,105.6406 Q223.8341,105.9375 223.1934,106.0781 Q222.5528,106.2344 221.8497,106.2344 Q219.3497,106.2344 218.0216,104.5938 Q216.7091,102.9375 216.7091,99.8125 Q216.7091,96.6875 218.0216,95.0313 Q219.3497,93.375 221.8497,93.375 Q222.5528,93.375 223.1934,93.5313 Q223.8497,93.6875 224.4122,93.9844 L224.4122,96.7031 Q223.7872,96.125 223.1934,95.8594 Q222.5997,95.5781 221.9747,95.5781 Q220.6309,95.5781 219.9434,96.6563 Q219.2559,97.7188 219.2559,99.8125 Q219.2559,101.9063 219.9434,102.9844 Q220.6309,104.0469 221.9747,104.0469 Q222.5997,104.0469 223.1934,103.7813 Q223.7872,103.5 224.4122,102.9219 L224.4122,105.6406 Z " fill="#000000"/><text fill="#000000" font-family="sans-serif" font-size="14" lengthAdjust="spacing" textLength="104.6172" x="241.9434" y="104.8467">Queue Mailbox</text><line style="stroke:#555555;stroke-width:0.5;" x1="47.17" x2="508.8341" y1="116" y2="116"/><rect fill="none" height="6" style="stroke:#C82930;stroke-width:1;" width="6" x="54.17" y="126.6484"/><text fill="#000000" font-family="sans-serif" font-size="14" lengthAdjust="spacing" textLength="169.8389" x="66.17" y="132.9951">Self Queue Alias : String</text><rect fill="none" height="6" style="stroke:#C82930;stroke-width:1;" width="6" x="54.17" y="142.9453"/><text fill="#000000" font-family="sans-serif" font-size="14" lengthAdjust="spacing" textLength="143.7529" x="66.17" y="149.292">Self Queue : NoType</text><rect fill="none" height="6" style="stroke:#C82930;stroke-width:1;" width="6" x="54.17" y="159.2422"/><text fill="#000000" font-family="sans-serif" font-size="14" lengthAdjust="spacing" textLength="196.0547" x="66.17" y="165.5889">Creator Queue Alias : String</text><rect fill="none" height="6" style="stroke:#C82930;stroke-width:1;" width="6" x="54.17" y="175.5391"/><text fill="#000000" font-family="sans-serif" font-size="14" lengthAdjust="spacing" textLength="169.9688" x="66.17" y="181.8857">Creator Queue : NoType</text><rect fill="none" height="6" style="stroke:#C82930;stroke-width:1;" width="6" x="54.17" y="191.8359"/><text fill="#000000" font-family="sans-serif" font-size="14" lengthAdjust="spacing" textLength="437.6641" x="66.17" y="198.1826">Created Queues : Map Collection (key: String - Value: NoType)</text><rect fill="none" height="6" style="stroke:#C82930;stroke-width:1;" width="6" x="54.17" y="208.1328"/><text fill="#000000" font-family="sans-serif" font-size="14" lengthAdjust="spacing" textLength="431.7783" x="66.17" y="214.4795">Created Events : Map Collection (key: String - Value: NoType)</text><line style="stroke:#555555;stroke-width:0.5;" x1="47.17" x2="508.8341" y1="221.7813" y2="221.7813"/><rect fill="#F24D5C" height="6" style="stroke:#C82930;stroke-width:1;" width="6" x="54.17" y="232.4297"/><text fill="#000000" font-family="sans-serif" font-size="14" lengthAdjust="spacing" text-decoration="underline" textLength="33.3047" x="66.17" y="238.7764">Init()</text><rect fill="#F24D5C" height="6" style="stroke:#C82930;stroke-width:1;" width="6" x="54.17" y="248.7266"/><text fill="#000000" font-family="sans-serif" font-size="14" lengthAdjust="spacing" text-decoration="underline" textLength="154.7656" x="66.17" y="255.0732">Get Self Queue Alias()</text><rect fill="#F24D5C" height="6" style="stroke:#C82930;stroke-width:1;" width="6" x="54.17" y="265.0234"/><text fill="#000000" font-family="sans-serif" font-size="14" lengthAdjust="spacing" text-decoration="underline" textLength="117.0859" x="66.17" y="271.3701">Get Self Queue()</text><rect fill="#F24D5C" height="6" style="stroke:#C82930;stroke-width:1;" width="6" x="54.17" y="281.3203"/><text fill="#000000" font-family="sans-serif" font-size="14" lengthAdjust="spacing" text-decoration="underline" textLength="180.9814" x="66.17" y="287.667">Get Creator Queue Alias()</text><rect fill="#F24D5C" height="6" style="stroke:#C82930;stroke-width:1;" width="6" x="54.17" y="297.6172"/><text fill="#000000" font-family="sans-serif" font-size="14" lengthAdjust="spacing" text-decoration="underline" textLength="143.3018" x="66.17" y="303.9639">Get Creator Queue()</text><rect fill="#F24D5C" height="6" style="stroke:#C82930;stroke-width:1;" width="6" x="54.17" y="313.9141"/><text fill="#000000" font-family="sans-serif" font-size="14" lengthAdjust="spacing" text-decoration="underline" textLength="153.7744" x="66.17" y="320.2607">Get Created Queues()</text><rect fill="#F24D5C" height="6" style="stroke:#C82930;stroke-width:1;" width="6" x="54.17" y="330.2109"/><text fill="#000000" font-family="sans-serif" font-size="14" lengthAdjust="spacing" text-decoration="underline" textLength="151.8125" x="66.17" y="336.5576">Set Created Queues()</text><rect fill="#F24D5C" height="6" style="stroke:#C82930;stroke-width:1;" width="6" x="54.17" y="346.5078"/><text fill="#000000" font-family="sans-serif" font-size="14" lengthAdjust="spacing" text-decoration="underline" textLength="147.8887" x="66.17" y="352.8545">Get Created Events()</text><rect fill="#F24D5C" height="6" style="stroke:#C82930;stroke-width:1;" width="6" x="54.17" y="362.8047"/><text fill="#000000" font-family="sans-serif" font-size="14" lengthAdjust="spacing" text-decoration="underline" textLength="145.9268" x="66.17" y="369.1514">Set Created Events()</text></g><!--SRC=[bP8zJyCm48Pt_ufJMSfGr0K9POE80aEHK13x9RaM4yUEx4j55UM_au-sb2HjmraUulVHO-ML7J5eJCbb65506LfaOy4JBf6w_ah1L-ZS0qR9sffSnxvH5N2rQAQ76HkJtI6tpNIHXT6y0-RDT85dmihHk_1kNYznHBF9gWsXOJOfnD9InD9e4TKMc7mHixfH6oL3xosdd629KeNcU-Xi0eKeLf9KNC8i8BM2DhvN4Xru4B2LUZs8UF1gthSP_OQ-fQR5yug_r0aBnMrU2vQOGLM6QdyJfWbjzrQOmGUgdFQMwxxcSKEQ_wznZ2oZ4egK-DFKmXSjUJgOF5MFgTlT6F8qCz3aIFW2TkXrc0j6SiU-jk3BlWCdIY743m00]--></g></svg>