<svg xmlns="http://www.w3.org/2000/svg" xmlns:xlink="http://www.w3.org/1999/xlink" contentStyleType="text/css" data-diagram-type="CLASS" height="283px" preserveAspectRatio="none" style="width:257px;height:283px;background:#FFFFFF;" version="1.1" viewBox="0 0 257 283" width="257px" zoomAndPan="magnify"><defs/><g><!--cluster jettl Msg Merge Error.lvlib--><g class="cluster" data-entity="jettl Msg Merge Error.lvlib" data-source-line="8" data-uid="ent0003" id="cluster_jettl Msg Merge Error.lvlib"><path d="M8.5,129 L217.4902,129 A3.75,3.75 0 0 1 219.9902,131.5 L226.9902,151.2969 L247.5,151.2969 A2.5,2.5 0 0 1 250,153.7969 L250,274.39 A2.5,2.5 0 0 1 247.5,276.89 L8.5,276.89 A2.5,2.5 0 0 1 6,274.39 L6,131.5 A2.5,2.5 0 0 1 8.5,129" fill="none" style="stroke:#000000;stroke-width:1.5;"/><line style="stroke:#000000;stroke-width:1.5;" x1="6" x2="226.9902" y1="151.2969" y2="151.2969"/><text fill="#000000" font-family="sans-serif" font-size="14" font-weight="bold" lengthAdjust="spacing" textLength="207.9902" x="10" y="143.9951">jettl Msg Merge Error.lvlib</text></g><!--cluster jettl.lvlib--><g class="cluster" data-entity="jettl.lvlib" data-source-line="14" data-uid="ent0005" id="cluster_jettl.lvlib"><path d="M52.5,6 L124.8398,6 A3.75,3.75 0 0 1 127.3398,8.5 L134.3398,28.2969 L203.5,28.2969 A2.5,2.5 0 0 1 206,30.7969 L206,102.5 A2.5,2.5 0 0 1 203.5,105 L52.5,105 A2.5,2.5 0 0 1 50,102.5 L50,8.5 A2.5,2.5 0 0 1 52.5,6" fill="none" style="stroke:#000000;stroke-width:1.5;"/><line style="stroke:#000000;stroke-width:1.5;" x1="50" x2="134.3398" y1="28.2969" y2="28.2969"/><text fill="#000000" font-family="sans-serif" font-size="14" font-weight="bold" lengthAdjust="spacing" textLength="71.3398" x="54" y="20.9951">jettl.lvlib</text></g><!--class Merge Error Msg Strategy--><g class="entity" data-entity="Merge Error Msg Strategy" data-source-line="8" data-uid="ent0002" id="entity_Merge Error Msg Strategy"><rect fill="#FFFFFF" height="96.8906" rx="2.5" ry="2.5" style="stroke:#555555;stroke-width:0.5;" width="212.2227" x="21.89" y="164"/><rect fill="#808080" height="32" rx="2.5" ry="2.5" style="stroke:#808080;stroke-width:0.5;" width="212.2227" x="21.89" y="164"/><rect fill="#808080" height="2.5" style="stroke:#808080;stroke-width:0.5;" width="212.2227" x="21.89" y="193.5"/><rect fill="none" height="96.8906" rx="2.5" ry="2.5" style="stroke:#555555;stroke-width:0.5;" width="212.2227" x="21.89" y="164"/><ellipse cx="36.89" cy="180" fill="#ADD1B2" rx="11" ry="11" style="stroke:#181818;stroke-width:1;"/><path d="M39.8588,185.6406 Q39.2806,185.9375 38.64,186.0781 Q37.9994,186.2344 37.2963,186.2344 Q34.7963,186.2344 33.4681,184.5938 Q32.1556,182.9375 32.1556,179.8125 Q32.1556,176.6875 33.4681,175.0313 Q34.7963,173.375 37.2963,173.375 Q37.9994,173.375 38.64,173.5313 Q39.2963,173.6875 39.8588,173.9844 L39.8588,176.7031 Q39.2338,176.125 38.64,175.8594 Q38.0463,175.5781 37.4213,175.5781 Q36.0775,175.5781 35.39,176.6563 Q34.7025,177.7188 34.7025,179.8125 Q34.7025,181.9063 35.39,182.9844 Q36.0775,184.0469 37.4213,184.0469 Q38.0463,184.0469 38.64,183.7813 Q39.2338,183.5 39.8588,182.9219 L39.8588,185.6406 Z " fill="#000000"/><text fill="#000000" font-family="sans-serif" font-size="14" lengthAdjust="spacing" textLength="180.2227" x="50.89" y="184.8467">Merge Error Msg Strategy</text><line style="stroke:#555555;stroke-width:0.5;" x1="22.89" x2="233.1127" y1="196" y2="196"/><rect fill="none" height="6" style="stroke:#C82930;stroke-width:1;" width="6" x="29.89" y="206.6484"/><text fill="#000000" font-family="sans-serif" font-size="14" lengthAdjust="spacing" textLength="137.1152" x="41.89" y="212.9951">Error : Error Cluster</text><line style="stroke:#555555;stroke-width:0.5;" x1="22.89" x2="233.1127" y1="220.2969" y2="220.2969"/><rect fill="#F24D5C" height="6" style="stroke:#C82930;stroke-width:1;" width="6" x="29.89" y="230.9453"/><text fill="#000000" font-family="sans-serif" font-size="14" lengthAdjust="spacing" text-decoration="underline" textLength="33.3047" x="41.89" y="237.292">Init()</text><rect fill="#F24D5C" height="6" style="stroke:#C82930;stroke-width:1;" width="6" x="29.89" y="247.2422"/><text fill="#000000" font-family="sans-serif" font-size="14" lengthAdjust="spacing" textLength="39.1836" x="41.89" y="253.5889">Msg()</text></g><!--class Msg Strategy--><g class="entity" data-entity="Msg Strategy" data-source-line="14" data-uid="ent0004" id="entity_Msg Strategy"><rect fill="#FFFFFF" height="48" rx="2.5" ry="2.5" style="stroke:#555555;stroke-width:0.5;" width="124.6953" x="65.65" y="41"/><rect fill="#808080" height="32" rx="2.5" ry="2.5" style="stroke:#808080;stroke-width:0.5;" width="124.6953" x="65.65" y="41"/><rect fill="#808080" height="2.5" style="stroke:#808080;stroke-width:0.5;" width="124.6953" x="65.65" y="70.5"/><rect fill="none" height="48" rx="2.5" ry="2.5" style="stroke:#555555;stroke-width:0.5;" width="124.6953" x="65.65" y="41"/><ellipse cx="80.65" cy="57" fill="#B4A7E5" rx="11" ry="11" style="stroke:#181818;stroke-width:1;"/><path d="M76.5719,52.7656 L76.5719,50.6094 L83.9625,50.6094 L83.9625,52.7656 L81.4938,52.7656 L81.4938,60.8438 L83.9625,60.8438 L83.9625,63 L76.5719,63 L76.5719,60.8438 L79.0406,60.8438 L79.0406,52.7656 L76.5719,52.7656 Z " fill="#000000"/><text fill="#000000" font-family="sans-serif" font-size="14" font-style="italic" lengthAdjust="spacing" textLength="92.6953" x="94.65" y="61.8467">Msg Strategy</text><line style="stroke:#555555;stroke-width:0.5;" x1="66.65" x2="189.3453" y1="73" y2="73"/><line style="stroke:#555555;stroke-width:0.5;" x1="66.65" x2="189.3453" y1="81" y2="81"/></g><!--reverse link Msg Strategy to Merge Error Msg Strategy--><g class="link" data-entity-1="Msg Strategy" data-entity-2="Merge Error Msg Strategy" data-source-line="14" data-uid="lnk6" id="link_Msg Strategy_Merge Error Msg Strategy"><path codeLine="14" d="M128,107.37 C128,127.36 128,138.78 128,163.73" fill="none" id="Msg Strategy-backto-Merge Error Msg Strategy" style="stroke:#181818;stroke-width:1;stroke-dasharray:7.0,7.0;"/><polygon fill="none" points="128,89.37,122,107.37,134,107.37,128,89.37" style="stroke:#181818;stroke-width:1;"/></g><!--SRC=[dP7FJiCm3CRlVWfhNDY1QXUagU94nGI7dVO4MUgLi3Ik70y9XRxxqgw8_P4uy4KvsFdf-smbac8mBSNEMDfGPyGe2vOGzouCLOkLDp4-6xjlX0-XhjXdu6urwWPZgKacv77KDRBYe1Em67KDl9B97ZU1oyLmu8nMxlB5BQjoYxKJikeuW1rSSFP1gXxNiS4rIKFu8i9I-4_ljkLPPoGsclUcvck62TBEaQzxV3WzbnDM-KDK4aXHZJhROsf9tta0tuBJ-pdyDh9bhg67qn0_eHT1Jzz5ySyXmOKyoIx_6FuHa7h8EW80]--></g></svg>