<svg xmlns="http://www.w3.org/2000/svg" xmlns:xlink="http://www.w3.org/1999/xlink" contentStyleType="text/css" data-diagram-type="CLASS" height="370px" preserveAspectRatio="none" style="width:283px;height:370px;background:#FFFFFF;" version="1.1" viewBox="0 0 283 370" width="283px" zoomAndPan="magnify"><defs/><g><!--cluster jettl.lvlib--><g class="cluster" data-entity="jettl.lvlib" data-source-line="8" data-uid="ent0003" id="cluster_jettl.lvlib"><path d="M8.5,6 L80.8398,6 A3.75,3.75 0 0 1 83.3398,8.5 L90.3398,28.2969 L273.5,28.2969 A2.5,2.5 0 0 1 276,30.7969 L276,360.8 A2.5,2.5 0 0 1 273.5,363.3 L8.5,363.3 A2.5,2.5 0 0 1 6,360.8 L6,8.5 A2.5,2.5 0 0 1 8.5,6" fill="none" style="stroke:#000000;stroke-width:1.5;"/><line style="stroke:#000000;stroke-width:1.5;" x1="6" x2="90.3398" y1="28.2969" y2="28.2969"/><text fill="#000000" font-family="sans-serif" font-size="14" font-weight="bold" lengthAdjust="spacing" textLength="71.3398" x="10" y="20.9951">jettl.lvlib</text></g><!--cluster Base Event.lvlib--><g class="cluster" data-entity="Base Event.lvlib" data-source-line="8" data-uid="ent0004" id="cluster_Base Event.lvlib"><path d="M32.5,49 L160.0264,49 A3.75,3.75 0 0 1 162.5264,51.5 L169.5264,71.2969 L249.5,71.2969 A2.5,2.5 0 0 1 252,73.7969 L252,336.8 A2.5,2.5 0 0 1 249.5,339.3 L32.5,339.3 A2.5,2.5 0 0 1 30,336.8 L30,51.5 A2.5,2.5 0 0 1 32.5,49" fill="none" style="stroke:#000000;stroke-width:1.5;"/><line style="stroke:#000000;stroke-width:1.5;" x1="30" x2="169.5264" y1="71.2969" y2="71.2969"/><text fill="#000000" font-family="sans-serif" font-size="14" font-weight="bold" lengthAdjust="spacing" textLength="126.5264" x="34" y="63.9951">Base Event.lvlib</text></g><!--cluster State.lvlib--><g class="cluster" data-entity="State.lvlib" data-source-line="8" data-uid="ent0005" id="cluster_State.lvlib"><path d="M56.5,92 L138.7725,92 A3.75,3.75 0 0 1 141.2725,94.5 L148.2725,114.2969 L225.5,114.2969 A2.5,2.5 0 0 1 228,116.7969 L228,312.8 A2.5,2.5 0 0 1 225.5,315.3 L56.5,315.3 A2.5,2.5 0 0 1 54,312.8 L54,94.5 A2.5,2.5 0 0 1 56.5,92" fill="none" style="stroke:#000000;stroke-width:1.5;"/><line style="stroke:#000000;stroke-width:1.5;" x1="54" x2="148.2725" y1="114.2969" y2="114.2969"/><text fill="#000000" font-family="sans-serif" font-size="14" font-weight="bold" lengthAdjust="spacing" textLength="81.2725" x="58" y="106.9951">State.lvlib</text></g><!--class Teardown State--><g class="entity" data-entity="Teardown State" data-source-line="8" data-uid="ent0002" id="entity_Teardown State"><rect fill="#FFFFFF" height="64.2969" rx="2.5" ry="2.5" style="stroke:#555555;stroke-width:0.5;" width="142.7832" x="69.61" y="235"/><rect fill="#808080" height="32" rx="2.5" ry="2.5" style="stroke:#808080;stroke-width:0.5;" width="142.7832" x="69.61" y="235"/><rect fill="#808080" height="2.5" style="stroke:#808080;stroke-width:0.5;" width="142.7832" x="69.61" y="264.5"/><rect fill="none" height="64.2969" rx="2.5" ry="2.5" style="stroke:#555555;stroke-width:0.5;" width="142.7832" x="69.61" y="235"/><ellipse cx="84.61" cy="251" fill="#ADD1B2" rx="11" ry="11" style="stroke:#181818;stroke-width:1;"/><path d="M87.5788,256.6406 Q87.0006,256.9375 86.36,257.0781 Q85.7194,257.2344 85.0163,257.2344 Q82.5163,257.2344 81.1881,255.5938 Q79.8756,253.9375 79.8756,250.8125 Q79.8756,247.6875 81.1881,246.0313 Q82.5163,244.375 85.0163,244.375 Q85.7194,244.375 86.36,244.5313 Q87.0163,244.6875 87.5788,244.9844 L87.5788,247.7031 Q86.9538,247.125 86.36,246.8594 Q85.7663,246.5781 85.1413,246.5781 Q83.7975,246.5781 83.11,247.6563 Q82.4225,248.7188 82.4225,250.8125 Q82.4225,252.9063 83.11,253.9844 Q83.7975,255.0469 85.1413,255.0469 Q85.7663,255.0469 86.36,254.7813 Q86.9538,254.5 87.5788,253.9219 L87.5788,256.6406 Z " fill="#000000"/><text fill="#000000" font-family="sans-serif" font-size="14" lengthAdjust="spacing" textLength="110.7832" x="98.61" y="255.8467">Teardown State</text><line style="stroke:#555555;stroke-width:0.5;" x1="70.61" x2="211.3932" y1="267" y2="267"/><line style="stroke:#555555;stroke-width:0.5;" x1="70.61" x2="211.3932" y1="275" y2="275"/><rect fill="#F24D5C" height="6" style="stroke:#C82930;stroke-width:1;" width="6" x="77.61" y="285.6484"/><text fill="#000000" font-family="sans-serif" font-size="14" lengthAdjust="spacing" textLength="60.293" x="89.61" y="291.9951">Handle()</text></g><!--class State--><g class="entity" data-entity="State" data-source-line="12" data-uid="ent0006" id="entity_State"><rect fill="#FFFFFF" height="48" rx="2.5" ry="2.5" style="stroke:#555555;stroke-width:0.5;" width="69.0576" x="106.47" y="127"/><rect fill="#808080" height="32" rx="2.5" ry="2.5" style="stroke:#808080;stroke-width:0.5;" width="69.0576" x="106.47" y="127"/><rect fill="#808080" height="2.5" style="stroke:#808080;stroke-width:0.5;" width="69.0576" x="106.47" y="156.5"/><rect fill="none" height="48" rx="2.5" ry="2.5" style="stroke:#555555;stroke-width:0.5;" width="69.0576" x="106.47" y="127"/><ellipse cx="121.47" cy="143" fill="#B4A7E5" rx="11" ry="11" style="stroke:#181818;stroke-width:1;"/><path d="M117.3919,138.7656 L117.3919,136.6094 L124.7825,136.6094 L124.7825,138.7656 L122.3138,138.7656 L122.3138,146.8438 L124.7825,146.8438 L124.7825,149 L117.3919,149 L117.3919,146.8438 L119.8606,146.8438 L119.8606,138.7656 L117.3919,138.7656 Z " fill="#000000"/><text fill="#000000" font-family="sans-serif" font-size="14" font-style="italic" lengthAdjust="spacing" textLength="37.0576" x="135.47" y="147.8467">State</text><line style="stroke:#555555;stroke-width:0.5;" x1="107.47" x2="174.5276" y1="159" y2="159"/><line style="stroke:#555555;stroke-width:0.5;" x1="107.47" x2="174.5276" y1="167" y2="167"/></g><!--reverse link State to Teardown State--><g class="link" data-entity-1="State" data-entity-2="Teardown State" data-source-line="12" data-uid="lnk7" id="link_State_Teardown State"><path codeLine="12" d="M141,193.38 C141,210.47 141,215.84 141,234.58" fill="none" id="State-backto-Teardown State" style="stroke:#181818;stroke-width:1;stroke-dasharray:7.0,7.0;"/><polygon fill="none" points="141,175.38,135,193.38,147,193.38,141,175.38" style="stroke:#181818;stroke-width:1;"/></g><!--SRC=[dP71QW9138RlUOfWB_NWugLGf2T5yMvV8Ex4EZgRB3EfFMpttJkxpA7eHVr380aVVm99R2ZKS6gfvXst5CaquWBIsSlGDRWAbDAIwlDNr6znAmqPUDcCki4qEeu5UHjrZMnKh03pKTV0bYbxt2nydmy1_sZJDYVkrKmRT3voRLu5wi459oSs2rMu1BzVB2anhYyiLWOx8-DIVp95fp-2ut227NGDsr5TZxCjYGlyEWNeuNx7OlJnMrNFtm5UZECX_mKVtjpraFK7]--></g></svg>